mononoki-Regular.ufo
<glyph name="exclam" format="1">
  <advance width="575"/>
  <unicode hex="0021"/>
  <outline>
    <contour>
      <point x="260" y="700" type="line" smooth="yes"/>
      <point x="244" y="700"/>
      <point x="235" y="691"/>
      <point x="235" y="675" type="curve" smooth="yes"/>
      <point x="246" y="230" type="line" smooth="yes"/>
      <point x="246" y="214"/>
      <point x="255" y="205"/>
      <point x="271" y="205" type="curve" smooth="yes"/>
      <point x="304" y="205" type="line" smooth="yes"/>
      <point x="320" y="205"/>
      <point x="330" y="214"/>
      <point x="330" y="230" type="curve" smooth="yes"/>
      <point x="340" y="675" type="line" smooth="yes"/>
      <point x="340" y="691"/>
      <point x="332" y="700"/>
      <point x="315" y="700" type="curve" smooth="yes"/>
    </contour>
    <contour>
      <point x="330" y="62" type="line" smooth="yes"/>
      <point x="330" y="78"/>
      <point x="322" y="87"/>
      <point x="305" y="87" type="curve" smooth="yes"/>
      <point x="270" y="87" type="line" smooth="yes"/>
      <point x="254" y="87"/>
      <point x="245" y="78"/>
      <point x="245" y="62" type="curve" smooth="yes"/>
      <point x="245" y="15" type="line" smooth="yes"/>
      <point x="245" y="-2"/>
      <point x="254" y="-10"/>
      <point x="270" y="-10" type="curve" smooth="yes"/>
      <point x="305" y="-10" type="line" smooth="yes"/>
      <point x="322" y="-10"/>
      <point x="330" y="-2"/>
      <point x="330" y="15" type="curve" smooth="yes"/>
    </contour>
  </outline>
</glyph>
<glyph name="quotedbl" format="1">
  <advance width="575"/>
  <unicode hex="0022"/>
  <outline>
    <contour>
      <point x="146" y="750" type="line" smooth="yes"/>
      <point x="129" y="750"/>
      <point x="121" y="741"/>
      <point x="121" y="725" type="curve" smooth="yes"/>
      <point x="134" y="437" type="line" smooth="yes"/>
      <point x="135" y="421"/>
      <point x="144" y="413"/>
      <point x="160" y="413" type="curve" smooth="yes"/>
      <point x="187" y="413" type="line" smooth="yes"/>
      <point x="203" y="413"/>
      <point x="212" y="421"/>
      <point x="213" y="437" type="curve" smooth="yes"/>
      <point x="225" y="725" type="line" smooth="yes"/>
      <point x="226" y="741"/>
      <point x="217" y="750"/>
      <point x="201" y="750" type="curve" smooth="yes"/>
    </contour>
    <contour>
      <point x="375" y="750" type="line" smooth="yes"/>
      <point x="358" y="750"/>
      <point x="349" y="741"/>
      <point x="350" y="725" type="curve" smooth="yes"/>
      <point x="363" y="437" type="line" smooth="yes"/>
      <point x="364" y="421"/>
      <point x="372" y="413"/>
      <point x="388" y="413" type="curve" smooth="yes"/>
      <point x="416" y="413" type="line" smooth="yes"/>
      <point x="432" y="413"/>
      <point x="441" y="421"/>
      <point x="441" y="437" type="curve" smooth="yes"/>
      <point x="454" y="725" type="line" smooth="yes"/>
      <point x="455" y="741"/>
      <point x="446" y="750"/>
      <point x="430" y="750" type="curve" smooth="yes"/>
    </contour>
  </outline>
</glyph>
<glyph name="numbersign" format="1">
  <advance width="575"/>
  <unicode hex="0023"/>
  <outline>
    <contour>
      <point x="433" y="270" type="line"/>
      <point x="433" y="424" type="line"/>
      <point x="499" y="424" type="line" smooth="yes"/>
      <point x="515" y="424"/>
      <point x="524" y="433"/>
      <point x="524" y="449" type="curve" smooth="yes"/>
      <point x="524" y="476" type="line" smooth="yes"/>
      <point x="524" y="492"/>
      <point x="515" y="501"/>
      <point x="499" y="501" type="curve" smooth="yes"/>
      <point x="433" y="501" type="line"/>
      <point x="433" y="675" type="line" smooth="yes"/>
      <point x="433" y="692"/>
      <point x="424" y="700"/>
      <point x="408" y="700" type="curve" smooth="yes"/>
      <point x="373" y="700" type="line" smooth="yes"/>
      <point x="356" y="700"/>
      <point x="348" y="691"/>
      <point x="348" y="675" type="curve" smooth="yes"/>
      <point x="348" y="501" type="line"/>
      <point x="228" y="501" type="line"/>
      <point x="228" y="675" type="line" smooth="yes"/>
      <point x="228" y="692"/>
      <point x="219" y="700"/>
      <point x="203" y="700" type="curve" smooth="yes"/>
      <point x="168" y="700" type="line" smooth="yes"/>
      <point x="152" y="700"/>
      <point x="143" y="691"/>
      <point x="143" y="675" type="curve" smooth="yes"/>
      <point x="143" y="501" type="line"/>
      <point x="76" y="501" type="line" smooth="yes"/>
      <point x="60" y="501"/>
      <point x="51" y="492"/>
      <point x="51" y="475" type="curve" smooth="yes"/>
      <point x="51" y="449" type="line" smooth="yes"/>
      <point x="51" y="433"/>
      <point x="60" y="424"/>
      <point x="76" y="424" type="curve" smooth="yes"/>
      <point x="143" y="424" type="line"/>
      <point x="143" y="270" type="line"/>
      <point x="76" y="270" type="line" smooth="yes"/>
      <point x="60" y="270"/>
      <point x="51" y="261"/>
      <point x="51" y="244" type="curve" smooth="yes"/>
      <point x="51" y="218" type="line" smooth="yes"/>
      <point x="51" y="202"/>
      <point x="60" y="193"/>
      <point x="76" y="193" type="curve" smooth="yes"/>
      <point x="143" y="193" type="line"/>
      <point x="143" y="25" type="line" smooth="yes"/>
      <point x="143" y="9"/>
      <point x="152" y="0"/>
      <point x="168" y="0" type="curve" smooth="yes"/>
      <point x="203" y="0" type="line" smooth="yes"/>
      <point x="219" y="0"/>
      <point x="228" y="9"/>
      <point x="228" y="25" type="curve" smooth="yes"/>
      <point x="228" y="193" type="line"/>
      <point x="348" y="193" type="line"/>
      <point x="348" y="25" type="line" smooth="yes"/>
      <point x="348" y="9"/>
      <point x="356" y="0"/>
      <point x="373" y="0" type="curve" smooth="yes"/>
      <point x="408" y="0" type="line" smooth="yes"/>
      <point x="424" y="0"/>
      <point x="433" y="9"/>
      <point x="433" y="25" type="curve" smooth="yes"/>
      <point x="433" y="193" type="line"/>
      <point x="499" y="193" type="line" smooth="yes"/>
      <point x="515" y="193"/>
      <point x="524" y="202"/>
      <point x="524" y="218" type="curve" smooth="yes"/>
      <point x="524" y="245" type="line" smooth="yes"/>
      <point x="524" y="261"/>
      <point x="515" y="270"/>
      <point x="499" y="270" type="curve" smooth="yes"/>
    </contour>
    <contour>
      <point x="228" y="424" type="line"/>
      <point x="348" y="424" type="line"/>
      <point x="348" y="270" type="line"/>
      <point x="228" y="270" type="line"/>
    </contour>
  </outline>
</glyph>
<glyph name="dollar" format="1">
  <advance width="575"/>
  <unicode hex="0024"/>
  <outline>
    <contour>
      <point x="518" y="270"/>
      <point x="437" y="326"/>
      <point x="288" y="343" type="curve" smooth="yes"/>
      <point x="200" y="353"/>
      <point x="145" y="376"/>
      <point x="145" y="439" type="curve" smooth="yes"/>
      <point x="145" y="502"/>
      <point x="198" y="534"/>
      <point x="297" y="534" type="curve" smooth="yes"/>
      <point x="321" y="534"/>
      <point x="385" y="532"/>
      <point x="436" y="523" type="curve" smooth="yes"/>
      <point x="452" y="520"/>
      <point x="462" y="526"/>
      <point x="466" y="541" type="curve" smooth="yes"/>
      <point x="473" y="567" type="line" smooth="yes"/>
      <point x="477" y="583"/>
      <point x="470" y="594"/>
      <point x="454" y="598" type="curve"/>
      <point x="412" y="605"/>
      <point x="365" y="608"/>
      <point x="330" y="609" type="curve"/>
      <point x="330" y="775" type="line" smooth="yes"/>
      <point x="330" y="792"/>
      <point x="321" y="800"/>
      <point x="305" y="800" type="curve" smooth="yes"/>
      <point x="270" y="800" type="line" smooth="yes"/>
      <point x="254" y="800"/>
      <point x="245" y="792"/>
      <point x="245" y="775" type="curve" smooth="yes"/>
      <point x="245" y="607" type="line"/>
      <point x="124" y="595"/>
      <point x="60" y="537"/>
      <point x="60" y="438" type="curve" smooth="yes"/>
      <point x="60" y="323"/>
      <point x="141" y="282"/>
      <point x="288" y="266" type="curve" smooth="yes"/>
      <point x="381" y="256"/>
      <point x="432" y="224"/>
      <point x="432" y="172" type="curve" smooth="yes"/>
      <point x="432" y="104"/>
      <point x="371" y="67"/>
      <point x="259" y="67" type="curve" smooth="yes"/>
      <point x="230" y="67"/>
      <point x="159" y="68"/>
      <point x="98" y="79" type="curve"/>
      <point x="82" y="81"/>
      <point x="72" y="75"/>
      <point x="68" y="59" type="curve" smooth="yes"/>
      <point x="62" y="33" type="line"/>
      <point x="59" y="17"/>
      <point x="66" y="6"/>
      <point x="82" y="3" type="curve" smooth="yes"/>
      <point x="140" y="-7"/>
      <point x="206" y="-9"/>
      <point x="245" y="-10" type="curve"/>
      <point x="245" y="-175" type="line" smooth="yes"/>
      <point x="245" y="-192"/>
      <point x="254" y="-200"/>
      <point x="270" y="-200" type="curve" smooth="yes"/>
      <point x="305" y="-200" type="line" smooth="yes"/>
      <point x="322" y="-200"/>
      <point x="330" y="-191"/>
      <point x="330" y="-175" type="curve" smooth="yes"/>
      <point x="330" y="-6" type="line"/>
      <point x="452" y="10"/>
      <point x="518" y="69"/>
      <point x="518" y="166" type="curve" smooth="yes"/>
    </contour>
  </outline>
</glyph>
<glyph name="percent" format="1">
  <advance width="575"/>
  <unicode hex="0025"/>
  <outline>
    <contour>
      <point x="76" y="66" type="line" smooth="yes"/>
      <point x="88" y="55"/>
      <point x="100" y="55"/>
      <point x="111" y="66" type="curve" smooth="yes"/>
      <point x="524" y="479" type="line" smooth="yes"/>
      <point x="535" y="490"/>
      <point x="535" y="503"/>
      <point x="523" y="514" type="curve" smooth="yes"/>
      <point x="499" y="535" type="line" smooth="yes"/>
      <point x="487" y="546"/>
      <point x="475" y="545"/>
      <point x="464" y="534" type="curve" smooth="yes"/>
      <point x="52" y="122" type="line" smooth="yes"/>
      <point x="40" y="110"/>
      <point x="41" y="98"/>
      <point x="53" y="87" type="curve" smooth="yes"/>
    </contour>
    <contour>
      <point x="88" y="600" type="line" smooth="yes"/>
      <point x="71" y="600"/>
      <point x="63" y="592"/>
      <point x="63" y="575" type="curve" smooth="yes"/>
      <point x="63" y="485" type="line" smooth="yes"/>
      <point x="63" y="469"/>
      <point x="72" y="460"/>
      <point x="88" y="460" type="curve" smooth="yes"/>
      <point x="188" y="460" type="line" smooth="yes"/>
      <point x="204" y="460"/>
      <point x="213" y="469"/>
      <point x="213" y="485" type="curve" smooth="yes"/>
      <point x="213" y="575" type="line" smooth="yes"/>
      <point x="213" y="592"/>
      <point x="204" y="600"/>
      <point x="188" y="600" type="curve" smooth="yes"/>
    </contour>
    <contour>
      <point x="388" y="140" type="line" smooth="yes"/>
      <point x="371" y="140"/>
      <point x="363" y="132"/>
      <point x="363" y="115" type="curve" smooth="yes"/>
      <point x="363" y="25" type="line" smooth="yes"/>
      <point x="363" y="9"/>
      <point x="372" y="0"/>
      <point x="388" y="0" type="curve" smooth="yes"/>
      <point x="488" y="0" type="line" smooth="yes"/>
      <point x="504" y="0"/>
      <point x="513" y="9"/>
      <point x="513" y="25" type="curve" smooth="yes"/>
      <point x="513" y="115" type="line" smooth="yes"/>
      <point x="513" y="132"/>
      <point x="504" y="140"/>
      <point x="488" y="140" type="curve" smooth="yes"/>
    </contour>
  </outline>
</glyph>
<glyph name="ampersand" format="2">
	<advance width="575"/>
	<unicode hex="0026"/>
	<outline>
		<contour>
			<point x="471" y="0" type="curve" smooth="yes"/>
			<point x="503" y="0" type="line" smooth="yes"/>
			<point x="520" y="0"/>
			<point x="529" y="10"/>
			<point x="525" y="27" type="curve" smooth="yes"/>
			<point x="513" y="69"/>
			<point x="492" y="112"/>
			<point x="462" y="159" type="curve"/>
			<point x="477" y="190"/>
			<point x="490" y="226"/>
			<point x="500" y="267" type="curve" smooth="yes"/>
			<point x="504" y="283"/>
			<point x="497" y="294"/>
			<point x="481" y="297" type="curve" smooth="yes"/>
			<point x="448" y="303" type="line" smooth="yes"/>
			<point x="432" y="306"/>
			<point x="422" y="299"/>
			<point x="418" y="284" type="curve" smooth="yes"/>
			<point x="414" y="267"/>
			<point x="410" y="252"/>
			<point x="405" y="237" type="curve"/>
			<point x="357" y="298"/>
			<point x="295" y="364"/>
			<point x="231" y="428" type="curve" smooth="yes"/>
			<point x="186" y="473"/>
			<point x="168" y="511"/>
			<point x="168" y="542" type="curve" smooth="yes"/>
			<point x="168" y="585"/>
			<point x="202" y="618"/>
			<point x="247" y="618" type="curve" smooth="yes"/>
			<point x="297" y="618"/>
			<point x="335" y="581"/>
			<point x="335" y="532" type="curve" smooth="yes"/>
			<point x="335" y="510"/>
			<point x="326" y="488"/>
			<point x="309" y="471" type="curve" smooth="yes"/>
			<point x="299" y="461"/>
			<point x="299" y="449"/>
			<point x="311" y="437" type="curve" smooth="yes"/>
			<point x="331" y="417" type="line" smooth="yes"/>
			<point x="343" y="405"/>
			<point x="355" y="405"/>
			<point x="365" y="415" type="curve" smooth="yes"/>
			<point x="399" y="449"/>
			<point x="416" y="492"/>
			<point x="416" y="534" type="curve" smooth="yes"/>
			<point x="416" y="627"/>
			<point x="344" y="697"/>
			<point x="248" y="697" type="curve" smooth="yes"/>
			<point x="154" y="697"/>
			<point x="83" y="630"/>
			<point x="83" y="541" type="curve" smooth="yes"/>
			<point x="83" y="492"/>
			<point x="109" y="437"/>
			<point x="165" y="380" type="curve"/>
			<point x="85" y="323"/>
			<point x="52" y="249"/>
			<point x="52" y="180" type="curve" smooth="yes"/>
			<point x="52" y="68"/>
			<point x="121" y="-7"/>
			<point x="233" y="-7" type="curve" smooth="yes"/>
			<point x="296" y="-7"/>
			<point x="362" y="21"/>
			<point x="415" y="85" type="curve"/>
			<point x="428" y="62"/>
			<point x="437" y="41"/>
			<point x="443" y="21" type="curve" smooth="yes"/>
			<point x="448" y="7"/>
			<point x="456" y="0"/>
		</contour>
		<contour>
			<point x="233" y="69" type="curve" smooth="yes"/>
			<point x="172" y="69"/>
			<point x="136" y="108"/>
			<point x="136" y="180" type="curve" smooth="yes"/>
			<point x="136" y="229"/>
			<point x="162" y="284"/>
			<point x="220" y="324" type="curve"/>
			<point x="282" y="260"/>
			<point x="330" y="205"/>
			<point x="367" y="157" type="curve"/>
			<point x="326" y="94"/>
			<point x="276" y="69"/>
		</contour>
	</outline>
</glyph>
<glyph name="quotesingle" format="1">
  <advance width="575"/>
  <unicode hex="0027"/>
  <outline>
    <contour>
      <point x="260" y="750" type="line" smooth="yes"/>
      <point x="244" y="750"/>
      <point x="235" y="741"/>
      <point x="236" y="725" type="curve" smooth="yes"/>
      <point x="248" y="437" type="line" smooth="yes"/>
      <point x="249" y="421"/>
      <point x="258" y="413"/>
      <point x="274" y="413" type="curve" smooth="yes"/>
      <point x="302" y="413" type="line" smooth="yes"/>
      <point x="318" y="413"/>
      <point x="326" y="421"/>
      <point x="327" y="437" type="curve" smooth="yes"/>
      <point x="340" y="725" type="line" smooth="yes"/>
      <point x="340" y="741"/>
      <point x="332" y="750"/>
      <point x="315" y="750" type="curve" smooth="yes"/>
    </contour>
  </outline>
</glyph>
<glyph name="parenleft" format="1">
  <advance width="575"/>
  <unicode hex="0028"/>
  <outline>
    <contour>
      <point x="288" y="-75"/>
      <point x="171" y="74"/>
      <point x="171" y="275" type="curve" smooth="yes"/>
      <point x="171" y="476"/>
      <point x="288" y="625"/>
      <point x="452" y="658" type="curve" smooth="yes"/>
      <point x="468" y="661"/>
      <point x="475" y="672"/>
      <point x="471" y="688" type="curve" smooth="yes"/>
      <point x="465" y="716" type="line" smooth="yes"/>
      <point x="462" y="732"/>
      <point x="451" y="738"/>
      <point x="435" y="735" type="curve" smooth="yes"/>
      <point x="229" y="693"/>
      <point x="85" y="513"/>
      <point x="85" y="275" type="curve" smooth="yes"/>
      <point x="85" y="37"/>
      <point x="229" y="-143"/>
      <point x="435" y="-185" type="curve" smooth="yes"/>
      <point x="451" y="-188"/>
      <point x="462" y="-182"/>
      <point x="465" y="-166" type="curve" smooth="yes"/>
      <point x="471" y="-138" type="line" smooth="yes"/>
      <point x="475" y="-122"/>
      <point x="468" y="-111"/>
      <point x="452" y="-108" type="curve" smooth="yes"/>
    </contour>
  </outline>
</glyph>
<glyph name="parenright" format="1">
  <advance width="575"/>
  <unicode hex="0029"/>
  <outline>
    <contour>
      <point x="107" y="-111"/>
      <point x="100" y="-122"/>
      <point x="104" y="-138" type="curve" smooth="yes"/>
      <point x="110" y="-166" type="line" smooth="yes"/>
      <point x="113" y="-182"/>
      <point x="124" y="-188"/>
      <point x="140" y="-185" type="curve" smooth="yes"/>
      <point x="346" y="-143"/>
      <point x="490" y="37"/>
      <point x="490" y="275" type="curve" smooth="yes"/>
      <point x="490" y="513"/>
      <point x="346" y="693"/>
      <point x="140" y="735" type="curve" smooth="yes"/>
      <point x="124" y="738"/>
      <point x="113" y="732"/>
      <point x="110" y="716" type="curve" smooth="yes"/>
      <point x="104" y="688" type="line" smooth="yes"/>
      <point x="100" y="672"/>
      <point x="107" y="661"/>
      <point x="123" y="658" type="curve" smooth="yes"/>
      <point x="287" y="625"/>
      <point x="404" y="476"/>
      <point x="404" y="275" type="curve" smooth="yes"/>
      <point x="404" y="74"/>
      <point x="287" y="-75"/>
      <point x="123" y="-108" type="curve" smooth="yes"/>
    </contour>
  </outline>
</glyph>
<glyph name="asterisk" format="1">
  <advance width="575"/>
  <unicode hex="002A"/>
  <outline>
    <contour>
      <point x="519" y="345" type="line" smooth="yes"/>
      <point x="514" y="360"/>
      <point x="503" y="366"/>
      <point x="487" y="361" type="curve" smooth="yes"/>
      <point x="330" y="309" type="line"/>
      <point x="330" y="475" type="line" smooth="yes"/>
      <point x="330" y="492"/>
      <point x="321" y="500"/>
      <point x="305" y="500" type="curve" smooth="yes"/>
      <point x="270" y="500" type="line" smooth="yes"/>
      <point x="254" y="500"/>
      <point x="245" y="492"/>
      <point x="245" y="475" type="curve" smooth="yes"/>
      <point x="245" y="309" type="line"/>
      <point x="88" y="361" type="line" smooth="yes"/>
      <point x="72" y="366"/>
      <point x="61" y="360"/>
      <point x="56" y="345" type="curve" smooth="yes"/>
      <point x="45" y="311" type="line" smooth="yes"/>
      <point x="40" y="296"/>
      <point x="46" y="285"/>
      <point x="61" y="280" type="curve" smooth="yes"/>
      <point x="203" y="234" type="line"/>
      <point x="101" y="94" type="line" smooth="yes"/>
      <point x="92" y="81"/>
      <point x="93" y="68"/>
      <point x="106" y="59" type="curve" smooth="yes"/>
      <point x="135" y="38" type="line" smooth="yes"/>
      <point x="148" y="29"/>
      <point x="160" y="31"/>
      <point x="171" y="44" type="curve"/>
      <point x="287" y="206" type="line"/>
      <point x="404" y="44" type="line" smooth="yes"/>
      <point x="414" y="31"/>
      <point x="426" y="29"/>
      <point x="439" y="39" type="curve"/>
      <point x="468" y="59" type="line"/>
      <point x="480" y="68"/>
      <point x="482" y="81"/>
      <point x="473" y="94" type="curve" smooth="yes"/>
      <point x="373" y="234" type="line"/>
      <point x="514" y="280" type="line" smooth="yes"/>
      <point x="529" y="285"/>
      <point x="535" y="296"/>
      <point x="530" y="311" type="curve" smooth="yes"/>
    </contour>
  </outline>
</glyph>
<glyph name="plus" format="2">
	<advance width="575"/>
	<unicode hex="002B"/>
	<outline>
		<contour>
			<point x="524" y="237" type="curve" smooth="yes"/>
			<point x="524" y="264" type="line" smooth="yes"/>
			<point x="524" y="280"/>
			<point x="516" y="289"/>
			<point x="499" y="289" type="curve" smooth="yes"/>
			<point x="330" y="289" type="line"/>
			<point x="330" y="475" type="line" smooth="yes"/>
			<point x="330" y="492"/>
			<point x="322" y="500"/>
			<point x="305" y="500" type="curve" smooth="yes"/>
			<point x="270" y="500" type="line" smooth="yes"/>
			<point x="254" y="500"/>
			<point x="245" y="491"/>
			<point x="245" y="475" type="curve" smooth="yes"/>
			<point x="245" y="289" type="line"/>
			<point x="76" y="289" type="line" smooth="yes"/>
			<point x="60" y="289"/>
			<point x="51" y="280"/>
			<point x="51" y="263" type="curve" smooth="yes"/>
			<point x="51" y="237" type="line" smooth="yes"/>
			<point x="51" y="221"/>
			<point x="60" y="212"/>
			<point x="76" y="212" type="curve" smooth="yes"/>
			<point x="245" y="212" type="line"/>
			<point x="245" y="25" type="line" smooth="yes"/>
			<point x="245" y="9"/>
			<point x="254" y="0"/>
			<point x="270" y="0" type="curve" smooth="yes"/>
			<point x="305" y="0" type="line" smooth="yes"/>
			<point x="322" y="0"/>
			<point x="330" y="9"/>
			<point x="330" y="25" type="curve" smooth="yes"/>
			<point x="330" y="212" type="line"/>
			<point x="499" y="212" type="line" smooth="yes"/>
			<point x="516" y="212"/>
			<point x="524" y="221"/>
		</contour>
		<contour>
			<point x="524" y="237" type="curve" smooth="yes"/>
			<point x="524" y="264" type="line" smooth="yes"/>
			<point x="524" y="280"/>
			<point x="516" y="289"/>
			<point x="499" y="289" type="curve" smooth="yes"/>
			<point x="330" y="289" type="line"/>
			<point x="330" y="475" type="line" smooth="yes"/>
			<point x="330" y="492"/>
			<point x="322" y="500"/>
			<point x="305" y="500" type="curve" smooth="yes"/>
			<point x="270" y="500" type="line" smooth="yes"/>
			<point x="254" y="500"/>
			<point x="245" y="491"/>
			<point x="245" y="475" type="curve" smooth="yes"/>
			<point x="245" y="289" type="line"/>
			<point x="76" y="289" type="line" smooth="yes"/>
			<point x="60" y="289"/>
			<point x="51" y="280"/>
			<point x="51" y="263" type="curve" smooth="yes"/>
			<point x="51" y="237" type="line" smooth="yes"/>
			<point x="51" y="221"/>
			<point x="60" y="212"/>
			<point x="76" y="212" type="curve" smooth="yes"/>
			<point x="245" y="212" type="line"/>
			<point x="245" y="25" type="line" smooth="yes"/>
			<point x="245" y="9"/>
			<point x="254" y="0"/>
			<point x="270" y="0" type="curve" smooth="yes"/>
			<point x="305" y="0" type="line" smooth="yes"/>
			<point x="322" y="0"/>
			<point x="330" y="9"/>
			<point x="330" y="25" type="curve" smooth="yes"/>
			<point x="330" y="212" type="line"/>
			<point x="499" y="212" type="line" smooth="yes"/>
			<point x="516" y="212"/>
			<point x="524" y="221"/>
		</contour>
	</outline>
</glyph>
<glyph name="hyphen" format="2">
	<advance width="575"/>
	<unicode hex="002D"/>
	<outline>
		<contour>
			<point x="52" y="263" type="curve" smooth="yes"/>
			<point x="52" y="237" type="line" smooth="yes"/>
			<point x="52" y="221"/>
			<point x="61" y="212"/>
			<point x="77" y="212" type="curve" smooth="yes"/>
			<point x="500" y="212" type="line" smooth="yes"/>
			<point x="516" y="212"/>
			<point x="525" y="221"/>
			<point x="525" y="237" type="curve" smooth="yes"/>
			<point x="525" y="264" type="line" smooth="yes"/>
			<point x="525" y="280"/>
			<point x="516" y="289"/>
			<point x="500" y="289" type="curve" smooth="yes"/>
			<point x="77" y="289" type="line" smooth="yes"/>
			<point x="61" y="289"/>
			<point x="52" y="280"/>
		</contour>
	</outline>
</glyph>
<glyph name="period" format="1">
  <advance width="575"/>
  <unicode hex="002E"/>
  <outline>
    <contour>
      <point x="237" y="140" type="line" smooth="yes"/>
      <point x="221" y="140"/>
      <point x="212" y="132"/>
      <point x="212" y="115" type="curve" smooth="yes"/>
      <point x="212" y="25" type="line" smooth="yes"/>
      <point x="212" y="9"/>
      <point x="221" y="0"/>
      <point x="237" y="0" type="curve" smooth="yes"/>
      <point x="337" y="0" type="line" smooth="yes"/>
      <point x="354" y="0"/>
      <point x="362" y="9"/>
      <point x="362" y="25" type="curve" smooth="yes"/>
      <point x="362" y="115" type="line" smooth="yes"/>
      <point x="362" y="132"/>
      <point x="353" y="140"/>
      <point x="337" y="140" type="curve" smooth="yes"/>
    </contour>
  </outline>
</glyph>
<glyph name="slash" format="2">
	<advance width="575"/>
	<unicode hex="002F"/>
	<outline>
		<contour>
			<point x="455" y="682" type="curve" smooth="yes"/>
			<point x="42" y="-144" type="line"/>
			<point x="35" y="-158"/>
			<point x="39" y="-170"/>
			<point x="53" y="-177" type="curve" smooth="yes"/>
			<point x="85" y="-193" type="line" smooth="yes"/>
			<point x="99" y="-200"/>
			<point x="111" y="-196"/>
			<point x="118" y="-182" type="curve" smooth="yes"/>
			<point x="531" y="644" type="line" smooth="yes"/>
			<point x="538" y="658"/>
			<point x="534" y="670"/>
			<point x="520" y="677" type="curve" smooth="yes"/>
			<point x="488" y="693" type="line" smooth="yes"/>
			<point x="474" y="700"/>
			<point x="462" y="696"/>
		</contour>
	</outline>
</glyph>
<glyph name="zero" format="2">
	<advance width="575"/>
	<unicode hex="0030"/>
	<outline>
		<contour>
			<point x="288" y="710" type="curve" smooth="yes"/>
			<point x="144" y="710"/>
			<point x="55" y="572"/>
			<point x="55" y="350" type="curve" smooth="yes"/>
			<point x="55" y="128"/>
			<point x="144" y="-10"/>
			<point x="288" y="-10" type="curve" smooth="yes"/>
			<point x="431" y="-10"/>
			<point x="520" y="128"/>
			<point x="520" y="350" type="curve" smooth="yes"/>
			<point x="520" y="572"/>
			<point x="431" y="710"/>
		</contour>
		<contour>
			<point x="288" y="634" type="curve" smooth="yes"/>
			<point x="342" y="634"/>
			<point x="384" y="596"/>
			<point x="409" y="528" type="curve"/>
			<point x="145" y="264" type="line"/>
			<point x="142" y="291"/>
			<point x="140" y="319"/>
			<point x="140" y="350" type="curve" smooth="yes"/>
			<point x="140" y="525"/>
			<point x="197" y="634"/>
		</contour>
		<contour>
			<point x="288" y="67" type="curve" smooth="yes"/>
			<point x="234" y="67"/>
			<point x="192" y="106"/>
			<point x="167" y="174" type="curve"/>
			<point x="430" y="437" type="line"/>
			<point x="433" y="410"/>
			<point x="435" y="381"/>
			<point x="435" y="350" type="curve" smooth="yes"/>
			<point x="435" y="176"/>
			<point x="379" y="67"/>
		</contour>
	</outline>
</glyph>
<glyph name="one" format="2">
	<advance width="575"/>
	<unicode hex="0031"/>
	<outline>
		<contour>
			<point x="465" y="77" type="curve" smooth="yes"/>
			<point x="362" y="77" type="line"/>
			<point x="362" y="675" type="line" smooth="yes"/>
			<point x="362" y="691"/>
			<point x="353" y="700"/>
			<point x="337" y="700" type="curve" smooth="yes"/>
			<point x="318" y="700" type="line" smooth="yes"/>
			<point x="304" y="700"/>
			<point x="295" y="694"/>
			<point x="289" y="680" type="curve" smooth="yes"/>
			<point x="262" y="618"/>
			<point x="208" y="597"/>
			<point x="110" y="597" type="curve" smooth="yes"/>
			<point x="94" y="597"/>
			<point x="85" y="588"/>
			<point x="85" y="572" type="curve" smooth="yes"/>
			<point x="85" y="545" type="line" smooth="yes"/>
			<point x="85" y="529"/>
			<point x="94" y="520"/>
			<point x="110" y="520" type="curve" smooth="yes"/>
			<point x="277" y="520" type="line"/>
			<point x="277" y="77" type="line"/>
			<point x="110" y="77" type="line" smooth="yes"/>
			<point x="94" y="77"/>
			<point x="85" y="68"/>
			<point x="85" y="52" type="curve" smooth="yes"/>
			<point x="85" y="25" type="line" smooth="yes"/>
			<point x="85" y="9"/>
			<point x="94" y="0"/>
			<point x="110" y="0" type="curve" smooth="yes"/>
			<point x="465" y="0" type="line" smooth="yes"/>
			<point x="482" y="0"/>
			<point x="490" y="9"/>
			<point x="490" y="25" type="curve" smooth="yes"/>
			<point x="490" y="52" type="line" smooth="yes"/>
			<point x="490" y="68"/>
			<point x="482" y="77"/>
		</contour>
	</outline>
</glyph>
<glyph name="two" format="2">
	<advance width="575"/>
	<unicode hex="0032"/>
	<outline>
		<contour>
			<point x="489" y="77" type="curve" smooth="yes"/>
			<point x="170" y="77" type="line"/>
			<point x="177" y="144"/>
			<point x="242" y="194"/>
			<point x="312" y="248" type="curve" smooth="yes"/>
			<point x="400" y="317"/>
			<point x="496" y="391"/>
			<point x="496" y="514" type="curve" smooth="yes"/>
			<point x="496" y="653"/>
			<point x="387" y="710"/>
			<point x="265" y="710" type="curve" smooth="yes"/>
			<point x="214" y="710"/>
			<point x="160" y="699"/>
			<point x="112" y="681" type="curve" smooth="yes"/>
			<point x="97" y="675"/>
			<point x="92" y="664"/>
			<point x="98" y="649" type="curve" smooth="yes"/>
			<point x="107" y="623" type="line" smooth="yes"/>
			<point x="113" y="608"/>
			<point x="124" y="603"/>
			<point x="140" y="608" type="curve" smooth="yes"/>
			<point x="185" y="624"/>
			<point x="224" y="632"/>
			<point x="265" y="632" type="curve" smooth="yes"/>
			<point x="354" y="632"/>
			<point x="410" y="598"/>
			<point x="410" y="514" type="curve" smooth="yes"/>
			<point x="410" y="429"/>
			<point x="343" y="375"/>
			<point x="259" y="309" type="curve" smooth="yes"/>
			<point x="189" y="256"/>
			<point x="84" y="183"/>
			<point x="84" y="48" type="curve" smooth="yes"/>
			<point x="84" y="24" type="line" smooth="yes"/>
			<point x="84" y="8"/>
			<point x="93" y="-1"/>
			<point x="109" y="-1" type="curve" smooth="yes"/>
			<point x="489" y="-1" type="line" smooth="yes"/>
			<point x="505" y="-1"/>
			<point x="514" y="8"/>
			<point x="514" y="24" type="curve" smooth="yes"/>
			<point x="514" y="52" type="line" smooth="yes"/>
			<point x="514" y="68"/>
			<point x="505" y="77"/>
		</contour>
	</outline>
</glyph>
<glyph name="three" format="2">
	<advance width="575"/>
	<unicode hex="0033"/>
	<outline>
		<contour>
			<point x="115" y="665" type="curve" smooth="yes"/>
			<point x="123" y="637" type="line" smooth="yes"/>
			<point x="127" y="622"/>
			<point x="138" y="617"/>
			<point x="154" y="621" type="curve" smooth="yes"/>
			<point x="184" y="628"/>
			<point x="215" y="632"/>
			<point x="248" y="632" type="curve" smooth="yes"/>
			<point x="339" y="632"/>
			<point x="394" y="605"/>
			<point x="394" y="526" type="curve" smooth="yes"/>
			<point x="394" y="443"/>
			<point x="338" y="401"/>
			<point x="250" y="401" type="curve" smooth="yes"/>
			<point x="199" y="401" type="line" smooth="yes"/>
			<point x="183" y="401"/>
			<point x="174" y="392"/>
			<point x="174" y="376" type="curve" smooth="yes"/>
			<point x="174" y="349" type="line" smooth="yes"/>
			<point x="174" y="333"/>
			<point x="183" y="324"/>
			<point x="199" y="324" type="curve" smooth="yes"/>
			<point x="250" y="324" type="line" smooth="yes"/>
			<point x="340" y="324"/>
			<point x="404" y="269"/>
			<point x="404" y="189" type="curve" smooth="yes"/>
			<point x="404" y="102"/>
			<point x="341" y="68"/>
			<point x="243" y="68" type="curve" smooth="yes"/>
			<point x="207" y="68"/>
			<point x="174" y="72"/>
			<point x="144" y="79" type="curve" smooth="yes"/>
			<point x="128" y="83"/>
			<point x="117" y="78"/>
			<point x="113" y="63" type="curve" smooth="yes"/>
			<point x="105" y="35" type="line" smooth="yes"/>
			<point x="101" y="20"/>
			<point x="106" y="8"/>
			<point x="122" y="4" type="curve" smooth="yes"/>
			<point x="159" y="-5"/>
			<point x="201" y="-10"/>
			<point x="243" y="-10" type="curve" smooth="yes"/>
			<point x="366" y="-10"/>
			<point x="490" y="42"/>
			<point x="490" y="177" type="curve" smooth="yes"/>
			<point x="490" y="272"/>
			<point x="429" y="335"/>
			<point x="366" y="364" type="curve"/>
			<point x="438" y="403"/>
			<point x="480" y="452"/>
			<point x="480" y="531" type="curve" smooth="yes"/>
			<point x="480" y="663"/>
			<point x="365" y="710"/>
			<point x="248" y="710" type="curve" smooth="yes"/>
			<point x="208" y="710"/>
			<point x="168" y="705"/>
			<point x="132" y="696" type="curve" smooth="yes"/>
			<point x="116" y="692"/>
			<point x="111" y="680"/>
		</contour>
	</outline>
</glyph>
<glyph name="four" format="1">
  <advance width="575"/>
  <unicode hex="0034"/>
  <outline>
    <contour>
      <point x="431" y="221" type="line"/>
      <point x="431" y="392" type="line" smooth="yes"/>
      <point x="431" y="408"/>
      <point x="422" y="417"/>
      <point x="406" y="417" type="curve" smooth="yes"/>
      <point x="371" y="417" type="line" smooth="yes"/>
      <point x="355" y="417"/>
      <point x="346" y="408"/>
      <point x="346" y="392" type="curve" smooth="yes"/>
      <point x="346" y="221" type="line"/>
      <point x="165" y="221" type="line"/>
      <point x="390" y="670" type="line" smooth="yes"/>
      <point x="399" y="688"/>
      <point x="391" y="700"/>
      <point x="371" y="700" type="curve" smooth="yes"/>
      <point x="335" y="700" type="line" smooth="yes"/>
      <point x="315" y="700"/>
      <point x="306" y="694"/>
      <point x="298" y="677" type="curve" smooth="yes"/>
      <point x="80" y="240" type="line" smooth="yes"/>
      <point x="75" y="230"/>
      <point x="73" y="221"/>
      <point x="73" y="209" type="curve" smooth="yes"/>
      <point x="73" y="169" type="line" smooth="yes"/>
      <point x="73" y="153"/>
      <point x="81" y="145"/>
      <point x="97" y="145" type="curve" smooth="yes"/>
      <point x="346" y="145" type="line"/>
      <point x="346" y="25" type="line" smooth="yes"/>
      <point x="346" y="9"/>
      <point x="354" y="0"/>
      <point x="370" y="0" type="curve" smooth="yes"/>
      <point x="405" y="0" type="line" smooth="yes"/>
      <point x="422" y="0"/>
      <point x="430" y="9"/>
      <point x="430" y="25" type="curve" smooth="yes"/>
      <point x="430" y="145" type="line"/>
      <point x="485" y="145" type="line" smooth="yes"/>
      <point x="502" y="145"/>
      <point x="510" y="154"/>
      <point x="510" y="170" type="curve" smooth="yes"/>
      <point x="510" y="196" type="line" smooth="yes"/>
      <point x="510" y="212"/>
      <point x="502" y="221"/>
      <point x="485" y="221" type="curve" smooth="yes"/>
    </contour>
  </outline>
</glyph>
<glyph name="five" format="1">
  <advance width="575"/>
  <unicode hex="0035"/>
  <outline>
    <contour>
      <point x="210" y="431" type="line"/>
      <point x="225" y="624" type="line"/>
      <point x="431" y="624" type="line" smooth="yes"/>
      <point x="448" y="624"/>
      <point x="456" y="633"/>
      <point x="456" y="649" type="curve" smooth="yes"/>
      <point x="456" y="675" type="line" smooth="yes"/>
      <point x="456" y="692"/>
      <point x="448" y="700"/>
      <point x="431" y="700" type="curve" smooth="yes"/>
      <point x="176" y="700" type="line" smooth="yes"/>
      <point x="160" y="700"/>
      <point x="150" y="692"/>
      <point x="149" y="677" type="curve" smooth="yes"/>
      <point x="127" y="389" type="line" smooth="yes"/>
      <point x="126" y="373"/>
      <point x="133" y="363"/>
      <point x="149" y="361" type="curve" smooth="yes"/>
      <point x="199" y="354" type="line"/>
      <point x="263" y="354" type="line" smooth="yes"/>
      <point x="358" y="354"/>
      <point x="407" y="306"/>
      <point x="407" y="211" type="curve" smooth="yes"/>
      <point x="407" y="116"/>
      <point x="353" y="68"/>
      <point x="246" y="68" type="curve" smooth="yes"/>
      <point x="210" y="68"/>
      <point x="177" y="72"/>
      <point x="147" y="79" type="curve" smooth="yes"/>
      <point x="131" y="83"/>
      <point x="120" y="78"/>
      <point x="116" y="63" type="curve" smooth="yes"/>
      <point x="108" y="35" type="line" smooth="yes"/>
      <point x="104" y="20"/>
      <point x="109" y="8"/>
      <point x="125" y="4" type="curve" smooth="yes"/>
      <point x="162" y="-5"/>
      <point x="204" y="-10"/>
      <point x="246" y="-10" type="curve" smooth="yes"/>
      <point x="410" y="-10"/>
      <point x="493" y="65"/>
      <point x="493" y="211" type="curve" smooth="yes"/>
      <point x="493" y="357"/>
      <point x="415" y="431"/>
      <point x="263" y="431" type="curve" smooth="yes"/>
    </contour>
  </outline>
</glyph>
<glyph name="six" format="2">
	<advance width="575"/>
	<unicode hex="0036"/>
	<outline>
		<contour>
			<point x="429" y="644" type="curve"/>
			<point x="435" y="672" type="line" smooth="yes"/>
			<point x="438" y="688"/>
			<point x="431" y="699"/>
			<point x="415" y="702" type="curve" smooth="yes"/>
			<point x="384" y="707"/>
			<point x="354" y="710"/>
			<point x="330" y="710" type="curve" smooth="yes"/>
			<point x="161" y="710"/>
			<point x="53" y="571"/>
			<point x="53" y="326" type="curve" smooth="yes"/>
			<point x="53" y="95"/>
			<point x="141" y="-10"/>
			<point x="283" y="-10" type="curve" smooth="yes"/>
			<point x="411" y="-10"/>
			<point x="496" y="78"/>
			<point x="496" y="220" type="curve" smooth="yes"/>
			<point x="496" y="349"/>
			<point x="402" y="429"/>
			<point x="285" y="429" type="curve" smooth="yes"/>
			<point x="243" y="429"/>
			<point x="198" y="419"/>
			<point x="144" y="402" type="curve"/>
			<point x="162" y="586"/>
			<point x="252" y="632"/>
			<point x="332" y="632" type="curve" smooth="yes"/>
			<point x="349" y="632"/>
			<point x="372" y="630"/>
			<point x="399" y="625" type="curve" smooth="yes"/>
			<point x="415" y="622"/>
			<point x="425" y="629"/>
		</contour>
		<contour>
			<point x="286" y="68" type="curve" smooth="yes"/>
			<point x="208" y="68"/>
			<point x="139" y="134"/>
			<point x="139" y="317" type="curve"/>
			<point x="201" y="349"/>
			<point x="253" y="351"/>
			<point x="281" y="351" type="curve" smooth="yes"/>
			<point x="359" y="351"/>
			<point x="410" y="301"/>
			<point x="410" y="220" type="curve" smooth="yes"/>
			<point x="410" y="118"/>
			<point x="354" y="68"/>
		</contour>
	</outline>
</glyph>
<glyph name="seven" format="2">
	<advance width="575"/>
	<unicode hex="0037"/>
	<outline>
		<contour>
			<point x="491" y="700" type="curve" smooth="yes"/>
			<point x="110" y="700" type="line" smooth="yes"/>
			<point x="94" y="700"/>
			<point x="85" y="692"/>
			<point x="85" y="675" type="curve" smooth="yes"/>
			<point x="85" y="518" type="line" smooth="yes"/>
			<point x="85" y="502"/>
			<point x="94" y="493"/>
			<point x="110" y="493" type="curve" smooth="yes"/>
			<point x="145" y="493" type="line" smooth="yes"/>
			<point x="162" y="493"/>
			<point x="170" y="501"/>
			<point x="170" y="518" type="curve" smooth="yes"/>
			<point x="170" y="624" type="line"/>
			<point x="430" y="624" type="line"/>
			<point x="430" y="587"/>
			<point x="419" y="552"/>
			<point x="389" y="492" type="curve" smooth="yes"/>
			<point x="299" y="312" type="line" smooth="yes"/>
			<point x="245" y="202"/>
			<point x="217" y="105"/>
			<point x="217" y="24" type="curve" smooth="yes"/>
			<point x="217" y="8"/>
			<point x="225" y="0"/>
			<point x="242" y="0" type="curve" smooth="yes"/>
			<point x="276" y="0" type="line" smooth="yes"/>
			<point x="293" y="0"/>
			<point x="302" y="8"/>
			<point x="302" y="24" type="curve"/>
			<point x="302" y="104"/>
			<point x="326" y="191"/>
			<point x="372" y="280" type="curve" smooth="yes"/>
			<point x="470" y="465" type="line" smooth="yes"/>
			<point x="503" y="528"/>
			<point x="515" y="572"/>
			<point x="515" y="626" type="curve" smooth="yes"/>
			<point x="515" y="676" type="line" smooth="yes"/>
			<point x="515" y="692"/>
			<point x="507" y="700"/>
		</contour>
	</outline>
</glyph>
<glyph name="eight" format="1">
  <advance width="575"/>
  <unicode hex="0038"/>
  <outline>
    <contour>
      <point x="452" y="412"/>
      <point x="496" y="476"/>
      <point x="496" y="548" type="curve" smooth="yes"/>
      <point x="496" y="645"/>
      <point x="406" y="710"/>
      <point x="288" y="710" type="curve" smooth="yes"/>
      <point x="170" y="710"/>
      <point x="80" y="644"/>
      <point x="80" y="541" type="curve" smooth="yes"/>
      <point x="80" y="444"/>
      <point x="141" y="394"/>
      <point x="212" y="357" type="curve"/>
      <point x="109" y="299"/>
      <point x="57" y="235"/>
      <point x="57" y="163" type="curve" smooth="yes"/>
      <point x="57" y="58"/>
      <point x="165" y="-10"/>
      <point x="288" y="-10" type="curve" smooth="yes"/>
      <point x="421" y="-10"/>
      <point x="519" y="51"/>
      <point x="519" y="169" type="curve" smooth="yes"/>
      <point x="519" y="265"/>
      <point x="449" y="317"/>
      <point x="372" y="359" type="curve"/>
    </contour>
    <contour>
      <point x="165" y="594"/>
      <point x="217" y="634"/>
      <point x="288" y="634" type="curve" smooth="yes"/>
      <point x="358" y="634"/>
      <point x="410" y="594"/>
      <point x="410" y="543" type="curve" smooth="yes"/>
      <point x="410" y="502"/>
      <point x="377" y="440"/>
      <point x="308" y="393" type="curve"/>
      <point x="222" y="433"/>
      <point x="165" y="482"/>
      <point x="165" y="540" type="curve"/>
    </contour>
    <contour>
      <point x="205" y="67"/>
      <point x="142" y="104"/>
      <point x="142" y="171" type="curve" smooth="yes"/>
      <point x="142" y="231"/>
      <point x="196" y="280"/>
      <point x="277" y="326" type="curve"/>
      <point x="359" y="290"/>
      <point x="434" y="244"/>
      <point x="434" y="171" type="curve" smooth="yes"/>
      <point x="434" y="100"/>
      <point x="365" y="67"/>
      <point x="288" y="67" type="curve" smooth="yes"/>
    </contour>
  </outline>
</glyph>
<glyph name="colon" format="1">
  <advance width="575"/>
  <unicode hex="003A"/>
  <outline>
    <contour>
      <point x="238" y="500" type="line" smooth="yes"/>
      <point x="221" y="500"/>
      <point x="213" y="492"/>
      <point x="213" y="475" type="curve" smooth="yes"/>
      <point x="213" y="385" type="line" smooth="yes"/>
      <point x="213" y="369"/>
      <point x="222" y="360"/>
      <point x="238" y="360" type="curve" smooth="yes"/>
      <point x="338" y="360" type="line" smooth="yes"/>
      <point x="354" y="360"/>
      <point x="363" y="369"/>
      <point x="363" y="385" type="curve" smooth="yes"/>
      <point x="363" y="475" type="line" smooth="yes"/>
      <point x="363" y="492"/>
      <point x="354" y="500"/>
      <point x="338" y="500" type="curve" smooth="yes"/>
    </contour>
    <contour>
      <point x="238" y="140" type="line" smooth="yes"/>
      <point x="221" y="140"/>
      <point x="213" y="132"/>
      <point x="213" y="115" type="curve" smooth="yes"/>
      <point x="213" y="25" type="line" smooth="yes"/>
      <point x="213" y="9"/>
      <point x="222" y="0"/>
      <point x="238" y="0" type="curve" smooth="yes"/>
      <point x="338" y="0" type="line" smooth="yes"/>
      <point x="354" y="0"/>
      <point x="363" y="9"/>
      <point x="363" y="25" type="curve" smooth="yes"/>
      <point x="363" y="115" type="line" smooth="yes"/>
      <point x="363" y="132"/>
      <point x="354" y="140"/>
      <point x="338" y="140" type="curve" smooth="yes"/>
    </contour>
  </outline>
</glyph>
<glyph name="semicolon" format="1">
  <advance width="575"/>
  <unicode hex="003B"/>
  <outline>
    <contour>
      <point x="238" y="500" type="line" smooth="yes"/>
      <point x="221" y="500"/>
      <point x="213" y="492"/>
      <point x="213" y="475" type="curve" smooth="yes"/>
      <point x="213" y="385" type="line" smooth="yes"/>
      <point x="213" y="369"/>
      <point x="222" y="360"/>
      <point x="238" y="360" type="curve" smooth="yes"/>
      <point x="338" y="360" type="line" smooth="yes"/>
      <point x="354" y="360"/>
      <point x="363" y="369"/>
      <point x="363" y="385" type="curve" smooth="yes"/>
      <point x="363" y="475" type="line" smooth="yes"/>
      <point x="363" y="492"/>
      <point x="354" y="500"/>
      <point x="338" y="500" type="curve" smooth="yes"/>
    </contour>
    <contour>
      <point x="238" y="140" type="line" smooth="yes"/>
      <point x="221" y="140"/>
      <point x="213" y="132"/>
      <point x="213" y="115" type="curve" smooth="yes"/>
      <point x="213" y="25" type="line" smooth="yes"/>
      <point x="213" y="9"/>
      <point x="222" y="0"/>
      <point x="238" y="0" type="curve" smooth="yes"/>
      <point x="278" y="0" type="line"/>
      <point x="279" y="-125"/>
      <point x="236" y="-171"/>
      <point x="117" y="-171" type="curve" smooth="yes"/>
      <point x="101" y="-171"/>
      <point x="93" y="-180"/>
      <point x="93" y="-196" type="curve" smooth="yes"/>
      <point x="93" y="-223" type="line" smooth="yes"/>
      <point x="93" y="-239"/>
      <point x="102" y="-247"/>
      <point x="118" y="-247" type="curve" smooth="yes"/>
      <point x="297" y="-247"/>
      <point x="363" y="-181"/>
      <point x="363" y="-2" type="curve" smooth="yes"/>
      <point x="363" y="115" type="line" smooth="yes"/>
      <point x="363" y="132"/>
      <point x="354" y="140"/>
      <point x="338" y="140" type="curve" smooth="yes"/>
    </contour>
  </outline>
</glyph>
<glyph name="equal" format="1">
  <advance width="575"/>
  <unicode hex="003D"/>
  <outline>
    <contour>
      <point x="51" y="352" type="line" smooth="yes"/>
      <point x="51" y="336"/>
      <point x="60" y="327"/>
      <point x="76" y="327" type="curve" smooth="yes"/>
      <point x="499" y="327" type="line" smooth="yes"/>
      <point x="516" y="327"/>
      <point x="524" y="336"/>
      <point x="524" y="352" type="curve" smooth="yes"/>
      <point x="524" y="379" type="line" smooth="yes"/>
      <point x="524" y="395"/>
      <point x="516" y="404"/>
      <point x="499" y="404" type="curve" smooth="yes"/>
      <point x="76" y="404" type="line" smooth="yes"/>
      <point x="60" y="404"/>
      <point x="51" y="395"/>
      <point x="51" y="378" type="curve" smooth="yes"/>
    </contour>
    <contour>
      <point x="51" y="122" type="line" smooth="yes"/>
      <point x="51" y="106"/>
      <point x="60" y="97"/>
      <point x="76" y="97" type="curve" smooth="yes"/>
      <point x="499" y="97" type="line" smooth="yes"/>
      <point x="516" y="97"/>
      <point x="524" y="106"/>
      <point x="524" y="122" type="curve" smooth="yes"/>
      <point x="524" y="149" type="line" smooth="yes"/>
      <point x="524" y="165"/>
      <point x="516" y="174"/>
      <point x="499" y="174" type="curve" smooth="yes"/>
      <point x="76" y="174" type="line" smooth="yes"/>
      <point x="60" y="174"/>
      <point x="51" y="165"/>
      <point x="51" y="148" type="curve" smooth="yes"/>
    </contour>
  </outline>
</glyph>
<glyph name="greater" format="1">
  <advance width="575"/>
  <unicode hex="003E"/>
  <outline>
    <contour>
      <point x="113" y="495" type="line" smooth="yes"/>
      <point x="99" y="502"/>
      <point x="87" y="499"/>
      <point x="80" y="485" type="curve" smooth="yes"/>
      <point x="66" y="460" type="line" smooth="yes"/>
      <point x="58" y="446"/>
      <point x="62" y="434"/>
      <point x="76" y="426" type="curve" smooth="yes"/>
      <point x="428" y="250" type="line"/>
      <point x="76" y="74" type="line" smooth="yes"/>
      <point x="62" y="67"/>
      <point x="58" y="55"/>
      <point x="66" y="40" type="curve" smooth="yes"/>
      <point x="80" y="16" type="line" smooth="yes"/>
      <point x="87" y="2"/>
      <point x="99" y="-2"/>
      <point x="113" y="5" type="curve" smooth="yes"/>
      <point x="458" y="178" type="line" smooth="yes"/>
      <point x="489" y="193"/>
      <point x="519" y="213"/>
      <point x="519" y="250" type="curve" smooth="yes"/>
      <point x="519" y="287"/>
      <point x="491" y="306"/>
      <point x="458" y="323" type="curve" smooth="yes"/>
    </contour>
  </outline>
</glyph>
<glyph name="question" format="1">
  <advance width="575"/>
  <unicode hex="003F"/>
  <outline>
    <contour>
      <point x="65" y="651" type="line" smooth="yes"/>
      <point x="65" y="635"/>
      <point x="74" y="626"/>
      <point x="90" y="626" type="curve" smooth="yes"/>
      <point x="289" y="625"/>
      <point x="414" y="574"/>
      <point x="414" y="495" type="curve" smooth="yes"/>
      <point x="414" y="437"/>
      <point x="349" y="401"/>
      <point x="244" y="401" type="curve" smooth="yes"/>
      <point x="183" y="401" type="line" smooth="yes"/>
      <point x="167" y="401"/>
      <point x="158" y="392"/>
      <point x="158" y="376" type="curve" smooth="yes"/>
      <point x="158" y="230" type="line" smooth="yes"/>
      <point x="158" y="214"/>
      <point x="167" y="205"/>
      <point x="183" y="205" type="curve" smooth="yes"/>
      <point x="218" y="205" type="line" smooth="yes"/>
      <point x="234" y="205"/>
      <point x="243" y="214"/>
      <point x="243" y="230" type="curve" smooth="yes"/>
      <point x="243" y="327" type="line"/>
      <point x="244" y="327" type="line" smooth="yes"/>
      <point x="402" y="327"/>
      <point x="500" y="392"/>
      <point x="500" y="495" type="curve" smooth="yes"/>
      <point x="500" y="593"/>
      <point x="377" y="698"/>
      <point x="90" y="700" type="curve" smooth="yes"/>
      <point x="74" y="700"/>
      <point x="65" y="691"/>
      <point x="65" y="675" type="curve" smooth="yes"/>
    </contour>
    <contour>
      <point x="158" y="25" type="line" smooth="yes"/>
      <point x="158" y="8"/>
      <point x="167" y="0"/>
      <point x="183" y="0" type="curve" smooth="yes"/>
      <point x="218" y="0" type="line" smooth="yes"/>
      <point x="234" y="0"/>
      <point x="243" y="8"/>
      <point x="243" y="25" type="curve" smooth="yes"/>
      <point x="243" y="72" type="line" smooth="yes"/>
      <point x="243" y="88"/>
      <point x="234" y="97"/>
      <point x="218" y="97" type="curve" smooth="yes"/>
      <point x="183" y="97" type="line" smooth="yes"/>
      <point x="167" y="97"/>
      <point x="158" y="88"/>
      <point x="158" y="72" type="curve" smooth="yes"/>
    </contour>
  </outline>
</glyph>
<glyph name="at" format="1">
  <advance width="575"/>
  <unicode hex="0040"/>
  <outline>
    <contour>
      <point x="51" y="88" type="line" smooth="yes"/>
      <point x="51" y="-75"/>
      <point x="131" y="-158"/>
      <point x="288" y="-158" type="curve" smooth="yes"/>
      <point x="334" y="-158"/>
      <point x="372" y="-151"/>
      <point x="411" y="-137" type="curve" smooth="yes"/>
      <point x="426" y="-132"/>
      <point x="431" y="-120"/>
      <point x="424" y="-105" type="curve" smooth="yes"/>
      <point x="413" y="-78" type="line" smooth="yes"/>
      <point x="407" y="-63"/>
      <point x="396" y="-58"/>
      <point x="381" y="-64" type="curve" smooth="yes"/>
      <point x="348" y="-76"/>
      <point x="321" y="-82"/>
      <point x="288" y="-82" type="curve" smooth="yes"/>
      <point x="187" y="-82"/>
      <point x="136" y="-25"/>
      <point x="136" y="88" type="curve" smooth="yes"/>
      <point x="136" y="464" type="line" smooth="yes"/>
      <point x="136" y="577"/>
      <point x="187" y="634"/>
      <point x="288" y="634" type="curve" smooth="yes"/>
      <point x="388" y="634"/>
      <point x="439" y="577"/>
      <point x="439" y="465" type="curve"/>
      <point x="325" y="465"/>
      <point x="278" y="400"/>
      <point x="278" y="276" type="curve" smooth="yes"/>
      <point x="278" y="152"/>
      <point x="325" y="87"/>
      <point x="439" y="87" type="curve" smooth="yes"/>
      <point x="499" y="87" type="line" smooth="yes"/>
      <point x="515" y="87"/>
      <point x="524" y="96"/>
      <point x="524" y="112" type="curve" smooth="yes"/>
      <point x="524" y="464" type="line" smooth="yes"/>
      <point x="524" y="627"/>
      <point x="444" y="710"/>
      <point x="288" y="710" type="curve" smooth="yes"/>
      <point x="131" y="710"/>
      <point x="51" y="627"/>
      <point x="51" y="464" type="curve" smooth="yes"/>
    </contour>
  </outline>
</glyph>
<glyph name="A" format="1">
  <advance width="575"/>
  <unicode hex="0041"/>
  <outline>
    <contour>
      <point x="410" y="621" type="line" smooth="yes"/>
      <point x="396" y="679"/>
      <point x="347" y="710"/>
      <point x="288" y="710" type="curve" smooth="yes"/>
      <point x="229" y="710"/>
      <point x="180" y="679"/>
      <point x="165" y="621" type="curve" smooth="yes"/>
      <point x="17" y="28" type="line" smooth="yes"/>
      <point x="13" y="11"/>
      <point x="21" y="0"/>
      <point x="39" y="0" type="curve" smooth="yes"/>
      <point x="74" y="0" type="line" smooth="yes"/>
      <point x="89" y="0"/>
      <point x="99" y="7"/>
      <point x="102" y="22" type="curve"/>
      <point x="152" y="220" type="line"/>
      <point x="424" y="220" type="line"/>
      <point x="473" y="22" type="line" smooth="yes"/>
      <point x="477" y="7"/>
      <point x="486" y="0"/>
      <point x="501" y="0" type="curve" smooth="yes"/>
      <point x="537" y="0" type="line" smooth="yes"/>
      <point x="554" y="0"/>
      <point x="563" y="11"/>
      <point x="558" y="28" type="curve"/>
    </contour>
    <contour>
      <point x="249" y="607" type="line" smooth="yes"/>
      <point x="253" y="625"/>
      <point x="271" y="634"/>
      <point x="288" y="634" type="curve" smooth="yes"/>
      <point x="305" y="634"/>
      <point x="323" y="625"/>
      <point x="327" y="607" type="curve" smooth="yes"/>
      <point x="405" y="296" type="line"/>
      <point x="171" y="296" type="line"/>
    </contour>
    <contour>
      <point x="517" y="10" type="move" name="ogonek"/>
    </contour>
    <contour>
      <point x="288" y="700" type="move" name="top"/>
    </contour>
  </outline>
</glyph>
<glyph name="B" format="2">
	<advance width="575"/>
	<unicode hex="0042"/>
	<anchor x="288" y="0" name="bottom"/>
	<anchor x="288" y="350" name="center"/>
	<anchor x="288" y="700" name="top"/>
	<outline>
		<contour>
			<point x="64" y="624" type="curve" smooth="yes"/>
			<point x="102" y="624" type="line"/>
			<point x="102" y="25" type="line" smooth="yes"/>
			<point x="102" y="9"/>
			<point x="111" y="0"/>
			<point x="127" y="0" type="curve" smooth="yes"/>
			<point x="264" y="0" type="line" smooth="yes"/>
			<point x="424" y="0"/>
			<point x="513" y="96"/>
			<point x="513" y="196" type="curve" smooth="yes"/>
			<point x="513" y="271"/>
			<point x="463" y="341"/>
			<point x="382" y="370" type="curve"/>
			<point x="430" y="395"/>
			<point x="473" y="453"/>
			<point x="473" y="521" type="curve" smooth="yes"/>
			<point x="473" y="606"/>
			<point x="406" y="700"/>
			<point x="244" y="700" type="curve" smooth="yes"/>
			<point x="64" y="700" type="line" smooth="yes"/>
			<point x="47" y="700"/>
			<point x="39" y="691"/>
			<point x="39" y="675" type="curve" smooth="yes"/>
			<point x="39" y="649" type="line" smooth="yes"/>
			<point x="39" y="633"/>
			<point x="47" y="624"/>
		</contour>
		<contour>
			<point x="244" y="403" type="curve" smooth="yes"/>
			<point x="187" y="403" type="line"/>
			<point x="187" y="624" type="line"/>
			<point x="244" y="624" type="line" smooth="yes"/>
			<point x="354" y="624"/>
			<point x="398" y="564"/>
			<point x="398" y="511" type="curve" smooth="yes"/>
			<point x="398" y="452"/>
			<point x="344" y="403"/>
		</contour>
		<contour>
			<point x="264" y="77" type="curve" smooth="yes"/>
			<point x="187" y="77" type="line"/>
			<point x="187" y="326" type="line"/>
			<point x="264" y="326" type="line" smooth="yes"/>
			<point x="380" y="326"/>
			<point x="437" y="263"/>
			<point x="437" y="201" type="curve" smooth="yes"/>
			<point x="437" y="139"/>
			<point x="380" y="77"/>
		</contour>
	</outline>
</glyph>
<glyph name="C" format="2">
	<advance width="575"/>
	<unicode hex="0043"/>
	<anchor x="328" y="0" name="bottom"/>
	<anchor x="288" y="700" name="top"/>
	<outline>
		<contour>
			<point x="491" y="53" type="curve" smooth="yes"/>
			<point x="481" y="77" type="line"/>
			<point x="475" y="92"/>
			<point x="464" y="97"/>
			<point x="449" y="91" type="curve" smooth="yes"/>
			<point x="405" y="75"/>
			<point x="369" y="68"/>
			<point x="338" y="68" type="curve" smooth="yes"/>
			<point x="259" y="68"/>
			<point x="171" y="114"/>
			<point x="171" y="310" type="curve" smooth="yes"/>
			<point x="171" y="390" type="line" smooth="yes"/>
			<point x="171" y="586"/>
			<point x="259" y="632"/>
			<point x="338" y="632" type="curve" smooth="yes"/>
			<point x="369" y="632"/>
			<point x="405" y="625"/>
			<point x="449" y="609" type="curve" smooth="yes"/>
			<point x="464" y="603"/>
			<point x="475" y="608"/>
			<point x="481" y="623" type="curve" smooth="yes"/>
			<point x="491" y="647" type="line" smooth="yes"/>
			<point x="497" y="662"/>
			<point x="493" y="674"/>
			<point x="478" y="680" type="curve" smooth="yes"/>
			<point x="431" y="700"/>
			<point x="385" y="710"/>
			<point x="340" y="710" type="curve" smooth="yes"/>
			<point x="222" y="710"/>
			<point x="85" y="640"/>
			<point x="85" y="390" type="curve" smooth="yes"/>
			<point x="85" y="310" type="line" smooth="yes"/>
			<point x="85" y="60"/>
			<point x="222" y="-10"/>
			<point x="340" y="-10" type="curve" smooth="yes"/>
			<point x="385" y="-10"/>
			<point x="431" y="0"/>
			<point x="478" y="20" type="curve" smooth="yes"/>
			<point x="493" y="26"/>
			<point x="497" y="38"/>
		</contour>
	</outline>
</glyph>
<glyph name="E" format="2">
	<advance width="575"/>
	<unicode hex="0045"/>
	<anchor x="288" y="0" name="bottom"/>
	<anchor x="518" y="1" name="ogonek"/>
	<anchor x="288" y="700" name="top"/>
	<anchor x="20" y="700" name="topleft"/>
	<outline>
		<contour>
			<point x="491" y="77" type="curve" smooth="yes"/>
			<point x="170" y="77" type="line"/>
			<point x="170" y="326" type="line"/>
			<point x="448" y="326" type="line" smooth="yes"/>
			<point x="464" y="326"/>
			<point x="473" y="335"/>
			<point x="473" y="351" type="curve" smooth="yes"/>
			<point x="473" y="378" type="line" smooth="yes"/>
			<point x="473" y="394"/>
			<point x="464" y="403"/>
			<point x="448" y="403" type="curve" smooth="yes"/>
			<point x="170" y="403" type="line"/>
			<point x="170" y="624" type="line"/>
			<point x="469" y="624" type="line" smooth="yes"/>
			<point x="485" y="624"/>
			<point x="494" y="632"/>
			<point x="494" y="649" type="curve" smooth="yes"/>
			<point x="494" y="675" type="line" smooth="yes"/>
			<point x="494" y="692"/>
			<point x="485" y="700"/>
			<point x="469" y="700" type="curve" smooth="yes"/>
			<point x="110" y="700" type="line" smooth="yes"/>
			<point x="94" y="700"/>
			<point x="85" y="691"/>
			<point x="85" y="675" type="curve" smooth="yes"/>
			<point x="85" y="25" type="line" smooth="yes"/>
			<point x="85" y="9"/>
			<point x="94" y="0"/>
			<point x="110" y="0" type="curve" smooth="yes"/>
			<point x="491" y="0" type="line" smooth="yes"/>
			<point x="507" y="0"/>
			<point x="516" y="9"/>
			<point x="516" y="25" type="curve" smooth="yes"/>
			<point x="516" y="52" type="line" smooth="yes"/>
			<point x="516" y="68"/>
			<point x="507" y="77"/>
		</contour>
	</outline>
</glyph>
<glyph name="F" format="1">
  <advance width="575"/>
  <unicode hex="0046"/>
  <outline>
    <contour>
      <point x="110" y="700" type="line" smooth="yes"/>
      <point x="94" y="700"/>
      <point x="85" y="691"/>
      <point x="85" y="675" type="curve" smooth="yes"/>
      <point x="85" y="25" type="line" smooth="yes"/>
      <point x="85" y="9"/>
      <point x="94" y="0"/>
      <point x="110" y="0" type="curve" smooth="yes"/>
      <point x="145" y="0" type="line" smooth="yes"/>
      <point x="162" y="0"/>
      <point x="170" y="9"/>
      <point x="170" y="25" type="curve" smooth="yes"/>
      <point x="170" y="292" type="line"/>
      <point x="469" y="292" type="line" smooth="yes"/>
      <point x="485" y="292"/>
      <point x="494" y="300"/>
      <point x="494" y="316" type="curve" smooth="yes"/>
      <point x="494" y="343" type="line" smooth="yes"/>
      <point x="494" y="359"/>
      <point x="485" y="368"/>
      <point x="469" y="368" type="curve" smooth="yes"/>
      <point x="170" y="368" type="line"/>
      <point x="170" y="624" type="line"/>
      <point x="491" y="624" type="line" smooth="yes"/>
      <point x="507" y="624"/>
      <point x="516" y="632"/>
      <point x="516" y="649" type="curve" smooth="yes"/>
      <point x="516" y="675" type="line" smooth="yes"/>
      <point x="516" y="692"/>
      <point x="507" y="700"/>
      <point x="491" y="700" type="curve" smooth="yes"/>
    </contour>
  </outline>
</glyph>
<glyph name="G" format="2">
	<advance width="575"/>
	<unicode hex="0047"/>
	<anchor x="328" y="0" name="bottom"/>
	<anchor x="288" y="700" name="top"/>
	<outline>
		<contour>
			<point x="475" y="399" type="curve" smooth="yes"/>
			<point x="343" y="399" type="line" smooth="yes"/>
			<point x="327" y="399"/>
			<point x="318" y="390"/>
			<point x="318" y="373" type="curve" smooth="yes"/>
			<point x="318" y="347" type="line" smooth="yes"/>
			<point x="318" y="331"/>
			<point x="326" y="322"/>
			<point x="343" y="322" type="curve" smooth="yes"/>
			<point x="415" y="322" type="line"/>
			<point x="415" y="80" type="line"/>
			<point x="386" y="72"/>
			<point x="360" y="68"/>
			<point x="338" y="68" type="curve" smooth="yes"/>
			<point x="259" y="68"/>
			<point x="171" y="114"/>
			<point x="171" y="310" type="curve" smooth="yes"/>
			<point x="171" y="390" type="line" smooth="yes"/>
			<point x="171" y="586"/>
			<point x="259" y="632"/>
			<point x="338" y="632" type="curve" smooth="yes"/>
			<point x="369" y="632"/>
			<point x="405" y="625"/>
			<point x="449" y="609" type="curve" smooth="yes"/>
			<point x="464" y="603"/>
			<point x="475" y="608"/>
			<point x="481" y="623" type="curve" smooth="yes"/>
			<point x="491" y="647" type="line" smooth="yes"/>
			<point x="497" y="662"/>
			<point x="493" y="674"/>
			<point x="478" y="680" type="curve" smooth="yes"/>
			<point x="431" y="700"/>
			<point x="385" y="710"/>
			<point x="340" y="710" type="curve" smooth="yes"/>
			<point x="222" y="710"/>
			<point x="85" y="640"/>
			<point x="85" y="390" type="curve" smooth="yes"/>
			<point x="85" y="310" type="line" smooth="yes"/>
			<point x="85" y="60"/>
			<point x="222" y="-10"/>
			<point x="340" y="-10" type="curve" smooth="yes"/>
			<point x="385" y="-10"/>
			<point x="432" y="0"/>
			<point x="481" y="21" type="curve" smooth="yes"/>
			<point x="494" y="27"/>
			<point x="500" y="37"/>
			<point x="500" y="51" type="curve" smooth="yes"/>
			<point x="500" y="374" type="line" smooth="yes"/>
			<point x="500" y="390"/>
			<point x="491" y="399"/>
		</contour>
	</outline>
</glyph>
<glyph name="H" format="1">
  <advance width="575"/>
  <unicode hex="0048"/>
  <outline>
    <contour>
      <point x="447" y="700" type="line" smooth="yes"/>
      <point x="431" y="700"/>
      <point x="422" y="692"/>
      <point x="422" y="675" type="curve" smooth="yes"/>
      <point x="422" y="410" type="line"/>
      <point x="153" y="410" type="line"/>
      <point x="153" y="675" type="line" smooth="yes"/>
      <point x="153" y="692"/>
      <point x="145" y="700"/>
      <point x="128" y="700" type="curve" smooth="yes"/>
      <point x="93" y="700" type="line" smooth="yes"/>
      <point x="77" y="700"/>
      <point x="68" y="691"/>
      <point x="68" y="675" type="curve" smooth="yes"/>
      <point x="68" y="25" type="line" smooth="yes"/>
      <point x="68" y="9"/>
      <point x="77" y="0"/>
      <point x="93" y="0" type="curve" smooth="yes"/>
      <point x="128" y="0" type="line" smooth="yes"/>
      <point x="145" y="0"/>
      <point x="153" y="9"/>
      <point x="153" y="25" type="curve" smooth="yes"/>
      <point x="153" y="333" type="line"/>
      <point x="422" y="333" type="line"/>
      <point x="422" y="25" type="line" smooth="yes"/>
      <point x="422" y="9"/>
      <point x="431" y="0"/>
      <point x="447" y="0" type="curve" smooth="yes"/>
      <point x="482" y="0" type="line" smooth="yes"/>
      <point x="499" y="0"/>
      <point x="507" y="9"/>
      <point x="507" y="25" type="curve" smooth="yes"/>
      <point x="507" y="675" type="line" smooth="yes"/>
      <point x="507" y="692"/>
      <point x="498" y="700"/>
      <point x="482" y="700" type="curve" smooth="yes"/>
    </contour>
    <contour>
      <point x="288" y="0" type="move" name="bottom"/>
    </contour>
    <contour>
      <point x="288" y="700" type="move" name="top"/>
    </contour>
    <contour>
      <point x="20" y="700" type="move" name="topleft"/>
    </contour>
    <contour>
      <point x="288" y="350" type="move" name="center"/>
    </contour>
  </outline>
</glyph>
<glyph name="I" format="1">
  <advance width="575"/>
  <unicode hex="0049"/>
  <outline>
    <contour>
      <point x="120" y="700" type="line" smooth="yes"/>
      <point x="104" y="700"/>
      <point x="95" y="692"/>
      <point x="95" y="675" type="curve" smooth="yes"/>
      <point x="95" y="649" type="line" smooth="yes"/>
      <point x="95" y="633"/>
      <point x="104" y="624"/>
      <point x="120" y="624" type="curve" smooth="yes"/>
      <point x="245" y="624" type="line"/>
      <point x="245" y="77" type="line"/>
      <point x="110" y="77" type="line" smooth="yes"/>
      <point x="94" y="77"/>
      <point x="85" y="68"/>
      <point x="85" y="52" type="curve" smooth="yes"/>
      <point x="85" y="25" type="line" smooth="yes"/>
      <point x="85" y="9"/>
      <point x="94" y="0"/>
      <point x="110" y="0" type="curve" smooth="yes"/>
      <point x="465" y="0" type="line" smooth="yes"/>
      <point x="482" y="0"/>
      <point x="490" y="9"/>
      <point x="490" y="25" type="curve" smooth="yes"/>
      <point x="490" y="52" type="line" smooth="yes"/>
      <point x="490" y="68"/>
      <point x="482" y="77"/>
      <point x="465" y="77" type="curve" smooth="yes"/>
      <point x="330" y="77" type="line"/>
      <point x="330" y="624" type="line"/>
      <point x="455" y="624" type="line" smooth="yes"/>
      <point x="471" y="624"/>
      <point x="480" y="632"/>
      <point x="480" y="649" type="curve" smooth="yes"/>
      <point x="480" y="675" type="line" smooth="yes"/>
      <point x="480" y="692"/>
      <point x="471" y="700"/>
      <point x="455" y="700" type="curve" smooth="yes"/>
    </contour>
    <contour>
      <point x="518" y="5" type="move" name="ogonek"/>
    </contour>
    <contour>
      <point x="288" y="700" type="move" name="top"/>
    </contour>
    <contour>
      <point x="20" y="700" type="move" name="topleft"/>
    </contour>
    <contour>
      <point x="288" y="0" type="move" name="bottom"/>
    </contour>
  </outline>
</glyph>
<glyph name="J" format="1">
  <advance width="575"/>
  <unicode hex="004A"/>
  <outline>
    <contour>
      <point x="185" y="700" type="line" smooth="yes"/>
      <point x="169" y="700"/>
      <point x="160" y="691"/>
      <point x="160" y="675" type="curve" smooth="yes"/>
      <point x="160" y="647" type="line" smooth="yes"/>
      <point x="160" y="631"/>
      <point x="169" y="622"/>
      <point x="185" y="622" type="curve" smooth="yes"/>
      <point x="404" y="622" type="line"/>
      <point x="404" y="270" type="line" smooth="yes"/>
      <point x="404" y="114"/>
      <point x="316" y="68"/>
      <point x="237" y="68" type="curve" smooth="yes"/>
      <point x="206" y="68"/>
      <point x="170" y="75"/>
      <point x="126" y="91" type="curve" smooth="yes"/>
      <point x="111" y="97"/>
      <point x="100" y="92"/>
      <point x="94" y="77" type="curve" smooth="yes"/>
      <point x="84" y="53" type="line" smooth="yes"/>
      <point x="78" y="38"/>
      <point x="82" y="26"/>
      <point x="97" y="20" type="curve" smooth="yes"/>
      <point x="144" y="0"/>
      <point x="196" y="-10"/>
      <point x="243" y="-10" type="curve" smooth="yes"/>
      <point x="368" y="-10"/>
      <point x="490" y="60"/>
      <point x="490" y="270" type="curve" smooth="yes"/>
      <point x="490" y="675" type="line" smooth="yes"/>
      <point x="490" y="691"/>
      <point x="481" y="700"/>
      <point x="465" y="700" type="curve" smooth="yes"/>
    </contour>
    <contour>
      <point x="288" y="700" type="move" name="top"/>
    </contour>
  </outline>
</glyph>
<glyph name="K" format="2">
	<advance width="575"/>
	<unicode hex="004B"/>
	<anchor x="288" y="0" name="bottom"/>
	<anchor x="288" y="700" name="top"/>
	<outline>
		<contour>
			<point x="443" y="0" type="curve" smooth="yes"/>
			<point x="495" y="0" type="line" smooth="yes"/>
			<point x="516" y="0"/>
			<point x="523" y="14"/>
			<point x="510" y="31" type="curve" smooth="yes"/>
			<point x="294" y="318" type="line" smooth="yes"/>
			<point x="280" y="336"/>
			<point x="266" y="351"/>
			<point x="249" y="360" type="curve"/>
			<point x="267" y="369"/>
			<point x="282" y="384"/>
			<point x="296" y="403" type="curve" smooth="yes"/>
			<point x="495" y="670" type="line" smooth="yes"/>
			<point x="508" y="687"/>
			<point x="501" y="700"/>
			<point x="480" y="700" type="curve" smooth="yes"/>
			<point x="427" y="700" type="line" smooth="yes"/>
			<point x="414" y="700"/>
			<point x="405" y="696"/>
			<point x="397" y="685" type="curve" smooth="yes"/>
			<point x="192" y="399" type="line" smooth="yes"/>
			<point x="188" y="393"/>
			<point x="177" y="385"/>
			<point x="170" y="385" type="curve"/>
			<point x="170" y="675" type="line" smooth="yes"/>
			<point x="170" y="692"/>
			<point x="162" y="700"/>
			<point x="145" y="700" type="curve" smooth="yes"/>
			<point x="110" y="700" type="line" smooth="yes"/>
			<point x="94" y="700"/>
			<point x="85" y="691"/>
			<point x="85" y="675" type="curve" smooth="yes"/>
			<point x="85" y="25" type="line" smooth="yes"/>
			<point x="85" y="9"/>
			<point x="94" y="0"/>
			<point x="110" y="0" type="curve" smooth="yes"/>
			<point x="145" y="0" type="line" smooth="yes"/>
			<point x="162" y="0"/>
			<point x="170" y="9"/>
			<point x="170" y="25" type="curve" smooth="yes"/>
			<point x="170" y="336" type="line"/>
			<point x="177" y="336"/>
			<point x="187" y="329"/>
			<point x="191" y="323" type="curve" smooth="yes"/>
			<point x="413" y="16" type="line" smooth="yes"/>
			<point x="420" y="5"/>
			<point x="429" y="0"/>
		</contour>
	</outline>
</glyph>
<glyph name="L" format="1">
  <advance width="575"/>
  <unicode hex="004C"/>
  <outline>
    <contour>
      <point x="170" y="77" type="line"/>
      <point x="170" y="675" type="line" smooth="yes"/>
      <point x="170" y="692"/>
      <point x="162" y="700"/>
      <point x="145" y="700" type="curve" smooth="yes"/>
      <point x="110" y="700" type="line" smooth="yes"/>
      <point x="94" y="700"/>
      <point x="85" y="691"/>
      <point x="85" y="675" type="curve" smooth="yes"/>
      <point x="85" y="25" type="line" smooth="yes"/>
      <point x="85" y="9"/>
      <point x="94" y="0"/>
      <point x="110" y="0" type="curve" smooth="yes"/>
      <point x="529" y="0" type="line" smooth="yes"/>
      <point x="545" y="0"/>
      <point x="554" y="9"/>
      <point x="554" y="25" type="curve" smooth="yes"/>
      <point x="554" y="52" type="line" smooth="yes"/>
      <point x="554" y="68"/>
      <point x="545" y="77"/>
      <point x="529" y="77" type="curve" smooth="yes"/>
    </contour>
    <contour>
      <point x="288" y="700" type="move" name="top"/>
    </contour>
    <contour>
      <point x="288" y="0" type="move" name="bottom"/>
    </contour>
  </outline>
</glyph>
<glyph name="M" format="1">
  <advance width="575"/>
  <unicode hex="004D"/>
  <outline>
    <contour>
      <point x="525" y="696"/>
      <point x="516" y="705"/>
      <point x="498" y="705" type="curve" smooth="yes"/>
      <point x="482" y="705" type="line" smooth="yes"/>
      <point x="454" y="705"/>
      <point x="435" y="694"/>
      <point x="423" y="669" type="curve" smooth="yes"/>
      <point x="288" y="399" type="line"/>
      <point x="153" y="669" type="line" smooth="yes"/>
      <point x="141" y="694"/>
      <point x="122" y="705"/>
      <point x="94" y="705" type="curve" smooth="yes"/>
      <point x="78" y="705" type="line" smooth="yes"/>
      <point x="60" y="705"/>
      <point x="51" y="696"/>
      <point x="51" y="680" type="curve" smooth="yes"/>
      <point x="31" y="26" type="line" smooth="yes"/>
      <point x="31" y="11"/>
      <point x="42" y="0"/>
      <point x="57" y="0" type="curve" smooth="yes"/>
      <point x="91" y="0" type="line" smooth="yes"/>
      <point x="106" y="0"/>
      <point x="115" y="11"/>
      <point x="116" y="26" type="curve" smooth="yes"/>
      <point x="134" y="540" type="line"/>
      <point x="245" y="318" type="line" smooth="yes"/>
      <point x="251" y="305"/>
      <point x="260" y="300"/>
      <point x="274" y="300" type="curve" smooth="yes"/>
      <point x="302" y="300" type="line" smooth="yes"/>
      <point x="316" y="300"/>
      <point x="325" y="305"/>
      <point x="331" y="318" type="curve" smooth="yes"/>
      <point x="442" y="540" type="line"/>
      <point x="460" y="26" type="line" smooth="yes"/>
      <point x="461" y="11"/>
      <point x="470" y="0"/>
      <point x="485" y="0" type="curve" smooth="yes"/>
      <point x="519" y="0" type="line" smooth="yes"/>
      <point x="534" y="0"/>
      <point x="545" y="11"/>
      <point x="545" y="26" type="curve"/>
      <point x="525" y="680" type="line"/>
    </contour>
  </outline>
</glyph>
<glyph name="N" format="2">
	<advance width="575"/>
	<unicode hex="004E"/>
	<anchor x="288" y="0" name="bottom"/>
	<anchor x="288" y="700" name="top"/>
	<outline>
		<contour>
			<point x="480" y="700" type="curve" smooth="yes"/>
			<point x="446" y="700" type="line" smooth="yes"/>
			<point x="431" y="700"/>
			<point x="421" y="689"/>
			<point x="421" y="674" type="curve" smooth="yes"/>
			<point x="421" y="169" type="line"/>
			<point x="171" y="669" type="line" smooth="yes"/>
			<point x="159" y="694"/>
			<point x="140" y="700"/>
			<point x="112" y="700" type="curve" smooth="yes"/>
			<point x="96" y="700" type="line" smooth="yes"/>
			<point x="78" y="700"/>
			<point x="69" y="691"/>
			<point x="69" y="675" type="curve" smooth="yes"/>
			<point x="69" y="26" type="line" smooth="yes"/>
			<point x="69" y="11"/>
			<point x="80" y="0"/>
			<point x="95" y="0" type="curve" smooth="yes"/>
			<point x="129" y="0" type="line" smooth="yes"/>
			<point x="144" y="0"/>
			<point x="154" y="11"/>
			<point x="154" y="26" type="curve" smooth="yes"/>
			<point x="154" y="527" type="line"/>
			<point x="404" y="36" type="line" smooth="yes"/>
			<point x="417" y="11"/>
			<point x="435" y="0"/>
			<point x="463" y="0" type="curve" smooth="yes"/>
			<point x="479" y="0" type="line" smooth="yes"/>
			<point x="497" y="0"/>
			<point x="506" y="9"/>
			<point x="506" y="25" type="curve" smooth="yes"/>
			<point x="506" y="674" type="line" smooth="yes"/>
			<point x="506" y="689"/>
			<point x="495" y="700"/>
		</contour>
	</outline>
</glyph>
<glyph name="O" format="2">
	<advance width="575"/>
	<unicode hex="004F"/>
	<anchor x="288" y="0" name="bottom"/>
	<anchor x="288" y="350" name="center"/>
	<anchor x="518" y="10" name="ogonek"/>
	<anchor x="288" y="700" name="top"/>
	<anchor x="20" y="700" name="topleft"/>
	<anchor x="555" y="700" name="topright"/>
	<outline>
		<contour>
			<point x="288" y="710" type="curve" smooth="yes"/>
			<point x="170" y="710"/>
			<point x="85" y="624"/>
			<point x="85" y="457" type="curve" smooth="yes"/>
			<point x="85" y="243" type="line" smooth="yes"/>
			<point x="85" y="76"/>
			<point x="170" y="-10"/>
			<point x="288" y="-10" type="curve" smooth="yes"/>
			<point x="406" y="-10"/>
			<point x="490" y="78"/>
			<point x="490" y="243" type="curve" smooth="yes"/>
			<point x="490" y="457" type="line" smooth="yes"/>
			<point x="490" y="622"/>
			<point x="406" y="710"/>
		</contour>
		<contour>
			<point x="288" y="66" type="curve" smooth="yes"/>
			<point x="223" y="66"/>
			<point x="170" y="131"/>
			<point x="170" y="243" type="curve" smooth="yes"/>
			<point x="170" y="457" type="line" smooth="yes"/>
			<point x="170" y="569"/>
			<point x="223" y="634"/>
			<point x="288" y="634" type="curve" smooth="yes"/>
			<point x="353" y="634"/>
			<point x="405" y="569"/>
			<point x="405" y="457" type="curve" smooth="yes"/>
			<point x="405" y="243" type="line" smooth="yes"/>
			<point x="405" y="131"/>
			<point x="353" y="66"/>
		</contour>
	</outline>
</glyph>
<glyph name="P" format="2">
	<advance width="575"/>
	<unicode hex="0050"/>
	<outline>
		<contour>
			<point x="245" y="700" type="curve" smooth="yes"/>
			<point x="110" y="700" type="line" smooth="yes"/>
			<point x="94" y="700"/>
			<point x="85" y="691"/>
			<point x="85" y="675" type="curve" smooth="yes"/>
			<point x="85" y="25" type="line" smooth="yes"/>
			<point x="85" y="9"/>
			<point x="94" y="0"/>
			<point x="110" y="0" type="curve" smooth="yes"/>
			<point x="145" y="0" type="line" smooth="yes"/>
			<point x="162" y="0"/>
			<point x="170" y="9"/>
			<point x="170" y="25" type="curve" smooth="yes"/>
			<point x="170" y="260" type="line"/>
			<point x="245" y="260" type="line" smooth="yes"/>
			<point x="425" y="260"/>
			<point x="517" y="361"/>
			<point x="517" y="480" type="curve" smooth="yes"/>
			<point x="517" y="596"/>
			<point x="427" y="700"/>
		</contour>
		<contour>
			<point x="245" y="336" type="curve" smooth="yes"/>
			<point x="170" y="336" type="line"/>
			<point x="170" y="624" type="line"/>
			<point x="245" y="624" type="line" smooth="yes"/>
			<point x="372" y="624"/>
			<point x="432" y="556"/>
			<point x="432" y="480" type="curve" smooth="yes"/>
			<point x="432" y="404"/>
			<point x="373" y="336"/>
		</contour>
	</outline>
</glyph>
<glyph name="Q" format="2">
	<advance width="575"/>
	<unicode hex="0051"/>
	<anchor x="288" y="700" name="top"/>
	<outline>
		<contour>
			<point x="546" y="-168" type="curve" smooth="yes"/>
			<point x="535" y="-142" type="line"/>
			<point x="528" y="-127"/>
			<point x="517" y="-122"/>
			<point x="502" y="-128" type="curve" smooth="yes"/>
			<point x="475" y="-138"/>
			<point x="452" y="-142"/>
			<point x="427" y="-142" type="curve" smooth="yes"/>
			<point x="369" y="-142"/>
			<point x="331" y="-114"/>
			<point x="331" y="-6" type="curve"/>
			<point x="426" y="13"/>
			<point x="490" y="99"/>
			<point x="490" y="243" type="curve" smooth="yes"/>
			<point x="490" y="457" type="line" smooth="yes"/>
			<point x="490" y="622"/>
			<point x="406" y="710"/>
			<point x="288" y="710" type="curve" smooth="yes"/>
			<point x="170" y="710"/>
			<point x="85" y="624"/>
			<point x="85" y="457" type="curve" smooth="yes"/>
			<point x="85" y="243" type="line" smooth="yes"/>
			<point x="85" y="97"/>
			<point x="150" y="13"/>
			<point x="245" y="-6" type="curve"/>
			<point x="245" y="-167"/>
			<point x="332" y="-220"/>
			<point x="427" y="-220" type="curve" smooth="yes"/>
			<point x="462" y="-220"/>
			<point x="499" y="-212"/>
			<point x="532" y="-200" type="curve"/>
			<point x="548" y="-195"/>
			<point x="552" y="-183"/>
		</contour>
		<contour>
			<point x="170" y="243" type="curve" smooth="yes"/>
			<point x="170" y="457" type="line" smooth="yes"/>
			<point x="170" y="569"/>
			<point x="223" y="634"/>
			<point x="288" y="634" type="curve" smooth="yes"/>
			<point x="353" y="634"/>
			<point x="405" y="569"/>
			<point x="405" y="457" type="curve" smooth="yes"/>
			<point x="405" y="243" type="line" smooth="yes"/>
			<point x="405" y="131"/>
			<point x="353" y="66"/>
			<point x="288" y="66" type="curve" smooth="yes"/>
			<point x="223" y="66"/>
			<point x="170" y="131"/>
		</contour>
	</outline>
</glyph>
<glyph name="R" format="1">
  <advance width="575"/>
  <unicode hex="0052"/>
  <outline>
    <contour>
      <point x="398" y="335" type="line"/>
      <point x="463" y="367"/>
      <point x="500" y="434"/>
      <point x="500" y="506" type="curve" smooth="yes"/>
      <point x="500" y="615"/>
      <point x="421" y="700"/>
      <point x="268" y="700" type="curve" smooth="yes"/>
      <point x="110" y="700" type="line" smooth="yes"/>
      <point x="94" y="700"/>
      <point x="85" y="692"/>
      <point x="85" y="675" type="curve" smooth="yes"/>
      <point x="85" y="25" type="line" smooth="yes"/>
      <point x="85" y="9"/>
      <point x="94" y="0"/>
      <point x="110" y="0" type="curve" smooth="yes"/>
      <point x="145" y="0" type="line" smooth="yes"/>
      <point x="161" y="0"/>
      <point x="170" y="9"/>
      <point x="170" y="25" type="curve" smooth="yes"/>
      <point x="170" y="312" type="line"/>
      <point x="315" y="312" type="line"/>
      <point x="462" y="18" type="line" smooth="yes"/>
      <point x="468" y="6"/>
      <point x="477" y="0"/>
      <point x="491" y="0" type="curve" smooth="yes"/>
      <point x="533" y="0" type="line" smooth="yes"/>
      <point x="552" y="0"/>
      <point x="560" y="12"/>
      <point x="551" y="30" type="curve" smooth="yes"/>
    </contour>
    <contour>
      <point x="170" y="389" type="line"/>
      <point x="170" y="624" type="line"/>
      <point x="268" y="624" type="line" smooth="yes"/>
      <point x="367" y="624"/>
      <point x="415" y="565"/>
      <point x="415" y="506" type="curve" smooth="yes"/>
      <point x="415" y="448"/>
      <point x="369" y="389"/>
      <point x="268" y="389" type="curve" smooth="yes"/>
    </contour>
    <contour>
      <point x="288" y="700" type="move" name="top"/>
    </contour>
    <contour>
      <point x="288" y="0" type="move" name="bottom"/>
    </contour>
  </outline>
</glyph>
<glyph name="S" format="2">
	<advance width="575"/>
	<unicode hex="0053"/>
	<anchor x="288" y="0" name="bottom"/>
	<anchor x="288" y="696" name="top"/>
	<outline>
		<contour>
			<point x="458" y="625" type="curve" smooth="yes"/>
			<point x="467" y="652" type="line" smooth="yes"/>
			<point x="472" y="668"/>
			<point x="471" y="676"/>
			<point x="456" y="683" type="curve" smooth="yes"/>
			<point x="415" y="701"/>
			<point x="359" y="710"/>
			<point x="316" y="710" type="curve" smooth="yes"/>
			<point x="196" y="710"/>
			<point x="82" y="646"/>
			<point x="82" y="521" type="curve" smooth="yes"/>
			<point x="82" y="434"/>
			<point x="138" y="349"/>
			<point x="284" y="318" type="curve" smooth="yes"/>
			<point x="385" y="297"/>
			<point x="428" y="246"/>
			<point x="428" y="190" type="curve" smooth="yes"/>
			<point x="428" y="113"/>
			<point x="348" y="69"/>
			<point x="255" y="69" type="curve" smooth="yes"/>
			<point x="221" y="69"/>
			<point x="169" y="75"/>
			<point x="130" y="91" type="curve" smooth="yes"/>
			<point x="115" y="97"/>
			<point x="104" y="92"/>
			<point x="98" y="77" type="curve" smooth="yes"/>
			<point x="88" y="53" type="line" smooth="yes"/>
			<point x="82" y="38"/>
			<point x="86" y="26"/>
			<point x="101" y="20" type="curve" smooth="yes"/>
			<point x="147" y="0"/>
			<point x="202" y="-10"/>
			<point x="250" y="-10" type="curve" smooth="yes"/>
			<point x="387" y="-10"/>
			<point x="514" y="69"/>
			<point x="514" y="195" type="curve" smooth="yes"/>
			<point x="514" y="291"/>
			<point x="441" y="372"/>
			<point x="292" y="403" type="curve" smooth="yes"/>
			<point x="206" y="421"/>
			<point x="168" y="474"/>
			<point x="168" y="524" type="curve" smooth="yes"/>
			<point x="168" y="593"/>
			<point x="239" y="634"/>
			<point x="316" y="634" type="curve" smooth="yes"/>
			<point x="354" y="634"/>
			<point x="392" y="624"/>
			<point x="427" y="611" type="curve" smooth="yes"/>
			<point x="442" y="605"/>
			<point x="453" y="610"/>
		</contour>
	</outline>
</glyph>
<glyph name="T" format="2">
	<advance width="575"/>
	<unicode hex="0054"/>
	<anchor x="288" y="0" name="bottom"/>
	<anchor x="288" y="350" name="center"/>
	<anchor x="288" y="700" name="top"/>
	<outline>
		<contour>
			<point x="554" y="649" type="curve" smooth="yes"/>
			<point x="554" y="675" type="line" smooth="yes"/>
			<point x="554" y="692"/>
			<point x="545" y="700"/>
			<point x="529" y="700" type="curve" smooth="yes"/>
			<point x="47" y="700" type="line" smooth="yes"/>
			<point x="30" y="700"/>
			<point x="22" y="691"/>
			<point x="22" y="675" type="curve" smooth="yes"/>
			<point x="22" y="649" type="line" smooth="yes"/>
			<point x="22" y="633"/>
			<point x="30" y="624"/>
			<point x="46" y="624" type="curve" smooth="yes"/>
			<point x="245" y="624" type="line"/>
			<point x="245" y="25" type="line" smooth="yes"/>
			<point x="245" y="9"/>
			<point x="254" y="0"/>
			<point x="270" y="0" type="curve" smooth="yes"/>
			<point x="305" y="0" type="line" smooth="yes"/>
			<point x="322" y="0"/>
			<point x="330" y="9"/>
			<point x="330" y="25" type="curve" smooth="yes"/>
			<point x="330" y="624" type="line"/>
			<point x="529" y="624" type="line" smooth="yes"/>
			<point x="545" y="624"/>
			<point x="554" y="633"/>
		</contour>
	</outline>
</glyph>
<glyph name="U" format="2">
	<advance width="575"/>
	<unicode hex="0055"/>
	<anchor x="288" y="0" name="bottom"/>
	<anchor x="355" y="5" name="ogonek"/>
	<anchor x="288" y="700" name="top"/>
	<anchor x="555" y="700" name="topright"/>
	<outline>
		<contour>
			<point x="405" y="675" type="curve" smooth="yes"/>
			<point x="405" y="213" type="line" smooth="yes"/>
			<point x="405" y="103"/>
			<point x="372" y="66"/>
			<point x="288" y="66" type="curve" smooth="yes"/>
			<point x="203" y="66"/>
			<point x="170" y="103"/>
			<point x="170" y="213" type="curve" smooth="yes"/>
			<point x="170" y="675" type="line" smooth="yes"/>
			<point x="170" y="691"/>
			<point x="161" y="700"/>
			<point x="145" y="700" type="curve" smooth="yes"/>
			<point x="110" y="700" type="line" smooth="yes"/>
			<point x="94" y="700"/>
			<point x="85" y="691"/>
			<point x="85" y="675" type="curve" smooth="yes"/>
			<point x="85" y="213" type="line" smooth="yes"/>
			<point x="85" y="46"/>
			<point x="170" y="-10"/>
			<point x="288" y="-10" type="curve" smooth="yes"/>
			<point x="406" y="-10"/>
			<point x="490" y="46"/>
			<point x="490" y="213" type="curve" smooth="yes"/>
			<point x="490" y="675" type="line" smooth="yes"/>
			<point x="490" y="691"/>
			<point x="481" y="700"/>
			<point x="465" y="700" type="curve" smooth="yes"/>
			<point x="430" y="700" type="line" smooth="yes"/>
			<point x="414" y="700"/>
			<point x="405" y="691"/>
		</contour>
	</outline>
</glyph>
<glyph name="V" format="2">
	<advance width="575"/>
	<unicode hex="0056"/>
	<anchor x="288" y="0" name="bottom"/>
	<anchor x="517" y="690" name="ogonek"/>
	<anchor x="288" y="0" name="top"/>
	<outline>
		<contour>
			<point x="410" y="79" type="curve" smooth="yes"/>
			<point x="558" y="672" type="line"/>
			<point x="563" y="689"/>
			<point x="554" y="700"/>
			<point x="537" y="700" type="curve" smooth="yes"/>
			<point x="501" y="700" type="line" smooth="yes"/>
			<point x="486" y="700"/>
			<point x="477" y="693"/>
			<point x="473" y="678" type="curve" smooth="yes"/>
			<point x="327" y="93" type="line" smooth="yes"/>
			<point x="323" y="75"/>
			<point x="305" y="66"/>
			<point x="288" y="66" type="curve" smooth="yes"/>
			<point x="271" y="66"/>
			<point x="253" y="75"/>
			<point x="249" y="93" type="curve" smooth="yes"/>
			<point x="102" y="678" type="line"/>
			<point x="99" y="693"/>
			<point x="89" y="700"/>
			<point x="74" y="700" type="curve" smooth="yes"/>
			<point x="39" y="700" type="line" smooth="yes"/>
			<point x="21" y="700"/>
			<point x="13" y="689"/>
			<point x="17" y="672" type="curve" smooth="yes"/>
			<point x="165" y="79" type="line" smooth="yes"/>
			<point x="180" y="21"/>
			<point x="229" y="-10"/>
			<point x="288" y="-10" type="curve" smooth="yes"/>
			<point x="347" y="-10"/>
			<point x="396" y="21"/>
		</contour>
	</outline>
</glyph>
<glyph name="W" format="1">
  <advance width="575"/>
  <unicode hex="0057"/>
  <outline>
    <contour>
      <point x="545" y="674" type="line" smooth="yes"/>
      <point x="545" y="689"/>
      <point x="534" y="700"/>
      <point x="519" y="700" type="curve" smooth="yes"/>
      <point x="485" y="700" type="line" smooth="yes"/>
      <point x="470" y="700"/>
      <point x="461" y="689"/>
      <point x="460" y="674" type="curve" smooth="yes"/>
      <point x="442" y="160" type="line"/>
      <point x="331" y="382" type="line" smooth="yes"/>
      <point x="325" y="395"/>
      <point x="316" y="400"/>
      <point x="302" y="400" type="curve" smooth="yes"/>
      <point x="274" y="400" type="line" smooth="yes"/>
      <point x="260" y="400"/>
      <point x="251" y="395"/>
      <point x="245" y="382" type="curve" smooth="yes"/>
      <point x="134" y="160" type="line"/>
      <point x="116" y="674" type="line" smooth="yes"/>
      <point x="115" y="689"/>
      <point x="106" y="700"/>
      <point x="91" y="700" type="curve" smooth="yes"/>
      <point x="57" y="700" type="line" smooth="yes"/>
      <point x="42" y="700"/>
      <point x="31" y="689"/>
      <point x="31" y="674" type="curve" smooth="yes"/>
      <point x="51" y="20" type="line" smooth="yes"/>
      <point x="51" y="4"/>
      <point x="60" y="-5"/>
      <point x="78" y="-5" type="curve" smooth="yes"/>
      <point x="94" y="-5" type="line" smooth="yes"/>
      <point x="122" y="-5"/>
      <point x="141" y="6"/>
      <point x="153" y="31" type="curve" smooth="yes"/>
      <point x="288" y="301" type="line"/>
      <point x="423" y="31" type="line" smooth="yes"/>
      <point x="435" y="6"/>
      <point x="454" y="-5"/>
      <point x="482" y="-5" type="curve" smooth="yes"/>
      <point x="498" y="-5" type="line" smooth="yes"/>
      <point x="516" y="-5"/>
      <point x="525" y="4"/>
      <point x="525" y="20" type="curve" smooth="yes"/>
    </contour>
    <contour>
      <point x="288" y="700" type="move" name="top"/>
    </contour>
  </outline>
</glyph>
<glyph name="X" format="2">
	<advance width="575"/>
	<unicode hex="0058"/>
	<outline>
		<contour>
			<point x="393" y="390" type="curve" smooth="yes"/>
			<point x="528" y="671" type="line"/>
			<point x="537" y="688"/>
			<point x="529" y="700"/>
			<point x="510" y="700" type="curve" smooth="yes"/>
			<point x="479" y="700" type="line" smooth="yes"/>
			<point x="465" y="700"/>
			<point x="455" y="695"/>
			<point x="449" y="682" type="curve" smooth="yes"/>
			<point x="318" y="419" type="line" smooth="yes"/>
			<point x="308" y="399"/>
			<point x="298" y="390"/>
			<point x="288" y="390" type="curve" smooth="yes"/>
			<point x="277" y="390"/>
			<point x="267" y="400"/>
			<point x="258" y="419" type="curve" smooth="yes"/>
			<point x="126" y="682" type="line" smooth="yes"/>
			<point x="120" y="695"/>
			<point x="111" y="700"/>
			<point x="97" y="700" type="curve" smooth="yes"/>
			<point x="66" y="700" type="line" smooth="yes"/>
			<point x="46" y="700"/>
			<point x="39" y="688"/>
			<point x="47" y="671" type="curve" smooth="yes"/>
			<point x="183" y="390" type="line"/>
			<point x="189" y="376"/>
			<point x="204" y="364"/>
			<point x="220" y="357" type="curve"/>
			<point x="204" y="351"/>
			<point x="189" y="338"/>
			<point x="183" y="325" type="curve" smooth="yes"/>
			<point x="40" y="30" type="line" smooth="yes"/>
			<point x="32" y="12"/>
			<point x="40" y="0"/>
			<point x="59" y="0" type="curve" smooth="yes"/>
			<point x="90" y="0" type="line" smooth="yes"/>
			<point x="104" y="0"/>
			<point x="113" y="6"/>
			<point x="119" y="18" type="curve" smooth="yes"/>
			<point x="258" y="295" type="line"/>
			<point x="267" y="315"/>
			<point x="277" y="325"/>
			<point x="288" y="325" type="curve" smooth="yes"/>
			<point x="298" y="325"/>
			<point x="308" y="315"/>
			<point x="318" y="295" type="curve" smooth="yes"/>
			<point x="456" y="18" type="line" smooth="yes"/>
			<point x="462" y="6"/>
			<point x="472" y="0"/>
			<point x="486" y="0" type="curve" smooth="yes"/>
			<point x="517" y="0" type="line" smooth="yes"/>
			<point x="536" y="0"/>
			<point x="543" y="12"/>
			<point x="535" y="30" type="curve" smooth="yes"/>
			<point x="393" y="325" type="line"/>
			<point x="386" y="338"/>
			<point x="372" y="351"/>
			<point x="355" y="357" type="curve"/>
			<point x="372" y="364"/>
			<point x="386" y="376"/>
		</contour>
	</outline>
</glyph>
<glyph name="Y" format="2">
	<advance width="575"/>
	<unicode hex="0059"/>
	<anchor x="288" y="700" name="top"/>
	<outline>
		<contour>
			<point x="532" y="700" type="curve" smooth="yes"/>
			<point x="496" y="700" type="line" smooth="yes"/>
			<point x="482" y="700"/>
			<point x="472" y="695"/>
			<point x="466" y="682" type="curve" smooth="yes"/>
			<point x="330" y="410" type="line" smooth="yes"/>
			<point x="321" y="391"/>
			<point x="306" y="380"/>
			<point x="288" y="380" type="curve" smooth="yes"/>
			<point x="270" y="380"/>
			<point x="255" y="391"/>
			<point x="245" y="410" type="curve" smooth="yes"/>
			<point x="109" y="682" type="line" smooth="yes"/>
			<point x="103" y="695"/>
			<point x="94" y="700"/>
			<point x="80" y="700" type="curve" smooth="yes"/>
			<point x="43" y="700" type="line" smooth="yes"/>
			<point x="24" y="700"/>
			<point x="16" y="688"/>
			<point x="25" y="671" type="curve" smooth="yes"/>
			<point x="170" y="380" type="line" smooth="yes"/>
			<point x="186" y="347"/>
			<point x="212" y="325"/>
			<point x="245" y="315" type="curve"/>
			<point x="245" y="25" type="line" smooth="yes"/>
			<point x="245" y="9"/>
			<point x="254" y="0"/>
			<point x="270" y="0" type="curve" smooth="yes"/>
			<point x="305" y="0" type="line" smooth="yes"/>
			<point x="321" y="0"/>
			<point x="330" y="9"/>
			<point x="330" y="25" type="curve" smooth="yes"/>
			<point x="330" y="315" type="line"/>
			<point x="363" y="325"/>
			<point x="389" y="347"/>
			<point x="405" y="380" type="curve" smooth="yes"/>
			<point x="550" y="671" type="line" smooth="yes"/>
			<point x="559" y="688"/>
			<point x="552" y="700"/>
		</contour>
	</outline>
</glyph>
<glyph name="Z" format="1">
  <advance width="575"/>
  <unicode hex="005A"/>
  <outline>
    <contour>
      <point x="434" y="455" type="line" smooth="yes"/>
      <point x="483" y="504"/>
      <point x="510" y="572"/>
      <point x="510" y="645" type="curve" smooth="yes"/>
      <point x="510" y="675" type="line" smooth="yes"/>
      <point x="510" y="692"/>
      <point x="502" y="700"/>
      <point x="485" y="700" type="curve" smooth="yes"/>
      <point x="121" y="700" type="line" smooth="yes"/>
      <point x="105" y="700"/>
      <point x="96" y="692"/>
      <point x="96" y="675" type="curve" smooth="yes"/>
      <point x="96" y="649" type="line" smooth="yes"/>
      <point x="96" y="633"/>
      <point x="105" y="624"/>
      <point x="121" y="624" type="curve" smooth="yes"/>
      <point x="424" y="624" type="line"/>
      <point x="421" y="571"/>
      <point x="405" y="529"/>
      <point x="380" y="504" type="curve" smooth="yes"/>
      <point x="141" y="265" type="line" smooth="yes"/>
      <point x="92" y="216"/>
      <point x="65" y="142"/>
      <point x="65" y="55" type="curve" smooth="yes"/>
      <point x="65" y="25" type="line" smooth="yes"/>
      <point x="65" y="9"/>
      <point x="74" y="0"/>
      <point x="90" y="0" type="curve" smooth="yes"/>
      <point x="485" y="0" type="line" smooth="yes"/>
      <point x="501" y="0"/>
      <point x="510" y="9"/>
      <point x="510" y="25" type="curve" smooth="yes"/>
      <point x="510" y="52" type="line" smooth="yes"/>
      <point x="510" y="68"/>
      <point x="501" y="77"/>
      <point x="485" y="77" type="curve" smooth="yes"/>
      <point x="150" y="77" type="line"/>
      <point x="153" y="141"/>
      <point x="169" y="190"/>
      <point x="196" y="217" type="curve" smooth="yes"/>
    </contour>
  </outline>
</glyph>
<glyph name="bracketleft" format="1">
  <advance width="575"/>
  <unicode hex="005B"/>
  <outline>
    <contour>
      <point x="235" y="-102" type="line"/>
      <point x="235" y="674" type="line"/>
      <point x="470" y="674" type="line" smooth="yes"/>
      <point x="487" y="674"/>
      <point x="495" y="682"/>
      <point x="495" y="699" type="curve" smooth="yes"/>
      <point x="495" y="725" type="line" smooth="yes"/>
      <point x="495" y="742"/>
      <point x="486" y="750"/>
      <point x="470" y="750" type="curve" smooth="yes"/>
      <point x="175" y="750" type="line" smooth="yes"/>
      <point x="159" y="750"/>
      <point x="150" y="741"/>
      <point x="150" y="725" type="curve" smooth="yes"/>
      <point x="150" y="-153" type="line" smooth="yes"/>
      <point x="150" y="-170"/>
      <point x="159" y="-178"/>
      <point x="175" y="-178" type="curve" smooth="yes"/>
      <point x="470" y="-178" type="line" smooth="yes"/>
      <point x="487" y="-178"/>
      <point x="495" y="-170"/>
      <point x="495" y="-153" type="curve" smooth="yes"/>
      <point x="495" y="-127" type="line" smooth="yes"/>
      <point x="495" y="-111"/>
      <point x="486" y="-102"/>
      <point x="470" y="-102" type="curve" smooth="yes"/>
    </contour>
  </outline>
</glyph>
<glyph name="backslash" format="2">
	<advance width="575"/>
	<unicode hex="005C"/>
	<outline>
		<contour>
			<point x="533" y="-144" type="curve" smooth="yes"/>
			<point x="120" y="682" type="line" smooth="yes"/>
			<point x="113" y="696"/>
			<point x="101" y="700"/>
			<point x="87" y="693" type="curve" smooth="yes"/>
			<point x="55" y="677" type="line" smooth="yes"/>
			<point x="41" y="670"/>
			<point x="37" y="658"/>
			<point x="44" y="644" type="curve" smooth="yes"/>
			<point x="457" y="-182" type="line" smooth="yes"/>
			<point x="464" y="-196"/>
			<point x="476" y="-200"/>
			<point x="490" y="-193" type="curve" smooth="yes"/>
			<point x="522" y="-177" type="line" smooth="yes"/>
			<point x="536" y="-170"/>
			<point x="540" y="-158"/>
		</contour>
	</outline>
</glyph>
<glyph name="bracketright" format="2">
	<advance width="575"/>
	<unicode hex="005D"/>
	<outline>
		<contour>
			<point x="400" y="750" type="curve" smooth="yes"/>
			<point x="105" y="750" type="line" smooth="yes"/>
			<point x="89" y="750"/>
			<point x="80" y="742"/>
			<point x="80" y="725" type="curve" smooth="yes"/>
			<point x="80" y="699" type="line" smooth="yes"/>
			<point x="80" y="683"/>
			<point x="89" y="674"/>
			<point x="105" y="674" type="curve" smooth="yes"/>
			<point x="340" y="674" type="line"/>
			<point x="340" y="-102" type="line"/>
			<point x="105" y="-102" type="line" smooth="yes"/>
			<point x="89" y="-102"/>
			<point x="80" y="-110"/>
			<point x="80" y="-127" type="curve" smooth="yes"/>
			<point x="80" y="-153" type="line" smooth="yes"/>
			<point x="80" y="-170"/>
			<point x="89" y="-178"/>
			<point x="105" y="-178" type="curve" smooth="yes"/>
			<point x="400" y="-178" type="line" smooth="yes"/>
			<point x="417" y="-178"/>
			<point x="425" y="-169"/>
			<point x="425" y="-153" type="curve" smooth="yes"/>
			<point x="425" y="725" type="line" smooth="yes"/>
			<point x="425" y="742"/>
			<point x="416" y="750"/>
		</contour>
	</outline>
</glyph>
<glyph name="asciicircum" format="1">
  <advance width="575"/>
  <unicode hex="005E"/>
  <outline>
    <contour>
      <point x="29" y="499" type="line" smooth="yes"/>
      <point x="17" y="487"/>
      <point x="18" y="474"/>
      <point x="30" y="463" type="curve" smooth="yes"/>
      <point x="53" y="443" type="line" smooth="yes"/>
      <point x="65" y="432"/>
      <point x="77" y="432"/>
      <point x="88" y="444" type="curve" smooth="yes"/>
      <point x="272" y="633" type="line" smooth="yes"/>
      <point x="275" y="636"/>
      <point x="281" y="642"/>
      <point x="288" y="642" type="curve" smooth="yes"/>
      <point x="295" y="642"/>
      <point x="298" y="639"/>
      <point x="303" y="633" type="curve" smooth="yes"/>
      <point x="487" y="444" type="line" smooth="yes"/>
      <point x="499" y="432"/>
      <point x="511" y="432"/>
      <point x="523" y="443" type="curve" smooth="yes"/>
      <point x="545" y="463" type="line" smooth="yes"/>
      <point x="558" y="474"/>
      <point x="558" y="487"/>
      <point x="546" y="499" type="curve" smooth="yes"/>
      <point x="357" y="682" type="line" smooth="yes"/>
      <point x="337" y="701"/>
      <point x="318" y="719"/>
      <point x="288" y="719" type="curve" smooth="yes"/>
      <point x="258" y="719"/>
      <point x="239" y="702"/>
      <point x="218" y="682" type="curve" smooth="yes"/>
    </contour>
  </outline>
</glyph>
<glyph name="underscore" format="1">
  <advance width="575"/>
  <unicode hex="005F"/>
  <outline>
    <contour>
      <point x="51" y="-52" type="line" smooth="yes"/>
      <point x="51" y="-68"/>
      <point x="60" y="-77"/>
      <point x="76" y="-77" type="curve" smooth="yes"/>
      <point x="499" y="-77" type="line" smooth="yes"/>
      <point x="516" y="-77"/>
      <point x="524" y="-68"/>
      <point x="524" y="-52" type="curve" smooth="yes"/>
      <point x="524" y="-25" type="line" smooth="yes"/>
      <point x="524" y="-9"/>
      <point x="515" y="0"/>
      <point x="499" y="0" type="curve" smooth="yes"/>
      <point x="76" y="0" type="line" smooth="yes"/>
      <point x="60" y="0"/>
      <point x="51" y="-9"/>
      <point x="51" y="-25" type="curve" smooth="yes"/>
    </contour>
  </outline>
</glyph>
<glyph name="grave" format="2">
	<advance width="575"/>
	<unicode hex="0060"/>
	<anchor x="288" y="500" name="_top"/>
	<outline>
		<contour>
			<point x="390" y="574" type="curve"/>
			<point x="399" y="592" type="line"/>
			<point x="404" y="607"/>
			<point x="400" y="618"/>
			<point x="385" y="625" type="curve" smooth="yes"/>
			<point x="176" y="726" type="line" smooth="yes"/>
			<point x="161" y="733"/>
			<point x="149" y="729"/>
			<point x="143" y="714" type="curve" smooth="yes"/>
			<point x="121" y="668" type="line" smooth="yes"/>
			<point x="114" y="653"/>
			<point x="119" y="641"/>
			<point x="135" y="636" type="curve" smooth="yes"/>
			<point x="357" y="561" type="line" smooth="yes"/>
			<point x="371" y="556"/>
			<point x="382" y="560"/>
		</contour>
	</outline>
</glyph>
<glyph name="a" format="1">
  <advance width="575"/>
  <unicode hex="0061"/>
  <outline>
    <contour>
      <point x="385" y="202" type="line"/>
      <point x="385" y="71" type="line"/>
      <point x="352" y="68"/>
      <point x="320" y="65"/>
      <point x="291" y="65" type="curve" smooth="yes"/>
      <point x="205" y="65"/>
      <point x="163" y="96"/>
      <point x="163" y="133" type="curve" smooth="yes"/>
      <point x="163" y="170"/>
      <point x="205" y="202"/>
      <point x="288" y="202" type="curve" smooth="yes"/>
    </contour>
    <contour>
      <point x="470" y="319" type="line" smooth="yes"/>
      <point x="470" y="457"/>
      <point x="399" y="512"/>
      <point x="273" y="512" type="curve" smooth="yes"/>
      <point x="236" y="512"/>
      <point x="194" y="508"/>
      <point x="149" y="499" type="curve" smooth="yes"/>
      <point x="133" y="496"/>
      <point x="128" y="486"/>
      <point x="130" y="470" type="curve" smooth="yes"/>
      <point x="133" y="443" type="line" smooth="yes"/>
      <point x="135" y="428"/>
      <point x="147" y="422"/>
      <point x="163" y="425" type="curve" smooth="yes"/>
      <point x="193" y="431"/>
      <point x="223" y="435"/>
      <point x="254" y="435" type="curve" smooth="yes"/>
      <point x="336" y="435"/>
      <point x="385" y="407"/>
      <point x="385" y="319" type="curve" smooth="yes"/>
      <point x="385" y="279" type="line"/>
      <point x="288" y="279" type="line" smooth="yes"/>
      <point x="148" y="279"/>
      <point x="77" y="210"/>
      <point x="77" y="134" type="curve" smooth="yes"/>
      <point x="77" y="58"/>
      <point x="149" y="-10"/>
      <point x="285" y="-10" type="curve" smooth="yes"/>
      <point x="334" y="-10"/>
      <point x="388" y="-5"/>
      <point x="446" y="2" type="curve" smooth="yes"/>
      <point x="462" y="4"/>
      <point x="470" y="13"/>
      <point x="470" y="29" type="curve" smooth="yes"/>
    </contour>
    <contour>
      <point x="518" y="5" type="move" name="ogonek"/>
    </contour>
    <contour>
      <point x="288" y="550" type="move" name="top"/>
    </contour>
  </outline>
</glyph>
<glyph name="b" format="1">
  <advance width="575"/>
  <unicode hex="0062"/>
  <outline>
    <contour>
      <point x="85" y="31"/>
      <point x="90" y="23"/>
      <point x="98" y="19" type="curve" smooth="yes"/>
      <point x="145" y="0"/>
      <point x="196" y="-10"/>
      <point x="247" y="-10" type="curve" smooth="yes"/>
      <point x="373" y="-10"/>
      <point x="490" y="60"/>
      <point x="490" y="250" type="curve" smooth="yes"/>
      <point x="490" y="440"/>
      <point x="373" y="510"/>
      <point x="247" y="510" type="curve" smooth="yes"/>
      <point x="221" y="510"/>
      <point x="195" y="507"/>
      <point x="170" y="502" type="curve"/>
      <point x="170" y="725" type="line" smooth="yes"/>
      <point x="170" y="741"/>
      <point x="161" y="750"/>
      <point x="145" y="750" type="curve" smooth="yes"/>
      <point x="110" y="750" type="line" smooth="yes"/>
      <point x="94" y="750"/>
      <point x="85" y="741"/>
      <point x="85" y="725" type="curve" smooth="yes"/>
      <point x="85" y="40" type="line" smooth="yes"/>
    </contour>
    <contour>
      <point x="192" y="433"/>
      <point x="215" y="436"/>
      <point x="237" y="436" type="curve" smooth="yes"/>
      <point x="325" y="436"/>
      <point x="404" y="395"/>
      <point x="404" y="250" type="curve" smooth="yes"/>
      <point x="404" y="114"/>
      <point x="336" y="68"/>
      <point x="247" y="68" type="curve" smooth="yes"/>
      <point x="220" y="68"/>
      <point x="196" y="71"/>
      <point x="170" y="77" type="curve"/>
      <point x="170" y="429" type="line"/>
    </contour>
  </outline>
</glyph>
<glyph name="c" format="2">
	<advance width="575"/>
	<unicode hex="0063"/>
	<anchor x="288" y="0" name="bottom"/>
	<anchor x="288" y="540" name="top"/>
	<outline>
		<contour>
			<point x="481" y="423" type="curve" smooth="yes"/>
			<point x="491" y="447" type="line" smooth="yes"/>
			<point x="497" y="462"/>
			<point x="493" y="474"/>
			<point x="478" y="480" type="curve" smooth="yes"/>
			<point x="431" y="500"/>
			<point x="379" y="510"/>
			<point x="328" y="510" type="curve" smooth="yes"/>
			<point x="202" y="510"/>
			<point x="85" y="440"/>
			<point x="85" y="250" type="curve" smooth="yes"/>
			<point x="85" y="60"/>
			<point x="202" y="-10"/>
			<point x="328" y="-10" type="curve" smooth="yes"/>
			<point x="379" y="-10"/>
			<point x="431" y="0"/>
			<point x="478" y="20" type="curve" smooth="yes"/>
			<point x="493" y="26"/>
			<point x="497" y="38"/>
			<point x="491" y="53" type="curve" smooth="yes"/>
			<point x="481" y="77" type="line" smooth="yes"/>
			<point x="475" y="92"/>
			<point x="464" y="97"/>
			<point x="449" y="91" type="curve"/>
			<point x="404" y="75"/>
			<point x="369" y="68"/>
			<point x="328" y="68" type="curve" smooth="yes"/>
			<point x="239" y="68"/>
			<point x="171" y="114"/>
			<point x="171" y="250" type="curve" smooth="yes"/>
			<point x="171" y="386"/>
			<point x="239" y="432"/>
			<point x="328" y="432" type="curve" smooth="yes"/>
			<point x="369" y="432"/>
			<point x="405" y="425"/>
			<point x="449" y="409" type="curve" smooth="yes"/>
			<point x="464" y="403"/>
			<point x="475" y="408"/>
		</contour>
	</outline>
</glyph>
<glyph name="d" format="2">
	<advance width="575"/>
	<unicode hex="0064"/>
	<anchor x="288" y="250" name="center"/>
	<anchor x="409" y="520" name="top"/>
	<anchor x="565" y="500" name="topright"/>
	<outline>
		<contour>
			<point x="490" y="40" type="curve" smooth="yes"/>
			<point x="490" y="725" type="line" smooth="yes"/>
			<point x="490" y="741"/>
			<point x="481" y="750"/>
			<point x="465" y="750" type="curve" smooth="yes"/>
			<point x="430" y="750" type="line" smooth="yes"/>
			<point x="414" y="750"/>
			<point x="405" y="741"/>
			<point x="405" y="725" type="curve" smooth="yes"/>
			<point x="405" y="502" type="line"/>
			<point x="380" y="507"/>
			<point x="354" y="510"/>
			<point x="328" y="510" type="curve" smooth="yes"/>
			<point x="202" y="510"/>
			<point x="85" y="440"/>
			<point x="85" y="250" type="curve" smooth="yes"/>
			<point x="85" y="60"/>
			<point x="202" y="-10"/>
			<point x="328" y="-10" type="curve" smooth="yes"/>
			<point x="379" y="-10"/>
			<point x="430" y="0"/>
			<point x="477" y="19" type="curve"/>
			<point x="485" y="23"/>
			<point x="490" y="31"/>
		</contour>
		<contour>
			<point x="405" y="429" type="curve"/>
			<point x="405" y="77" type="line"/>
			<point x="379" y="71"/>
			<point x="355" y="68"/>
			<point x="328" y="68" type="curve" smooth="yes"/>
			<point x="239" y="68"/>
			<point x="171" y="114"/>
			<point x="171" y="250" type="curve" smooth="yes"/>
			<point x="171" y="395"/>
			<point x="250" y="436"/>
			<point x="338" y="436" type="curve" smooth="yes"/>
			<point x="360" y="436"/>
			<point x="383" y="433"/>
		</contour>
	</outline>
</glyph>
<glyph name="e" format="1">
  <advance width="575"/>
  <unicode hex="0065"/>
  <outline>
    <contour>
      <point x="481" y="77" type="line" smooth="yes"/>
      <point x="475" y="92"/>
      <point x="464" y="97"/>
      <point x="449" y="91" type="curve"/>
      <point x="404" y="75"/>
      <point x="365" y="68"/>
      <point x="332" y="68" type="curve" smooth="yes"/>
      <point x="252" y="68"/>
      <point x="175" y="111"/>
      <point x="171" y="237" type="curve"/>
      <point x="465" y="237" type="line" smooth="yes"/>
      <point x="481" y="237"/>
      <point x="490" y="246"/>
      <point x="490" y="262" type="curve" smooth="yes"/>
      <point x="490" y="285" type="line" smooth="yes"/>
      <point x="490" y="431"/>
      <point x="393" y="510"/>
      <point x="292" y="510" type="curve" smooth="yes"/>
      <point x="181" y="510"/>
      <point x="85" y="418"/>
      <point x="85" y="250" type="curve" smooth="yes"/>
      <point x="85" y="60"/>
      <point x="202" y="-10"/>
      <point x="328" y="-10" type="curve" smooth="yes"/>
      <point x="379" y="-10"/>
      <point x="431" y="0"/>
      <point x="478" y="20" type="curve" smooth="yes"/>
      <point x="493" y="26"/>
      <point x="497" y="38"/>
      <point x="491" y="53" type="curve" smooth="yes"/>
    </contour>
    <contour>
      <point x="345" y="434"/>
      <point x="404" y="394"/>
      <point x="405" y="314" type="curve"/>
      <point x="178" y="314" type="line"/>
      <point x="185" y="392"/>
      <point x="240" y="434"/>
      <point x="293" y="434" type="curve" smooth="yes"/>
    </contour>
    <contour>
      <point x="518" y="5" type="move" name="ogonek"/>
    </contour>
    <contour>
      <point x="288" y="0" type="move" name="bottom"/>
    </contour>
    <contour>
      <point x="288" y="550" type="move" name="top"/>
    </contour>
  </outline>
</glyph>
<glyph name="f" format="2">
	<advance width="575"/>
	<unicode hex="0066"/>
	<anchor x="520" y="266" name="bottom"/>
	<outline>
		<contour>
			<point x="486" y="685" type="curve"/>
			<point x="497" y="711" type="line" smooth="yes"/>
			<point x="503" y="726"/>
			<point x="499" y="738"/>
			<point x="483" y="743" type="curve"/>
			<point x="450" y="755"/>
			<point x="413" y="763"/>
			<point x="378" y="763" type="curve" smooth="yes"/>
			<point x="283" y="763"/>
			<point x="196" y="710"/>
			<point x="196" y="549" type="curve" smooth="yes"/>
			<point x="196" y="500" type="line"/>
			<point x="100" y="500" type="line" smooth="yes"/>
			<point x="84" y="500"/>
			<point x="75" y="491"/>
			<point x="75" y="475" type="curve" smooth="yes"/>
			<point x="75" y="449" type="line" smooth="yes"/>
			<point x="75" y="432"/>
			<point x="84" y="424"/>
			<point x="100" y="424" type="curve" smooth="yes"/>
			<point x="196" y="424" type="line"/>
			<point x="196" y="25" type="line" smooth="yes"/>
			<point x="196" y="9"/>
			<point x="204" y="0"/>
			<point x="221" y="0" type="curve" smooth="yes"/>
			<point x="256" y="0" type="line" smooth="yes"/>
			<point x="272" y="0"/>
			<point x="281" y="9"/>
			<point x="281" y="25" type="curve" smooth="yes"/>
			<point x="281" y="424" type="line"/>
			<point x="445" y="424" type="line" smooth="yes"/>
			<point x="461" y="424"/>
			<point x="470" y="433"/>
			<point x="470" y="449" type="curve" smooth="yes"/>
			<point x="470" y="475" type="line" smooth="yes"/>
			<point x="470" y="491"/>
			<point x="461" y="500"/>
			<point x="445" y="500" type="curve" smooth="yes"/>
			<point x="282" y="500" type="line"/>
			<point x="282" y="549" type="line" smooth="yes"/>
			<point x="282" y="657"/>
			<point x="320" y="685"/>
			<point x="378" y="685" type="curve" smooth="yes"/>
			<point x="403" y="685"/>
			<point x="426" y="681"/>
			<point x="453" y="671" type="curve" smooth="yes"/>
			<point x="468" y="665"/>
			<point x="479" y="670"/>
		</contour>
	</outline>
</glyph>
<glyph name="g" format="1">
  <advance width="575"/>
  <unicode hex="0067"/>
  <outline>
    <contour>
      <point x="212" y="61"/>
      <point x="172" y="73"/>
      <point x="172" y="108" type="curve" smooth="yes"/>
      <point x="172" y="128"/>
      <point x="186" y="150"/>
      <point x="214" y="163" type="curve"/>
      <point x="237" y="156"/>
      <point x="262" y="152"/>
      <point x="288" y="152" type="curve" smooth="yes"/>
      <point x="408" y="152"/>
      <point x="489" y="229"/>
      <point x="489" y="331" type="curve" smooth="yes"/>
      <point x="489" y="370"/>
      <point x="477" y="405"/>
      <point x="456" y="434" type="curve"/>
      <point x="510" y="434" type="line" smooth="yes"/>
      <point x="526" y="434"/>
      <point x="535" y="443"/>
      <point x="535" y="459" type="curve" smooth="yes"/>
      <point x="535" y="475" type="line" smooth="yes"/>
      <point x="535" y="492"/>
      <point x="526" y="500"/>
      <point x="510" y="500" type="curve" smooth="yes"/>
      <point x="359" y="500" type="line"/>
      <point x="337" y="506"/>
      <point x="314" y="510"/>
      <point x="288" y="510" type="curve" smooth="yes"/>
      <point x="168" y="510"/>
      <point x="86" y="433"/>
      <point x="87" y="331" type="curve" smooth="yes"/>
      <point x="86" y="273"/>
      <point x="114" y="223"/>
      <point x="159" y="191" type="curve"/>
      <point x="118" y="173"/>
      <point x="87" y="131"/>
      <point x="87" y="89" type="curve" smooth="yes"/>
      <point x="87" y="53"/>
      <point x="100" y="28"/>
      <point x="131" y="11" type="curve"/>
      <point x="84" y="-14"/>
      <point x="51" y="-63"/>
      <point x="51" y="-113" type="curve" smooth="yes"/>
      <point x="51" y="-199"/>
      <point x="146" y="-248"/>
      <point x="320" y="-248" type="curve" smooth="yes"/>
      <point x="484" y="-248"/>
      <point x="574" y="-182"/>
      <point x="575" y="-87" type="curve" smooth="yes"/>
      <point x="575" y="4"/>
      <point x="487" y="61"/>
      <point x="320" y="61" type="curve" smooth="yes"/>
    </contour>
    <contour>
      <point x="354" y="434"/>
      <point x="404" y="390"/>
      <point x="404" y="331" type="curve" smooth="yes"/>
      <point x="404" y="273"/>
      <point x="354" y="229"/>
      <point x="288" y="229" type="curve" smooth="yes"/>
      <point x="222" y="229"/>
      <point x="172" y="273"/>
      <point x="172" y="331" type="curve" smooth="yes"/>
      <point x="172" y="390"/>
      <point x="222" y="434"/>
      <point x="288" y="434" type="curve" smooth="yes"/>
    </contour>
    <contour>
      <point x="196" y="-171"/>
      <point x="132" y="-142"/>
      <point x="130" y="-88" type="curve"/>
      <point x="130" y="-56"/>
      <point x="153" y="-25"/>
      <point x="195" y="-9" type="curve"/>
      <point x="225" y="-14"/>
      <point x="263" y="-16"/>
      <point x="310" y="-16" type="curve" smooth="yes"/>
      <point x="431" y="-16"/>
      <point x="489" y="-44"/>
      <point x="490" y="-87" type="curve" smooth="yes"/>
      <point x="490" y="-133"/>
      <point x="427" y="-171"/>
      <point x="310" y="-171" type="curve" smooth="yes"/>
    </contour>
    <contour>
      <point x="289" y="550" type="move" name="top"/>
    </contour>
  </outline>
</glyph>
<glyph name="h" format="1">
  <advance width="575"/>
  <unicode hex="0068"/>
  <outline>
    <contour>
      <point x="170" y="725" type="line" smooth="yes"/>
      <point x="170" y="741"/>
      <point x="161" y="750"/>
      <point x="145" y="750" type="curve" smooth="yes"/>
      <point x="110" y="751" type="line" smooth="yes"/>
      <point x="94" y="751"/>
      <point x="85" y="742"/>
      <point x="85" y="726" type="curve" smooth="yes"/>
      <point x="85" y="25" type="line" smooth="yes"/>
      <point x="85" y="9"/>
      <point x="94" y="0"/>
      <point x="110" y="0" type="curve" smooth="yes"/>
      <point x="145" y="0" type="line" smooth="yes"/>
      <point x="162" y="0"/>
      <point x="170" y="9"/>
      <point x="170" y="25" type="curve" smooth="yes"/>
      <point x="170" y="429" type="line"/>
      <point x="215" y="433"/>
      <point x="254" y="434"/>
      <point x="278" y="434" type="curve" smooth="yes"/>
      <point x="369" y="434"/>
      <point x="405" y="402"/>
      <point x="405" y="308" type="curve" smooth="yes"/>
      <point x="405" y="25" type="line" smooth="yes"/>
      <point x="405" y="9"/>
      <point x="414" y="0"/>
      <point x="430" y="0" type="curve" smooth="yes"/>
      <point x="465" y="0" type="line" smooth="yes"/>
      <point x="482" y="0"/>
      <point x="490" y="9"/>
      <point x="490" y="25" type="curve" smooth="yes"/>
      <point x="490" y="308" type="line" smooth="yes"/>
      <point x="490" y="454"/>
      <point x="426" y="510"/>
      <point x="278" y="510" type="curve" smooth="yes"/>
      <point x="255" y="510"/>
      <point x="216" y="509"/>
      <point x="170" y="505" type="curve"/>
    </contour>
    <contour>
      <point x="288" y="250" type="move" name="center"/>
    </contour>
    <contour>
      <point x="388" y="620" type="move" name="top"/>
    </contour>
  </outline>
</glyph>
<glyph name="i" format="1">
  <advance width="575"/>
  <unicode hex="0069"/>
  <outline>
    <contour>
      <point x="240" y="760" type="line" smooth="yes"/>
      <point x="224" y="760"/>
      <point x="215" y="751"/>
      <point x="215" y="735" type="curve" smooth="yes"/>
      <point x="215" y="669" type="line" smooth="yes"/>
      <point x="215" y="653"/>
      <point x="224" y="644"/>
      <point x="240" y="644" type="curve" smooth="yes"/>
      <point x="305" y="644" type="line" smooth="yes"/>
      <point x="322" y="644"/>
      <point x="330" y="653"/>
      <point x="330" y="669" type="curve" smooth="yes"/>
      <point x="330" y="735" type="line" smooth="yes"/>
      <point x="330" y="752"/>
      <point x="321" y="760"/>
      <point x="305" y="760" type="curve" smooth="yes"/>
    </contour>
    <component base="dotlessi"/>
  </outline>
</glyph>
<glyph name="j" format="2">
	<advance width="575"/>
	<unicode hex="006A"/>
	<anchor x="587" y="50" name="bottom"/>
	<outline>
		<contour>
			<point x="465" y="760" type="curve" smooth="yes"/>
			<point x="400" y="760" type="line" smooth="yes"/>
			<point x="384" y="760"/>
			<point x="375" y="751"/>
			<point x="375" y="735" type="curve" smooth="yes"/>
			<point x="375" y="669" type="line" smooth="yes"/>
			<point x="375" y="653"/>
			<point x="384" y="644"/>
			<point x="400" y="644" type="curve" smooth="yes"/>
			<point x="465" y="644" type="line" smooth="yes"/>
			<point x="482" y="644"/>
			<point x="490" y="653"/>
			<point x="490" y="669" type="curve" smooth="yes"/>
			<point x="490" y="735" type="line" smooth="yes"/>
			<point x="490" y="752"/>
			<point x="481" y="760"/>
		</contour>
		<contour>
			<point x="465" y="500" type="curve" smooth="yes"/>
			<point x="125" y="500" type="line" smooth="yes"/>
			<point x="109" y="500"/>
			<point x="100" y="491"/>
			<point x="100" y="475" type="curve" smooth="yes"/>
			<point x="100" y="447" type="line" smooth="yes"/>
			<point x="100" y="431"/>
			<point x="109" y="422"/>
			<point x="125" y="422" type="curve" smooth="yes"/>
			<point x="404" y="422" type="line"/>
			<point x="404" y="120" type="line" smooth="yes"/>
			<point x="404" y="-36"/>
			<point x="336" y="-82"/>
			<point x="247" y="-82" type="curve" smooth="yes"/>
			<point x="206" y="-82"/>
			<point x="170" y="-75"/>
			<point x="126" y="-59" type="curve" smooth="yes"/>
			<point x="111" y="-53"/>
			<point x="100" y="-58"/>
			<point x="94" y="-73" type="curve" smooth="yes"/>
			<point x="84" y="-97" type="line" smooth="yes"/>
			<point x="78" y="-112"/>
			<point x="82" y="-124"/>
			<point x="97" y="-130" type="curve" smooth="yes"/>
			<point x="144" y="-150"/>
			<point x="196" y="-160"/>
			<point x="247" y="-160" type="curve" smooth="yes"/>
			<point x="373" y="-160"/>
			<point x="490" y="-90"/>
			<point x="490" y="120" type="curve" smooth="yes"/>
			<point x="490" y="475" type="line" smooth="yes"/>
			<point x="490" y="491"/>
			<point x="481" y="500"/>
		</contour>
	</outline>
</glyph>
<glyph name="k" format="2">
	<advance width="575"/>
	<unicode hex="006B"/>
	<anchor x="288" y="0" name="bottom"/>
	<anchor x="288" y="550" name="top"/>
	<outline>
		<contour>
			<point x="514" y="46" type="curve" smooth="yes"/>
			<point x="322" y="231" type="line" smooth="yes"/>
			<point x="308" y="244"/>
			<point x="298" y="252"/>
			<point x="282" y="259" type="curve"/>
			<point x="298" y="267"/>
			<point x="308" y="275"/>
			<point x="322" y="288" type="curve" smooth="yes"/>
			<point x="494" y="454" type="line" smooth="yes"/>
			<point x="516" y="475"/>
			<point x="506" y="500"/>
			<point x="474" y="500" type="curve" smooth="yes"/>
			<point x="416" y="500" type="line" smooth="yes"/>
			<point x="400" y="500"/>
			<point x="389" y="495"/>
			<point x="378" y="484" type="curve" smooth="yes"/>
			<point x="198" y="311" type="line" smooth="yes"/>
			<point x="190" y="304"/>
			<point x="184" y="299"/>
			<point x="180" y="296" type="curve"/>
			<point x="180" y="717" type="line" smooth="yes"/>
			<point x="180" y="737"/>
			<point x="166" y="750"/>
			<point x="145" y="750" type="curve" smooth="yes"/>
			<point x="110" y="750" type="line" smooth="yes"/>
			<point x="89" y="750"/>
			<point x="75" y="737"/>
			<point x="75" y="717" type="curve" smooth="yes"/>
			<point x="75" y="33" type="line" smooth="yes"/>
			<point x="75" y="13"/>
			<point x="89" y="0"/>
			<point x="110" y="0" type="curve" smooth="yes"/>
			<point x="145" y="0" type="line" smooth="yes"/>
			<point x="166" y="0"/>
			<point x="180" y="13"/>
			<point x="180" y="33" type="curve" smooth="yes"/>
			<point x="180" y="224" type="line"/>
			<point x="184" y="222"/>
			<point x="189" y="216"/>
			<point x="198" y="208" type="curve" smooth="yes"/>
			<point x="398" y="15" type="line" smooth="yes"/>
			<point x="409" y="5"/>
			<point x="420" y="0"/>
			<point x="436" y="0" type="curve" smooth="yes"/>
			<point x="494" y="0" type="line" smooth="yes"/>
			<point x="526" y="0"/>
			<point x="536" y="25"/>
		</contour>
	</outline>
</glyph>
<glyph name="l" format="2">
	<advance width="575"/>
	<unicode hex="006C"/>
	<anchor x="288" y="0" name="bottom"/>
	<anchor x="328" y="699" name="top"/>
	<anchor x="565" y="500" name="topright"/>
	<outline>
		<contour>
			<point x="494" y="31" type="curve"/>
			<point x="486" y="57" type="line"/>
			<point x="480" y="72"/>
			<point x="470" y="77"/>
			<point x="454" y="74" type="curve"/>
			<point x="429" y="68"/>
			<point x="405" y="67"/>
			<point x="389" y="67" type="curve" smooth="yes"/>
			<point x="329" y="68"/>
			<point x="310" y="91"/>
			<point x="310" y="150" type="curve" smooth="yes"/>
			<point x="310" y="725" type="line" smooth="yes"/>
			<point x="310" y="742"/>
			<point x="301" y="750"/>
			<point x="285" y="750" type="curve" smooth="yes"/>
			<point x="113" y="750" type="line" smooth="yes"/>
			<point x="97" y="750"/>
			<point x="88" y="742"/>
			<point x="88" y="725" type="curve" smooth="yes"/>
			<point x="88" y="699" type="line" smooth="yes"/>
			<point x="88" y="683"/>
			<point x="97" y="674"/>
			<point x="113" y="674" type="curve" smooth="yes"/>
			<point x="225" y="674" type="line"/>
			<point x="225" y="150" type="line" smooth="yes"/>
			<point x="225" y="40"/>
			<point x="275" y="-10"/>
			<point x="389" y="-10" type="curve" smooth="yes"/>
			<point x="409" y="-10"/>
			<point x="440" y="-9"/>
			<point x="477" y="0" type="curve" smooth="yes"/>
			<point x="494" y="4"/>
			<point x="500" y="16"/>
		</contour>
	</outline>
</glyph>
<glyph name="m" format="1">
  <advance width="575"/>
  <unicode hex="006D"/>
  <outline>
    <contour>
      <point x="359" y="508"/>
      <point x="323" y="503"/>
      <point x="284" y="484" type="curve"/>
      <point x="261" y="501"/>
      <point x="229" y="508"/>
      <point x="189" y="508" type="curve" smooth="yes"/>
      <point x="156" y="508"/>
      <point x="118" y="503"/>
      <point x="74" y="495" type="curve" smooth="yes"/>
      <point x="59" y="492"/>
      <point x="51" y="483"/>
      <point x="51" y="468" type="curve" smooth="yes"/>
      <point x="51" y="25" type="line" smooth="yes"/>
      <point x="51" y="9"/>
      <point x="60" y="0"/>
      <point x="76" y="0" type="curve" smooth="yes"/>
      <point x="111" y="0" type="line" smooth="yes"/>
      <point x="128" y="0"/>
      <point x="136" y="9"/>
      <point x="136" y="25" type="curve" smooth="yes"/>
      <point x="136" y="430" type="line"/>
      <point x="154" y="432"/>
      <point x="166" y="432"/>
      <point x="170" y="432" type="curve" smooth="yes"/>
      <point x="224" y="432"/>
      <point x="245" y="411"/>
      <point x="245" y="350" type="curve" smooth="yes"/>
      <point x="245" y="25" type="line" smooth="yes"/>
      <point x="245" y="9"/>
      <point x="254" y="0"/>
      <point x="270" y="0" type="curve" smooth="yes"/>
      <point x="305" y="0" type="line" smooth="yes"/>
      <point x="322" y="0"/>
      <point x="330" y="9"/>
      <point x="330" y="25" type="curve" smooth="yes"/>
      <point x="330" y="350" type="line" smooth="yes"/>
      <point x="330" y="376"/>
      <point x="329" y="402"/>
      <point x="320" y="429" type="curve"/>
      <point x="344" y="432"/>
      <point x="359" y="432"/>
      <point x="364" y="432" type="curve" smooth="yes"/>
      <point x="418" y="432"/>
      <point x="439" y="411"/>
      <point x="439" y="350" type="curve" smooth="yes"/>
      <point x="439" y="25" type="line" smooth="yes"/>
      <point x="439" y="9"/>
      <point x="448" y="0"/>
      <point x="464" y="0" type="curve" smooth="yes"/>
      <point x="499" y="0" type="line" smooth="yes"/>
      <point x="515" y="0"/>
      <point x="524" y="9"/>
      <point x="524" y="25" type="curve" smooth="yes"/>
      <point x="524" y="352" type="line" smooth="yes"/>
      <point x="524" y="467"/>
      <point x="479" y="508"/>
      <point x="388" y="508" type="curve" smooth="yes"/>
    </contour>
    <contour>
      <point x="288" y="550" type="move" name="top"/>
    </contour>
    <contour>
      <point x="288" y="0" type="move" name="bottom"/>
    </contour>
  </outline>
</glyph>
<glyph name="o" format="1">
  <advance width="575"/>
  <unicode hex="006F"/>
  <outline>
    <contour>
      <point x="181" y="512"/>
      <point x="85" y="430"/>
      <point x="85" y="250" type="curve" smooth="yes"/>
      <point x="85" y="70"/>
      <point x="181" y="-12"/>
      <point x="291" y="-12" type="curve" smooth="yes"/>
      <point x="401" y="-12"/>
      <point x="490" y="70"/>
      <point x="490" y="250" type="curve" smooth="yes"/>
      <point x="490" y="430"/>
      <point x="401" y="512"/>
      <point x="291" y="512" type="curve" smooth="yes"/>
    </contour>
    <contour>
      <point x="218" y="65"/>
      <point x="170" y="132"/>
      <point x="170" y="250" type="curve" smooth="yes"/>
      <point x="170" y="368"/>
      <point x="218" y="435"/>
      <point x="288" y="435" type="curve" smooth="yes"/>
      <point x="358" y="435"/>
      <point x="405" y="368"/>
      <point x="405" y="250" type="curve" smooth="yes"/>
      <point x="405" y="132"/>
      <point x="358" y="65"/>
      <point x="288" y="65" type="curve" smooth="yes"/>
    </contour>
    <contour>
      <point x="288" y="550" type="move" name="top"/>
    </contour>
  </outline>
</glyph>
<glyph name="p" format="1">
  <advance width="575"/>
  <unicode hex="0070"/>
  <outline>
    <contour>
      <point x="85" y="-225" type="line" smooth="yes"/>
      <point x="85" y="-241"/>
      <point x="94" y="-250"/>
      <point x="110" y="-250" type="curve" smooth="yes"/>
      <point x="145" y="-250" type="line" smooth="yes"/>
      <point x="161" y="-250"/>
      <point x="170" y="-241"/>
      <point x="170" y="-225" type="curve" smooth="yes"/>
      <point x="170" y="-2" type="line"/>
      <point x="195" y="-7"/>
      <point x="221" y="-10"/>
      <point x="247" y="-10" type="curve" smooth="yes"/>
      <point x="373" y="-10"/>
      <point x="490" y="60"/>
      <point x="490" y="250" type="curve" smooth="yes"/>
      <point x="490" y="440"/>
      <point x="373" y="510"/>
      <point x="247" y="510" type="curve" smooth="yes"/>
      <point x="196" y="510"/>
      <point x="145" y="500"/>
      <point x="98" y="481" type="curve"/>
      <point x="90" y="477"/>
      <point x="85" y="469"/>
      <point x="85" y="460" type="curve" smooth="yes"/>
    </contour>
    <contour>
      <point x="170" y="423" type="line"/>
      <point x="196" y="429"/>
      <point x="220" y="432"/>
      <point x="247" y="432" type="curve" smooth="yes"/>
      <point x="336" y="432"/>
      <point x="404" y="386"/>
      <point x="404" y="250" type="curve" smooth="yes"/>
      <point x="404" y="105"/>
      <point x="325" y="64"/>
      <point x="237" y="64" type="curve" smooth="yes"/>
      <point x="215" y="64"/>
      <point x="192" y="67"/>
      <point x="170" y="71" type="curve"/>
    </contour>
    <contour>
      <point x="288" y="550" type="move" name="top"/>
    </contour>
    <contour>
      <point x="288" y="0" type="move" name="bottom"/>
    </contour>
  </outline>
</glyph>
<glyph name="q" format="2">
	<advance width="575"/>
	<unicode hex="0071"/>
	<anchor x="288" y="0" name="bottom"/>
	<anchor x="288" y="500" name="top"/>
	<outline>
		<contour>
			<point x="490" y="-225" type="curve" smooth="yes"/>
			<point x="490" y="460" type="line"/>
			<point x="490" y="469"/>
			<point x="485" y="477"/>
			<point x="477" y="481" type="curve"/>
			<point x="430" y="500"/>
			<point x="379" y="510"/>
			<point x="328" y="510" type="curve" smooth="yes"/>
			<point x="202" y="510"/>
			<point x="85" y="440"/>
			<point x="85" y="250" type="curve" smooth="yes"/>
			<point x="85" y="60"/>
			<point x="202" y="-10"/>
			<point x="328" y="-10" type="curve" smooth="yes"/>
			<point x="354" y="-10"/>
			<point x="380" y="-7"/>
			<point x="405" y="-2" type="curve"/>
			<point x="405" y="-225" type="line" smooth="yes"/>
			<point x="405" y="-241"/>
			<point x="414" y="-250"/>
			<point x="430" y="-250" type="curve" smooth="yes"/>
			<point x="465" y="-250" type="line" smooth="yes"/>
			<point x="481" y="-250"/>
			<point x="490" y="-241"/>
		</contour>
		<contour>
			<point x="405" y="423" type="curve"/>
			<point x="405" y="71" type="line"/>
			<point x="383" y="67"/>
			<point x="360" y="64"/>
			<point x="338" y="64" type="curve" smooth="yes"/>
			<point x="250" y="64"/>
			<point x="171" y="105"/>
			<point x="171" y="250" type="curve" smooth="yes"/>
			<point x="171" y="386"/>
			<point x="239" y="432"/>
			<point x="328" y="432" type="curve" smooth="yes"/>
			<point x="355" y="432"/>
			<point x="379" y="429"/>
		</contour>
	</outline>
</glyph>
<glyph name="r" format="1">
  <advance width="575"/>
  <unicode hex="0072"/>
  <outline>
    <contour>
      <point x="85" y="25" type="line" smooth="yes"/>
      <point x="85" y="9"/>
      <point x="94" y="0"/>
      <point x="110" y="0" type="curve" smooth="yes"/>
      <point x="145" y="0" type="line" smooth="yes"/>
      <point x="162" y="0"/>
      <point x="170" y="9"/>
      <point x="170" y="25" type="curve" smooth="yes"/>
      <point x="170" y="430" type="line"/>
      <point x="215" y="433"/>
      <point x="254" y="434"/>
      <point x="278" y="434" type="curve" smooth="yes"/>
      <point x="370" y="434"/>
      <point x="405" y="411"/>
      <point x="405" y="348" type="curve" smooth="yes"/>
      <point x="405" y="332"/>
      <point x="414" y="323"/>
      <point x="430" y="323" type="curve" smooth="yes"/>
      <point x="465" y="323" type="line" smooth="yes"/>
      <point x="482" y="323"/>
      <point x="490" y="331"/>
      <point x="490" y="348" type="curve" smooth="yes"/>
      <point x="490" y="467"/>
      <point x="433" y="510"/>
      <point x="278" y="510" type="curve" smooth="yes"/>
      <point x="245" y="510"/>
      <point x="181" y="509"/>
      <point x="108" y="498" type="curve"/>
      <point x="93" y="495"/>
      <point x="85" y="486"/>
      <point x="85" y="471" type="curve" smooth="yes"/>
    </contour>
    <contour>
      <point x="288" y="550" type="move" name="top"/>
    </contour>
    <contour>
      <point x="288" y="0" type="move" name="bottom"/>
    </contour>
  </outline>
</glyph>
<glyph name="s" format="2">
	<advance width="575"/>
	<unicode hex="0073"/>
	<anchor x="288" y="0" name="bottom"/>
	<anchor x="288" y="550" name="top"/>
	<outline>
		<contour>
			<point x="429" y="443" type="curve" smooth="yes"/>
			<point x="436" y="469" type="line" smooth="yes"/>
			<point x="440" y="485"/>
			<point x="433" y="496"/>
			<point x="417" y="499" type="curve" smooth="yes"/>
			<point x="369" y="508"/>
			<point x="325" y="510"/>
			<point x="299" y="510" type="curve" smooth="yes"/>
			<point x="174" y="510"/>
			<point x="106" y="449"/>
			<point x="106" y="371" type="curve" smooth="yes"/>
			<point x="106" y="296"/>
			<point x="169" y="233"/>
			<point x="283" y="222" type="curve" smooth="yes"/>
			<point x="359" y="215"/>
			<point x="385" y="179"/>
			<point x="384" y="144" type="curve" smooth="yes"/>
			<point x="383" y="100"/>
			<point x="340" y="67"/>
			<point x="259" y="67" type="curve" smooth="yes"/>
			<point x="236" y="67"/>
			<point x="191" y="68"/>
			<point x="139" y="77" type="curve"/>
			<point x="123" y="79"/>
			<point x="113" y="73"/>
			<point x="110" y="57" type="curve"/>
			<point x="104" y="31" type="line" smooth="yes"/>
			<point x="100" y="15"/>
			<point x="107" y="4"/>
			<point x="124" y="1" type="curve" smooth="yes"/>
			<point x="180" y="-8"/>
			<point x="227" y="-10"/>
			<point x="259" y="-10" type="curve" smooth="yes"/>
			<point x="395" y="-10"/>
			<point x="469" y="55"/>
			<point x="469" y="146" type="curve" smooth="yes"/>
			<point x="469" y="221"/>
			<point x="417" y="284"/>
			<point x="293" y="299" type="curve" smooth="yes"/>
			<point x="227" y="307"/>
			<point x="191" y="337"/>
			<point x="191" y="371" type="curve" smooth="yes"/>
			<point x="191" y="410"/>
			<point x="239" y="432"/>
			<point x="299" y="434" type="curve" smooth="yes"/>
			<point x="326" y="435"/>
			<point x="356" y="432"/>
			<point x="399" y="425" type="curve" smooth="yes"/>
			<point x="415" y="422"/>
			<point x="425" y="428"/>
		</contour>
	</outline>
</glyph>
<glyph name="t" format="1">
  <advance width="575"/>
  <unicode hex="0074"/>
  <outline>
    <contour>
      <point x="476" y="68" type="line"/>
      <point x="469" y="83"/>
      <point x="458" y="88"/>
      <point x="443" y="82" type="curve" smooth="yes"/>
      <point x="416" y="72"/>
      <point x="393" y="68"/>
      <point x="368" y="68" type="curve" smooth="yes"/>
      <point x="310" y="68"/>
      <point x="271" y="96"/>
      <point x="271" y="204" type="curve" smooth="yes"/>
      <point x="271" y="424" type="line"/>
      <point x="435" y="424" type="line" smooth="yes"/>
      <point x="451" y="424"/>
      <point x="460" y="433"/>
      <point x="460" y="449" type="curve" smooth="yes"/>
      <point x="460" y="475" type="line" smooth="yes"/>
      <point x="460" y="492"/>
      <point x="451" y="500"/>
      <point x="435" y="500" type="curve" smooth="yes"/>
      <point x="271" y="500" type="line"/>
      <point x="271" y="635" type="line" smooth="yes"/>
      <point x="271" y="651"/>
      <point x="262" y="660"/>
      <point x="246" y="660" type="curve" smooth="yes"/>
      <point x="211" y="660" type="line" smooth="yes"/>
      <point x="195" y="660"/>
      <point x="186" y="651"/>
      <point x="186" y="635" type="curve" smooth="yes"/>
      <point x="186" y="500" type="line"/>
      <point x="110" y="500" type="line" smooth="yes"/>
      <point x="94" y="500"/>
      <point x="85" y="492"/>
      <point x="85" y="475" type="curve" smooth="yes"/>
      <point x="85" y="449" type="line" smooth="yes"/>
      <point x="85" y="433"/>
      <point x="94" y="424"/>
      <point x="110" y="424" type="curve" smooth="yes"/>
      <point x="186" y="424" type="line"/>
      <point x="186" y="204" type="line" smooth="yes"/>
      <point x="186" y="43"/>
      <point x="273" y="-10"/>
      <point x="368" y="-10" type="curve" smooth="yes"/>
      <point x="403" y="-10"/>
      <point x="440" y="-2"/>
      <point x="473" y="10" type="curve"/>
      <point x="489" y="15"/>
      <point x="493" y="27"/>
      <point x="487" y="42" type="curve" smooth="yes"/>
    </contour>
    <contour>
      <point x="288" y="0" type="move" name="bottom"/>
    </contour>
    <contour>
      <point x="288" y="500" type="move" name="top"/>
    </contour>
    <contour>
      <point x="555" y="500" type="move" name="topright"/>
    </contour>
    <contour>
      <point x="288" y="300" type="move" name="center"/>
    </contour>
  </outline>
</glyph>
<glyph name="u" format="1">
  <advance width="575"/>
  <unicode hex="0075"/>
  <outline>
    <contour>
      <point x="490" y="475" type="line" smooth="yes"/>
      <point x="490" y="491"/>
      <point x="481" y="500"/>
      <point x="465" y="500" type="curve" smooth="yes"/>
      <point x="430" y="500" type="line" smooth="yes"/>
      <point x="413" y="500"/>
      <point x="405" y="491"/>
      <point x="405" y="475" type="curve" smooth="yes"/>
      <point x="405" y="70" type="line"/>
      <point x="360" y="67"/>
      <point x="321" y="66"/>
      <point x="297" y="66" type="curve" smooth="yes"/>
      <point x="206" y="66"/>
      <point x="170" y="98"/>
      <point x="170" y="192" type="curve" smooth="yes"/>
      <point x="170" y="475" type="line" smooth="yes"/>
      <point x="170" y="491"/>
      <point x="161" y="500"/>
      <point x="145" y="500" type="curve" smooth="yes"/>
      <point x="110" y="500" type="line" smooth="yes"/>
      <point x="93" y="500"/>
      <point x="85" y="491"/>
      <point x="85" y="475" type="curve" smooth="yes"/>
      <point x="85" y="192" type="line" smooth="yes"/>
      <point x="85" y="46"/>
      <point x="149" y="-10"/>
      <point x="297" y="-10" type="curve" smooth="yes"/>
      <point x="330" y="-10"/>
      <point x="394" y="-9"/>
      <point x="467" y="2" type="curve"/>
      <point x="482" y="5"/>
      <point x="490" y="14"/>
      <point x="490" y="29" type="curve" smooth="yes"/>
    </contour>
    <contour>
      <point x="518" y="5" type="move" name="ogonek"/>
    </contour>
    <contour>
      <point x="287" y="-50" type="move" name="bottom"/>
    </contour>
    <contour>
      <point x="288" y="550" type="move" name="top"/>
    </contour>
  </outline>
</glyph>
<glyph name="v" format="2">
	<advance width="575"/>
	<unicode hex="0076"/>
	<outline>
		<contour>
			<point x="424" y="478" type="curve" smooth="yes"/>
			<point x="327" y="93" type="line"/>
			<point x="323" y="75"/>
			<point x="305" y="66"/>
			<point x="288" y="66" type="curve" smooth="yes"/>
			<point x="271" y="66"/>
			<point x="253" y="75"/>
			<point x="249" y="93" type="curve" smooth="yes"/>
			<point x="152" y="478" type="line" smooth="yes"/>
			<point x="148" y="492"/>
			<point x="140" y="500"/>
			<point x="125" y="500" type="curve" smooth="yes"/>
			<point x="89" y="500" type="line" smooth="yes"/>
			<point x="72" y="500"/>
			<point x="63" y="490"/>
			<point x="67" y="472" type="curve" smooth="yes"/>
			<point x="165" y="79" type="line" smooth="yes"/>
			<point x="180" y="21"/>
			<point x="229" y="-10"/>
			<point x="288" y="-10" type="curve" smooth="yes"/>
			<point x="347" y="-10"/>
			<point x="396" y="21"/>
			<point x="410" y="79" type="curve" smooth="yes"/>
			<point x="508" y="472" type="line" smooth="yes"/>
			<point x="512" y="490"/>
			<point x="503" y="500"/>
			<point x="486" y="500" type="curve" smooth="yes"/>
			<point x="451" y="500" type="line" smooth="yes"/>
			<point x="436" y="500"/>
			<point x="428" y="492"/>
		</contour>
	</outline>
</glyph>
<glyph name="w" format="2">
	<advance width="575"/>
	<unicode hex="0077"/>
	<anchor x="288" y="550" name="top"/>
	<outline>
		<contour>
			<point x="525" y="20" type="curve"/>
			<point x="545" y="474" type="line"/>
			<point x="545" y="489"/>
			<point x="534" y="500"/>
			<point x="519" y="500" type="curve" smooth="yes"/>
			<point x="485" y="500" type="line" smooth="yes"/>
			<point x="470" y="500"/>
			<point x="461" y="489"/>
			<point x="460" y="474" type="curve" smooth="yes"/>
			<point x="442" y="160" type="line"/>
			<point x="331" y="382" type="line" smooth="yes"/>
			<point x="325" y="395"/>
			<point x="316" y="400"/>
			<point x="302" y="400" type="curve" smooth="yes"/>
			<point x="274" y="400" type="line" smooth="yes"/>
			<point x="260" y="400"/>
			<point x="251" y="395"/>
			<point x="245" y="382" type="curve" smooth="yes"/>
			<point x="134" y="160" type="line"/>
			<point x="116" y="474" type="line" smooth="yes"/>
			<point x="115" y="489"/>
			<point x="106" y="500"/>
			<point x="91" y="500" type="curve" smooth="yes"/>
			<point x="57" y="500" type="line" smooth="yes"/>
			<point x="42" y="500"/>
			<point x="30" y="489"/>
			<point x="31" y="474" type="curve" smooth="yes"/>
			<point x="51" y="20" type="line" smooth="yes"/>
			<point x="52" y="4"/>
			<point x="60" y="-5"/>
			<point x="78" y="-5" type="curve" smooth="yes"/>
			<point x="94" y="-5" type="line" smooth="yes"/>
			<point x="122" y="-5"/>
			<point x="141" y="6"/>
			<point x="153" y="31" type="curve" smooth="yes"/>
			<point x="288" y="301" type="line"/>
			<point x="423" y="31" type="line" smooth="yes"/>
			<point x="435" y="6"/>
			<point x="454" y="-5"/>
			<point x="482" y="-5" type="curve" smooth="yes"/>
			<point x="498" y="-5" type="line" smooth="yes"/>
			<point x="516" y="-5"/>
			<point x="525" y="4"/>
		</contour>
	</outline>
</glyph>
<glyph name="x" format="2">
	<advance width="575"/>
	<unicode hex="0078"/>
	<outline>
		<contour>
			<point x="393" y="290" type="curve" smooth="yes"/>
			<point x="480" y="471" type="line" smooth="yes"/>
			<point x="488" y="488"/>
			<point x="481" y="500"/>
			<point x="462" y="500" type="curve" smooth="yes"/>
			<point x="429" y="500" type="line" smooth="yes"/>
			<point x="415" y="500"/>
			<point x="405" y="495"/>
			<point x="399" y="482" type="curve" smooth="yes"/>
			<point x="318" y="319" type="line" smooth="yes"/>
			<point x="308" y="300"/>
			<point x="303" y="289"/>
			<point x="287" y="289" type="curve" smooth="yes"/>
			<point x="273" y="289"/>
			<point x="268" y="299"/>
			<point x="258" y="319" type="curve" smooth="yes"/>
			<point x="176" y="482" type="line" smooth="yes"/>
			<point x="170" y="495"/>
			<point x="161" y="500"/>
			<point x="147" y="500" type="curve" smooth="yes"/>
			<point x="114" y="500" type="line" smooth="yes"/>
			<point x="95" y="500"/>
			<point x="87" y="488"/>
			<point x="95" y="471" type="curve" smooth="yes"/>
			<point x="183" y="290" type="line"/>
			<point x="189" y="276"/>
			<point x="204" y="264"/>
			<point x="220" y="257" type="curve"/>
			<point x="204" y="251"/>
			<point x="189" y="238"/>
			<point x="183" y="225" type="curve" smooth="yes"/>
			<point x="89" y="30" type="line" smooth="yes"/>
			<point x="80" y="12"/>
			<point x="88" y="0"/>
			<point x="107" y="0" type="curve" smooth="yes"/>
			<point x="140" y="0" type="line" smooth="yes"/>
			<point x="154" y="0"/>
			<point x="163" y="6"/>
			<point x="169" y="18" type="curve" smooth="yes"/>
			<point x="258" y="195" type="line" smooth="yes"/>
			<point x="268" y="215"/>
			<point x="273" y="225"/>
			<point x="288" y="225" type="curve" smooth="yes"/>
			<point x="303" y="225"/>
			<point x="308" y="215"/>
			<point x="318" y="195" type="curve" smooth="yes"/>
			<point x="406" y="18" type="line" smooth="yes"/>
			<point x="412" y="6"/>
			<point x="422" y="0"/>
			<point x="436" y="0" type="curve" smooth="yes"/>
			<point x="468" y="0" type="line" smooth="yes"/>
			<point x="488" y="0"/>
			<point x="495" y="12"/>
			<point x="487" y="30" type="curve" smooth="yes"/>
			<point x="393" y="225" type="line"/>
			<point x="386" y="238"/>
			<point x="372" y="251"/>
			<point x="355" y="257" type="curve"/>
			<point x="372" y="264"/>
			<point x="386" y="276"/>
		</contour>
	</outline>
</glyph>
<glyph name="y" format="2">
	<advance width="575"/>
	<unicode hex="0079"/>
	<anchor x="288" y="0" name="bottom"/>
	<anchor x="288" y="540" name="top"/>
	<outline>
		<contour>
			<point x="487" y="500" type="curve" smooth="yes"/>
			<point x="451" y="500" type="line" smooth="yes"/>
			<point x="436" y="500"/>
			<point x="427" y="493"/>
			<point x="423" y="479" type="curve" smooth="yes"/>
			<point x="319" y="63" type="line"/>
			<point x="288" y="63" type="line" smooth="yes"/>
			<point x="267" y="63"/>
			<point x="253" y="74"/>
			<point x="249" y="93" type="curve"/>
			<point x="152" y="479" type="line"/>
			<point x="149" y="493"/>
			<point x="140" y="500"/>
			<point x="125" y="500" type="curve" smooth="yes"/>
			<point x="89" y="500" type="line" smooth="yes"/>
			<point x="71" y="500"/>
			<point x="63" y="490"/>
			<point x="67" y="472" type="curve" smooth="yes"/>
			<point x="165" y="80" type="line" smooth="yes"/>
			<point x="180" y="22"/>
			<point x="223" y="-10"/>
			<point x="288" y="-10" type="curve" smooth="yes"/>
			<point x="301" y="-10" type="line"/>
			<point x="273" y="-124"/>
			<point x="233" y="-171"/>
			<point x="164" y="-171" type="curve" smooth="yes"/>
			<point x="140" y="-171"/>
			<point x="99" y="-165"/>
			<point x="68" y="-154" type="curve"/>
			<point x="53" y="-148"/>
			<point x="41" y="-154"/>
			<point x="36" y="-169" type="curve" smooth="yes"/>
			<point x="27" y="-194" type="line" smooth="yes"/>
			<point x="22" y="-209"/>
			<point x="27" y="-220"/>
			<point x="42" y="-226" type="curve"/>
			<point x="87" y="-242"/>
			<point x="128" y="-250"/>
			<point x="164" y="-250" type="curve" smooth="yes"/>
			<point x="280" y="-250"/>
			<point x="343" y="-182"/>
			<point x="384" y="-20" type="curve" smooth="yes"/>
			<point x="508" y="472" type="line" smooth="yes"/>
			<point x="512" y="489"/>
			<point x="504" y="500"/>
		</contour>
	</outline>
</glyph>
<glyph name="z" format="1">
  <advance width="575"/>
  <unicode hex="007A"/>
  <outline>
    <contour>
      <point x="171" y="77" type="line"/>
      <point x="463" y="369" type="line" smooth="yes"/>
      <point x="481" y="387"/>
      <point x="489" y="406"/>
      <point x="489" y="431" type="curve" smooth="yes"/>
      <point x="489" y="475" type="line" smooth="yes"/>
      <point x="489" y="491"/>
      <point x="481" y="500"/>
      <point x="465" y="500" type="curve" smooth="yes"/>
      <point x="131" y="500" type="line" smooth="yes"/>
      <point x="115" y="500"/>
      <point x="106" y="492"/>
      <point x="106" y="475" type="curve" smooth="yes"/>
      <point x="106" y="449" type="line" smooth="yes"/>
      <point x="106" y="433"/>
      <point x="115" y="424"/>
      <point x="131" y="424" type="curve" smooth="yes"/>
      <point x="404" y="424" type="line"/>
      <point x="112" y="132" type="line" smooth="yes"/>
      <point x="94" y="114"/>
      <point x="86" y="95"/>
      <point x="86" y="70" type="curve" smooth="yes"/>
      <point x="86" y="25" type="line" smooth="yes"/>
      <point x="86" y="9"/>
      <point x="94" y="0"/>
      <point x="110" y="0" type="curve" smooth="yes"/>
      <point x="465" y="0" type="line" smooth="yes"/>
      <point x="482" y="0"/>
      <point x="490" y="9"/>
      <point x="490" y="25" type="curve" smooth="yes"/>
      <point x="490" y="52" type="line" smooth="yes"/>
      <point x="490" y="68"/>
      <point x="482" y="77"/>
      <point x="465" y="77" type="curve" smooth="yes"/>
    </contour>
    <contour>
      <point x="288" y="550" type="move" name="top"/>
    </contour>
    <contour>
      <point x="288" y="0" type="move" name="bottom"/>
    </contour>
  </outline>
</glyph>
<glyph name="braceleft" format="1">
  <advance width="575"/>
  <unicode hex="007B"/>
  <outline>
    <contour>
      <point x="330" y="585" type="line" smooth="yes"/>
      <point x="330" y="646"/>
      <point x="350" y="674"/>
      <point x="410" y="674" type="curve" smooth="yes"/>
      <point x="491" y="674" type="line" smooth="yes"/>
      <point x="507" y="674"/>
      <point x="516" y="682"/>
      <point x="516" y="699" type="curve" smooth="yes"/>
      <point x="516" y="725" type="line" smooth="yes"/>
      <point x="516" y="741"/>
      <point x="507" y="750"/>
      <point x="491" y="750" type="curve" smooth="yes"/>
      <point x="410" y="750" type="line" smooth="yes"/>
      <point x="294" y="750"/>
      <point x="245" y="704"/>
      <point x="245" y="585" type="curve" smooth="yes"/>
      <point x="245" y="409" type="line" smooth="yes"/>
      <point x="245" y="350"/>
      <point x="224" y="324"/>
      <point x="165" y="324" type="curve" smooth="yes"/>
      <point x="85" y="324" type="line" smooth="yes"/>
      <point x="69" y="324"/>
      <point x="60" y="316"/>
      <point x="60" y="299" type="curve" smooth="yes"/>
      <point x="60" y="273" type="line" smooth="yes"/>
      <point x="60" y="257"/>
      <point x="69" y="248"/>
      <point x="85" y="248" type="curve" smooth="yes"/>
      <point x="165" y="248" type="line" smooth="yes"/>
      <point x="224" y="248"/>
      <point x="245" y="223"/>
      <point x="245" y="164" type="curve" smooth="yes"/>
      <point x="245" y="-13" type="line" smooth="yes"/>
      <point x="245" y="-131"/>
      <point x="292" y="-178"/>
      <point x="410" y="-178" type="curve" smooth="yes"/>
      <point x="491" y="-178" type="line" smooth="yes"/>
      <point x="507" y="-178"/>
      <point x="516" y="-170"/>
      <point x="516" y="-153" type="curve" smooth="yes"/>
      <point x="516" y="-127" type="line" smooth="yes"/>
      <point x="516" y="-111"/>
      <point x="507" y="-102"/>
      <point x="491" y="-102" type="curve" smooth="yes"/>
      <point x="410" y="-102" type="line" smooth="yes"/>
      <point x="351" y="-102"/>
      <point x="330" y="-76"/>
      <point x="330" y="-13" type="curve" smooth="yes"/>
      <point x="330" y="164" type="line" smooth="yes"/>
      <point x="330" y="214"/>
      <point x="323" y="259"/>
      <point x="264" y="286" type="curve"/>
      <point x="322" y="314"/>
      <point x="330" y="355"/>
      <point x="330" y="409" type="curve" smooth="yes"/>
    </contour>
  </outline>
</glyph>
<glyph name="bar" format="2">
	<advance width="575"/>
	<unicode hex="007C"/>
	<outline>
		<contour>
			<point x="305" y="750" type="curve" smooth="yes"/>
			<point x="270" y="750" type="line" smooth="yes"/>
			<point x="254" y="750"/>
			<point x="245" y="741"/>
			<point x="245" y="725" type="curve" smooth="yes"/>
			<point x="245" y="-153" type="line" smooth="yes"/>
			<point x="245" y="-170"/>
			<point x="254" y="-178"/>
			<point x="270" y="-178" type="curve" smooth="yes"/>
			<point x="305" y="-178" type="line" smooth="yes"/>
			<point x="322" y="-178"/>
			<point x="330" y="-169"/>
			<point x="330" y="-153" type="curve" smooth="yes"/>
			<point x="330" y="725" type="line" smooth="yes"/>
			<point x="330" y="742"/>
			<point x="321" y="750"/>
		</contour>
	</outline>
</glyph>
<glyph name="braceright" format="1">
  <advance width="575"/>
  <unicode hex="007D"/>
  <outline>
    <contour>
      <point x="245" y="355"/>
      <point x="253" y="314"/>
      <point x="311" y="286" type="curve"/>
      <point x="252" y="259"/>
      <point x="245" y="214"/>
      <point x="245" y="164" type="curve" smooth="yes"/>
      <point x="245" y="-13" type="line" smooth="yes"/>
      <point x="245" y="-76"/>
      <point x="224" y="-102"/>
      <point x="165" y="-102" type="curve" smooth="yes"/>
      <point x="84" y="-102" type="line" smooth="yes"/>
      <point x="68" y="-102"/>
      <point x="59" y="-111"/>
      <point x="59" y="-127" type="curve" smooth="yes"/>
      <point x="59" y="-153" type="line" smooth="yes"/>
      <point x="59" y="-170"/>
      <point x="68" y="-178"/>
      <point x="84" y="-178" type="curve" smooth="yes"/>
      <point x="165" y="-178" type="line" smooth="yes"/>
      <point x="283" y="-178"/>
      <point x="330" y="-131"/>
      <point x="330" y="-13" type="curve" smooth="yes"/>
      <point x="330" y="164" type="line" smooth="yes"/>
      <point x="330" y="223"/>
      <point x="351" y="248"/>
      <point x="410" y="248" type="curve" smooth="yes"/>
      <point x="490" y="248" type="line" smooth="yes"/>
      <point x="506" y="248"/>
      <point x="515" y="257"/>
      <point x="515" y="273" type="curve" smooth="yes"/>
      <point x="515" y="299" type="line" smooth="yes"/>
      <point x="515" y="316"/>
      <point x="506" y="324"/>
      <point x="490" y="324" type="curve" smooth="yes"/>
      <point x="410" y="324" type="line" smooth="yes"/>
      <point x="351" y="324"/>
      <point x="330" y="350"/>
      <point x="330" y="409" type="curve" smooth="yes"/>
      <point x="330" y="585" type="line" smooth="yes"/>
      <point x="330" y="704"/>
      <point x="281" y="750"/>
      <point x="165" y="750" type="curve" smooth="yes"/>
      <point x="84" y="750" type="line" smooth="yes"/>
      <point x="68" y="750"/>
      <point x="59" y="741"/>
      <point x="59" y="725" type="curve" smooth="yes"/>
      <point x="59" y="699" type="line" smooth="yes"/>
      <point x="59" y="682"/>
      <point x="68" y="674"/>
      <point x="84" y="674" type="curve" smooth="yes"/>
      <point x="165" y="674" type="line" smooth="yes"/>
      <point x="225" y="674"/>
      <point x="245" y="646"/>
      <point x="245" y="585" type="curve" smooth="yes"/>
      <point x="245" y="409" type="line" smooth="yes"/>
    </contour>
  </outline>
</glyph>
<glyph name="asciitilde" format="2">
	<advance width="575"/>
	<unicode hex="007E"/>
	<outline>
		<contour>
			<point x="515" y="308" type="curve" smooth="yes"/>
			<point x="486" y="308" type="line" smooth="yes"/>
			<point x="469" y="308"/>
			<point x="459" y="300"/>
			<point x="459" y="286" type="curve" smooth="yes"/>
			<point x="459" y="241"/>
			<point x="442" y="216"/>
			<point x="412" y="216" type="curve" smooth="yes"/>
			<point x="388" y="216"/>
			<point x="354" y="238"/>
			<point x="315" y="277" type="curve" smooth="yes"/>
			<point x="261" y="331"/>
			<point x="207" y="361"/>
			<point x="164" y="361" type="curve" smooth="yes"/>
			<point x="82" y="361"/>
			<point x="37" y="310"/>
			<point x="37" y="219" type="curve" smooth="yes"/>
			<point x="37" y="202"/>
			<point x="46" y="193"/>
			<point x="61" y="193" type="curve" smooth="yes"/>
			<point x="89" y="193" type="line" smooth="yes"/>
			<point x="107" y="193"/>
			<point x="116" y="201"/>
			<point x="116" y="215" type="curve" smooth="yes"/>
			<point x="116" y="260"/>
			<point x="133" y="284"/>
			<point x="164" y="284" type="curve" smooth="yes"/>
			<point x="187" y="284"/>
			<point x="221" y="263"/>
			<point x="261" y="223" type="curve" smooth="yes"/>
			<point x="315" y="169"/>
			<point x="368" y="140"/>
			<point x="412" y="140" type="curve" smooth="yes"/>
			<point x="493" y="140"/>
			<point x="538" y="190"/>
			<point x="538" y="282" type="curve" smooth="yes"/>
			<point x="538" y="299"/>
			<point x="530" y="308"/>
		</contour>
	</outline>
</glyph>
<glyph name="cent" format="2">
	<advance width="575"/>
	<unicode hex="00A2"/>
	<outline>
		<contour>
			<point x="343" y="-153" type="curve" smooth="yes"/>
			<point x="343" y="31" type="line"/>
			<point x="258" y="44" type="line"/>
			<point x="258" y="-153" type="line" smooth="yes"/>
			<point x="258" y="-170"/>
			<point x="267" y="-178"/>
			<point x="283" y="-178" type="curve" smooth="yes"/>
			<point x="318" y="-178" type="line" smooth="yes"/>
			<point x="334" y="-178"/>
			<point x="343" y="-170"/>
		</contour>
		<contour>
			<point x="258" y="653" type="curve" smooth="yes"/>
			<point x="258" y="467" type="line"/>
			<point x="343" y="480" type="line"/>
			<point x="343" y="653" type="line" smooth="yes"/>
			<point x="343" y="670"/>
			<point x="334" y="678"/>
			<point x="318" y="678" type="curve" smooth="yes"/>
			<point x="283" y="678" type="line" smooth="yes"/>
			<point x="267" y="678"/>
			<point x="258" y="670"/>
		</contour>
		<component base="c"/>
	</outline>
</glyph>
<glyph name="sterling" format="1">
  <advance width="575"/>
  <unicode hex="00A3"/>
  <outline>
    <contour>
      <point x="465" y="518" type="line" smooth="yes"/>
      <point x="481" y="518"/>
      <point x="490" y="527"/>
      <point x="490" y="544" type="curve" smooth="yes"/>
      <point x="489" y="631"/>
      <point x="447" y="710"/>
      <point x="327" y="710" type="curve" smooth="yes"/>
      <point x="235" y="710"/>
      <point x="164" y="664"/>
      <point x="164" y="538" type="curve" smooth="yes"/>
      <point x="164" y="389" type="line"/>
      <point x="110" y="389" type="line" smooth="yes"/>
      <point x="94" y="389"/>
      <point x="85" y="380"/>
      <point x="85" y="363" type="curve" smooth="yes"/>
      <point x="85" y="337" type="line" smooth="yes"/>
      <point x="85" y="321"/>
      <point x="94" y="312"/>
      <point x="110" y="312" type="curve" smooth="yes"/>
      <point x="164" y="312" type="line"/>
      <point x="164" y="77" type="line"/>
      <point x="110" y="77" type="line" smooth="yes"/>
      <point x="94" y="77"/>
      <point x="85" y="68"/>
      <point x="85" y="52" type="curve" smooth="yes"/>
      <point x="85" y="25" type="line" smooth="yes"/>
      <point x="85" y="9"/>
      <point x="94" y="0"/>
      <point x="110" y="0" type="curve" smooth="yes"/>
      <point x="465" y="0" type="line" smooth="yes"/>
      <point x="482" y="0"/>
      <point x="490" y="9"/>
      <point x="490" y="25" type="curve" smooth="yes"/>
      <point x="490" y="52" type="line" smooth="yes"/>
      <point x="490" y="68"/>
      <point x="482" y="77"/>
      <point x="465" y="77" type="curve" smooth="yes"/>
      <point x="249" y="77" type="line"/>
      <point x="249" y="312" type="line"/>
      <point x="425" y="312" type="line" smooth="yes"/>
      <point x="441" y="312"/>
      <point x="450" y="321"/>
      <point x="450" y="337" type="curve" smooth="yes"/>
      <point x="450" y="364" type="line" smooth="yes"/>
      <point x="450" y="380"/>
      <point x="441" y="389"/>
      <point x="425" y="389" type="curve" smooth="yes"/>
      <point x="249" y="389" type="line"/>
      <point x="249" y="538" type="line" smooth="yes"/>
      <point x="249" y="600"/>
      <point x="282" y="634"/>
      <point x="327" y="634" type="curve" smooth="yes"/>
      <point x="384" y="634"/>
      <point x="404" y="588"/>
      <point x="405" y="544" type="curve" smooth="yes"/>
      <point x="405" y="527"/>
      <point x="414" y="518"/>
      <point x="430" y="518" type="curve" smooth="yes"/>
    </contour>
  </outline>
</glyph>
<glyph name="currency" format="1">
  <advance width="575"/>
  <unicode hex="00A4"/>
  <outline>
    <contour>
      <point x="536" y="442" type="line" smooth="yes"/>
      <point x="548" y="453"/>
      <point x="548" y="466"/>
      <point x="535" y="477" type="curve" smooth="yes"/>
      <point x="512" y="498" type="line" smooth="yes"/>
      <point x="500" y="508"/>
      <point x="488" y="508"/>
      <point x="477" y="497" type="curve" smooth="yes"/>
      <point x="397" y="417" type="line"/>
      <point x="365" y="438"/>
      <point x="326" y="449"/>
      <point x="288" y="449" type="curve" smooth="yes"/>
      <point x="249" y="449"/>
      <point x="211" y="438"/>
      <point x="178" y="417" type="curve"/>
      <point x="99" y="497" type="line" smooth="yes"/>
      <point x="87" y="508"/>
      <point x="75" y="508"/>
      <point x="63" y="497" type="curve" smooth="yes"/>
      <point x="40" y="477" type="line" smooth="yes"/>
      <point x="28" y="466"/>
      <point x="28" y="453"/>
      <point x="39" y="442" type="curve" smooth="yes"/>
      <point x="121" y="360" type="line"/>
      <point x="100" y="327"/>
      <point x="89" y="289"/>
      <point x="89" y="250" type="curve" smooth="yes"/>
      <point x="89" y="212"/>
      <point x="100" y="173"/>
      <point x="121" y="141" type="curve"/>
      <point x="39" y="59" type="line" smooth="yes"/>
      <point x="28" y="47"/>
      <point x="28" y="35"/>
      <point x="40" y="24" type="curve" smooth="yes"/>
      <point x="63" y="3" type="line" smooth="yes"/>
      <point x="75" y="-8"/>
      <point x="87" y="-8"/>
      <point x="99" y="4" type="curve" smooth="yes"/>
      <point x="178" y="84" type="line"/>
      <point x="211" y="63"/>
      <point x="249" y="51"/>
      <point x="288" y="51" type="curve" smooth="yes"/>
      <point x="326" y="51"/>
      <point x="365" y="63"/>
      <point x="397" y="84" type="curve"/>
      <point x="477" y="4" type="line" smooth="yes"/>
      <point x="488" y="-8"/>
      <point x="500" y="-8"/>
      <point x="512" y="3" type="curve" smooth="yes"/>
      <point x="535" y="24" type="line" smooth="yes"/>
      <point x="548" y="35"/>
      <point x="548" y="47"/>
      <point x="536" y="59" type="curve" smooth="yes"/>
      <point x="454" y="141" type="line"/>
      <point x="475" y="173"/>
      <point x="487" y="212"/>
      <point x="487" y="250" type="curve" smooth="yes"/>
      <point x="487" y="289"/>
      <point x="475" y="327"/>
      <point x="454" y="360" type="curve"/>
    </contour>
    <contour>
      <point x="220" y="128"/>
      <point x="165" y="182"/>
      <point x="165" y="250" type="curve" smooth="yes"/>
      <point x="165" y="318"/>
      <point x="220" y="373"/>
      <point x="288" y="373" type="curve" smooth="yes"/>
      <point x="356" y="373"/>
      <point x="410" y="318"/>
      <point x="410" y="250" type="curve" smooth="yes"/>
      <point x="410" y="182"/>
      <point x="356" y="128"/>
      <point x="288" y="128" type="curve" smooth="yes"/>
    </contour>
  </outline>
</glyph>
<glyph name="yen" format="2">
	<advance width="575"/>
	<unicode hex="00A5"/>
	<outline>
		<contour>
			<point x="532" y="700" type="curve" smooth="yes"/>
			<point x="496" y="700" type="line" smooth="yes"/>
			<point x="482" y="700"/>
			<point x="472" y="695"/>
			<point x="466" y="682" type="curve" smooth="yes"/>
			<point x="330" y="410" type="line" smooth="yes"/>
			<point x="321" y="391"/>
			<point x="306" y="380"/>
			<point x="288" y="380" type="curve" smooth="yes"/>
			<point x="270" y="380"/>
			<point x="255" y="391"/>
			<point x="245" y="410" type="curve" smooth="yes"/>
			<point x="109" y="682" type="line" smooth="yes"/>
			<point x="103" y="695"/>
			<point x="94" y="700"/>
			<point x="80" y="700" type="curve" smooth="yes"/>
			<point x="43" y="700" type="line" smooth="yes"/>
			<point x="24" y="700"/>
			<point x="16" y="688"/>
			<point x="25" y="671" type="curve" smooth="yes"/>
			<point x="152" y="416" type="line"/>
			<point x="98" y="416" type="line" smooth="yes"/>
			<point x="82" y="416"/>
			<point x="73" y="408"/>
			<point x="73" y="391" type="curve" smooth="yes"/>
			<point x="73" y="370" type="line" smooth="yes"/>
			<point x="73" y="354"/>
			<point x="82" y="345"/>
			<point x="98" y="345" type="curve" smooth="yes"/>
			<point x="478" y="345" type="line" smooth="yes"/>
			<point x="494" y="345"/>
			<point x="503" y="354"/>
			<point x="503" y="370" type="curve" smooth="yes"/>
			<point x="503" y="391" type="line" smooth="yes"/>
			<point x="503" y="408"/>
			<point x="494" y="416"/>
			<point x="478" y="416" type="curve" smooth="yes"/>
			<point x="423" y="416" type="line"/>
			<point x="550" y="671" type="line" smooth="yes"/>
			<point x="559" y="688"/>
			<point x="552" y="700"/>
		</contour>
		<contour>
			<point x="478" y="275" type="curve" smooth="yes"/>
			<point x="98" y="275" type="line" smooth="yes"/>
			<point x="82" y="275"/>
			<point x="73" y="267"/>
			<point x="73" y="250" type="curve" smooth="yes"/>
			<point x="73" y="229" type="line" smooth="yes"/>
			<point x="73" y="213"/>
			<point x="82" y="204"/>
			<point x="98" y="204" type="curve" smooth="yes"/>
			<point x="245" y="204" type="line"/>
			<point x="245" y="25" type="line" smooth="yes"/>
			<point x="245" y="9"/>
			<point x="254" y="0"/>
			<point x="270" y="0" type="curve" smooth="yes"/>
			<point x="305" y="0" type="line" smooth="yes"/>
			<point x="321" y="0"/>
			<point x="330" y="9"/>
			<point x="330" y="25" type="curve" smooth="yes"/>
			<point x="330" y="204" type="line"/>
			<point x="478" y="204" type="line" smooth="yes"/>
			<point x="494" y="204"/>
			<point x="503" y="213"/>
			<point x="503" y="229" type="curve" smooth="yes"/>
			<point x="503" y="250" type="line" smooth="yes"/>
			<point x="503" y="267"/>
			<point x="494" y="275"/>
		</contour>
	</outline>
</glyph>
<glyph name="brokenbar" format="1">
  <advance width="575"/>
  <unicode hex="00A6"/>
  <outline>
    <contour>
      <point x="305" y="-178" type="line" smooth="yes"/>
      <point x="322" y="-178"/>
      <point x="330" y="-169"/>
      <point x="330" y="-153" type="curve" smooth="yes"/>
      <point x="330" y="168" type="line" smooth="yes"/>
      <point x="330" y="185"/>
      <point x="321" y="193"/>
      <point x="305" y="193" type="curve" smooth="yes"/>
      <point x="270" y="193" type="line" smooth="yes"/>
      <point x="254" y="193"/>
      <point x="245" y="185"/>
      <point x="245" y="168" type="curve" smooth="yes"/>
      <point x="245" y="-153" type="line" smooth="yes"/>
      <point x="245" y="-170"/>
      <point x="254" y="-178"/>
      <point x="270" y="-178" type="curve" smooth="yes"/>
    </contour>
    <contour>
      <point x="305" y="379" type="line" smooth="yes"/>
      <point x="321" y="379"/>
      <point x="330" y="388"/>
      <point x="330" y="404" type="curve" smooth="yes"/>
      <point x="330" y="725" type="line" smooth="yes"/>
      <point x="330" y="742"/>
      <point x="322" y="750"/>
      <point x="305" y="750" type="curve" smooth="yes"/>
      <point x="270" y="750" type="line" smooth="yes"/>
      <point x="254" y="750"/>
      <point x="245" y="741"/>
      <point x="245" y="725" type="curve" smooth="yes"/>
      <point x="245" y="404" type="line" smooth="yes"/>
      <point x="245" y="388"/>
      <point x="254" y="379"/>
      <point x="270" y="379" type="curve" smooth="yes"/>
    </contour>
  </outline>
</glyph>
<glyph name="section" format="1">
  <advance width="575"/>
  <unicode hex="00A7"/>
  <outline>
    <contour>
      <point x="439" y="232"/>
      <point x="469" y="269"/>
      <point x="469" y="321" type="curve" smooth="yes"/>
      <point x="469" y="391"/>
      <point x="423" y="430"/>
      <point x="298" y="469" type="curve" smooth="yes"/>
      <point x="229" y="489"/>
      <point x="191" y="524"/>
      <point x="191" y="568" type="curve" smooth="yes"/>
      <point x="191" y="609"/>
      <point x="229" y="632"/>
      <point x="299" y="634" type="curve" smooth="yes"/>
      <point x="318" y="634"/>
      <point x="356" y="632"/>
      <point x="399" y="625" type="curve" smooth="yes"/>
      <point x="415" y="622"/>
      <point x="425" y="628"/>
      <point x="429" y="643" type="curve" smooth="yes"/>
      <point x="436" y="669" type="line" smooth="yes"/>
      <point x="440" y="685"/>
      <point x="433" y="696"/>
      <point x="417" y="699" type="curve" smooth="yes"/>
      <point x="369" y="708"/>
      <point x="325" y="710"/>
      <point x="299" y="710" type="curve" smooth="yes"/>
      <point x="174" y="710"/>
      <point x="106" y="659"/>
      <point x="106" y="564" type="curve" smooth="yes"/>
      <point x="106" y="509"/>
      <point x="137" y="462"/>
      <point x="194" y="428" type="curve"/>
      <point x="136" y="408"/>
      <point x="106" y="372"/>
      <point x="106" y="320" type="curve" smooth="yes"/>
      <point x="106" y="250"/>
      <point x="152" y="210"/>
      <point x="278" y="172" type="curve" smooth="yes"/>
      <point x="347" y="151"/>
      <point x="384" y="116"/>
      <point x="384" y="73" type="curve" smooth="yes"/>
      <point x="384" y="32"/>
      <point x="343" y="8"/>
      <point x="267" y="7" type="curve" smooth="yes"/>
      <point x="247" y="7"/>
      <point x="194" y="8"/>
      <point x="152" y="16" type="curve" smooth="yes"/>
      <point x="136" y="19"/>
      <point x="125" y="13"/>
      <point x="121" y="-3" type="curve" smooth="yes"/>
      <point x="115" y="-29" type="line" smooth="yes"/>
      <point x="111" y="-45"/>
      <point x="117" y="-56"/>
      <point x="134" y="-59" type="curve" smooth="yes"/>
      <point x="182" y="-68"/>
      <point x="241" y="-70"/>
      <point x="267" y="-70" type="curve" smooth="yes"/>
      <point x="398" y="-70"/>
      <point x="469" y="-19"/>
      <point x="469" y="76" type="curve" smooth="yes"/>
      <point x="469" y="132"/>
      <point x="439" y="178"/>
      <point x="382" y="212" type="curve"/>
    </contour>
    <contour>
      <point x="191" y="364"/>
      <point x="213" y="386"/>
      <point x="254" y="400" type="curve"/>
      <point x="262" y="397"/>
      <point x="270" y="394"/>
      <point x="278" y="392" type="curve"/>
      <point x="356" y="369"/>
      <point x="385" y="346"/>
      <point x="384" y="306" type="curve" smooth="yes"/>
      <point x="384" y="278"/>
      <point x="361" y="256"/>
      <point x="317" y="242" type="curve"/>
      <point x="298" y="248" type="line" smooth="yes"/>
      <point x="219" y="271"/>
      <point x="191" y="294"/>
      <point x="191" y="335" type="curve" smooth="yes"/>
    </contour>
  </outline>
</glyph>
<glyph name="dieresis" format="1">
  <advance width="575"/>
  <unicode hex="00A8"/>
  <outline>
    <contour>
      <point x="227" y="675" type="line" smooth="yes"/>
      <point x="227" y="691"/>
      <point x="219" y="700"/>
      <point x="202" y="700" type="curve" smooth="yes"/>
      <point x="167" y="700" type="line" smooth="yes"/>
      <point x="151" y="700"/>
      <point x="142" y="691"/>
      <point x="142" y="675" type="curve" smooth="yes"/>
      <point x="142" y="629" type="line" smooth="yes"/>
      <point x="142" y="613"/>
      <point x="151" y="604"/>
      <point x="167" y="604" type="curve" smooth="yes"/>
      <point x="202" y="604" type="line" smooth="yes"/>
      <point x="219" y="604"/>
      <point x="227" y="612"/>
      <point x="227" y="629" type="curve" smooth="yes"/>
    </contour>
    <contour>
      <point x="434" y="675" type="line" smooth="yes"/>
      <point x="434" y="691"/>
      <point x="425" y="700"/>
      <point x="409" y="700" type="curve" smooth="yes"/>
      <point x="374" y="700" type="line" smooth="yes"/>
      <point x="358" y="700"/>
      <point x="349" y="691"/>
      <point x="349" y="675" type="curve" smooth="yes"/>
      <point x="349" y="629" type="line" smooth="yes"/>
      <point x="349" y="613"/>
      <point x="357" y="604"/>
      <point x="374" y="604" type="curve" smooth="yes"/>
      <point x="409" y="604" type="line" smooth="yes"/>
      <point x="425" y="604"/>
      <point x="434" y="612"/>
      <point x="434" y="629" type="curve" smooth="yes"/>
    </contour>
    <contour>
      <point x="288" y="500" type="move" name="_top"/>
    </contour>
  </outline>
</glyph>
<glyph name="ordfeminine" format="2">
	<advance width="575"/>
	<unicode hex="00AA"/>
	<outline>
		<contour>
			<point x="182" y="467" type="curve" smooth="yes"/>
			<point x="182" y="495"/>
			<point x="206" y="512"/>
			<point x="285" y="511" type="curve" smooth="yes"/>
			<point x="385" y="510" type="line"/>
			<point x="385" y="425" type="line"/>
			<point x="347" y="422"/>
			<point x="320" y="420"/>
			<point x="300" y="420" type="curve" smooth="yes"/>
			<point x="211" y="420"/>
			<point x="182" y="439"/>
		</contour>
		<contour>
			<point x="470" y="378" type="curve" smooth="yes"/>
			<point x="470" y="592" type="line"/>
			<point x="470" y="724"/>
			<point x="399" y="759"/>
			<point x="277" y="759" type="curve" smooth="yes"/>
			<point x="244" y="759"/>
			<point x="211" y="757"/>
			<point x="161" y="749" type="curve" smooth="yes"/>
			<point x="145" y="747"/>
			<point x="137" y="737"/>
			<point x="139" y="721" type="curve" smooth="yes"/>
			<point x="143" y="692" type="line" smooth="yes"/>
			<point x="145" y="675"/>
			<point x="155" y="669"/>
			<point x="172" y="671" type="curve" smooth="yes"/>
			<point x="216" y="678"/>
			<point x="245" y="681"/>
			<point x="277" y="681" type="curve" smooth="yes"/>
			<point x="357" y="681"/>
			<point x="385" y="664"/>
			<point x="385" y="592" type="curve" smooth="yes"/>
			<point x="385" y="588" type="line"/>
			<point x="286" y="589" type="line" smooth="yes"/>
			<point x="151" y="590"/>
			<point x="97" y="535"/>
			<point x="97" y="467" type="curve" smooth="yes"/>
			<point x="97" y="393"/>
			<point x="162" y="342"/>
			<point x="302" y="342" type="curve" smooth="yes"/>
			<point x="333" y="342"/>
			<point x="375" y="344"/>
			<point x="446" y="352" type="curve" smooth="yes"/>
			<point x="462" y="353"/>
			<point x="470" y="363"/>
		</contour>
	</outline>
</glyph>
<glyph name="guillemotleft" format="2">
	<advance width="575"/>
	<unicode hex="00AB"/>
	<outline>
		<contour>
			<point x="301" y="63" type="curve" smooth="yes"/>
			<point x="114" y="250" type="line"/>
			<point x="301" y="437" type="line" smooth="yes"/>
			<point x="312" y="449"/>
			<point x="312" y="462"/>
			<point x="300" y="473" type="curve" smooth="yes"/>
			<point x="277" y="493" type="line" smooth="yes"/>
			<point x="265" y="504"/>
			<point x="253" y="504"/>
			<point x="241" y="492" type="curve" smooth="yes"/>
			<point x="65" y="316" type="line" smooth="yes"/>
			<point x="46" y="297"/>
			<point x="30" y="277"/>
			<point x="30" y="250" type="curve" smooth="yes"/>
			<point x="30" y="223"/>
			<point x="46" y="204"/>
			<point x="65" y="185" type="curve" smooth="yes"/>
			<point x="241" y="8" type="line" smooth="yes"/>
			<point x="253" y="-3"/>
			<point x="265" y="-3"/>
			<point x="277" y="7" type="curve" smooth="yes"/>
			<point x="300" y="28" type="line" smooth="yes"/>
			<point x="312" y="39"/>
			<point x="312" y="52"/>
		</contour>
		<contour>
			<point x="537" y="63" type="curve" smooth="yes"/>
			<point x="350" y="250" type="line"/>
			<point x="537" y="437" type="line" smooth="yes"/>
			<point x="549" y="449"/>
			<point x="549" y="462"/>
			<point x="536" y="473" type="curve" smooth="yes"/>
			<point x="513" y="493" type="line" smooth="yes"/>
			<point x="501" y="504"/>
			<point x="489" y="504"/>
			<point x="478" y="492" type="curve" smooth="yes"/>
			<point x="301" y="316" type="line" smooth="yes"/>
			<point x="282" y="297"/>
			<point x="266" y="277"/>
			<point x="266" y="250" type="curve" smooth="yes"/>
			<point x="266" y="223"/>
			<point x="282" y="204"/>
			<point x="301" y="185" type="curve" smooth="yes"/>
			<point x="478" y="8" type="line" smooth="yes"/>
			<point x="489" y="-3"/>
			<point x="501" y="-3"/>
			<point x="513" y="7" type="curve" smooth="yes"/>
			<point x="536" y="28" type="line" smooth="yes"/>
			<point x="549" y="39"/>
			<point x="549" y="52"/>
		</contour>
	</outline>
</glyph>
<glyph name="logicalnot" format="1">
  <advance width="575"/>
  <unicode hex="00AC"/>
  <outline>
    <contour>
      <point x="110" y="414" type="line" smooth="yes"/>
      <point x="94" y="414"/>
      <point x="85" y="405"/>
      <point x="85" y="389" type="curve" smooth="yes"/>
      <point x="85" y="362" type="line" smooth="yes"/>
      <point x="85" y="346"/>
      <point x="94" y="337"/>
      <point x="110" y="337" type="curve" smooth="yes"/>
      <point x="405" y="337" type="line"/>
      <point x="405" y="150" type="line" smooth="yes"/>
      <point x="405" y="134"/>
      <point x="414" y="125"/>
      <point x="430" y="125" type="curve" smooth="yes"/>
      <point x="465" y="125" type="line" smooth="yes"/>
      <point x="482" y="125"/>
      <point x="490" y="134"/>
      <point x="490" y="150" type="curve" smooth="yes"/>
      <point x="490" y="389" type="line" smooth="yes"/>
      <point x="490" y="405"/>
      <point x="481" y="414"/>
      <point x="465" y="414" type="curve" smooth="yes"/>
    </contour>
  </outline>
</glyph>
<glyph name="macron" format="1">
  <advance width="575"/>
  <unicode hex="00AF"/>
  <outline>
    <contour>
      <point x="144" y="649" type="line" smooth="yes"/>
      <point x="144" y="632"/>
      <point x="153" y="624"/>
      <point x="169" y="624" type="curve" smooth="yes"/>
      <point x="407" y="624" type="line" smooth="yes"/>
      <point x="423" y="624"/>
      <point x="432" y="632"/>
      <point x="432" y="648" type="curve" smooth="yes"/>
      <point x="432" y="675" type="line" smooth="yes"/>
      <point x="432" y="691"/>
      <point x="423" y="700"/>
      <point x="407" y="700" type="curve" smooth="yes"/>
      <point x="169" y="700" type="line" smooth="yes"/>
      <point x="153" y="700"/>
      <point x="144" y="691"/>
      <point x="144" y="675" type="curve" smooth="yes"/>
    </contour>
    <contour>
      <point x="288" y="500" type="move" name="_top"/>
    </contour>
  </outline>
</glyph>
<glyph name="degree" format="2">
	<advance width="575"/>
	<unicode hex="00B0"/>
	<outline>
		<contour>
			<point x="291" y="710" type="curve" smooth="yes"/>
			<point x="185" y="710"/>
			<point x="105" y="632"/>
			<point x="105" y="528" type="curve" smooth="yes"/>
			<point x="105" y="424"/>
			<point x="185" y="346"/>
			<point x="291" y="346" type="curve" smooth="yes"/>
			<point x="393" y="346"/>
			<point x="470" y="424"/>
			<point x="470" y="528" type="curve" smooth="yes"/>
			<point x="470" y="632"/>
			<point x="393" y="710"/>
		</contour>
		<contour>
			<point x="288" y="423" type="curve" smooth="yes"/>
			<point x="232" y="423"/>
			<point x="190" y="468"/>
			<point x="190" y="528" type="curve" smooth="yes"/>
			<point x="190" y="588"/>
			<point x="232" y="633"/>
			<point x="288" y="633" type="curve" smooth="yes"/>
			<point x="343" y="633"/>
			<point x="385" y="588"/>
			<point x="385" y="528" type="curve" smooth="yes"/>
			<point x="385" y="468"/>
			<point x="343" y="423"/>
		</contour>
	</outline>
</glyph>
<glyph name="plusminus" format="1">
  <advance width="575"/>
  <unicode hex="00B1"/>
  <outline>
    <contour>
      <point x="330" y="452" type="line"/>
      <point x="330" y="625" type="line" smooth="yes"/>
      <point x="330" y="641"/>
      <point x="322" y="650"/>
      <point x="305" y="650" type="curve" smooth="yes"/>
      <point x="270" y="650" type="line" smooth="yes"/>
      <point x="254" y="650"/>
      <point x="245" y="641"/>
      <point x="245" y="625" type="curve" smooth="yes"/>
      <point x="245" y="452" type="line"/>
      <point x="76" y="452" type="line" smooth="yes"/>
      <point x="60" y="452"/>
      <point x="51" y="443"/>
      <point x="51" y="426" type="curve" smooth="yes"/>
      <point x="51" y="400" type="line" smooth="yes"/>
      <point x="51" y="384"/>
      <point x="60" y="375"/>
      <point x="76" y="375" type="curve" smooth="yes"/>
      <point x="245" y="375" type="line"/>
      <point x="245" y="202" type="line" smooth="yes"/>
      <point x="245" y="186"/>
      <point x="254" y="177"/>
      <point x="270" y="177" type="curve" smooth="yes"/>
      <point x="305" y="177" type="line" smooth="yes"/>
      <point x="322" y="177"/>
      <point x="330" y="185"/>
      <point x="330" y="202" type="curve" smooth="yes"/>
      <point x="330" y="375" type="line"/>
      <point x="499" y="375" type="line" smooth="yes"/>
      <point x="516" y="375"/>
      <point x="524" y="384"/>
      <point x="524" y="400" type="curve" smooth="yes"/>
      <point x="524" y="427" type="line" smooth="yes"/>
      <point x="524" y="443"/>
      <point x="516" y="452"/>
      <point x="499" y="452" type="curve" smooth="yes"/>
    </contour>
    <contour>
      <point x="51" y="25" type="line" smooth="yes"/>
      <point x="51" y="9"/>
      <point x="60" y="0"/>
      <point x="76" y="0" type="curve" smooth="yes"/>
      <point x="499" y="0" type="line" smooth="yes"/>
      <point x="516" y="0"/>
      <point x="524" y="9"/>
      <point x="524" y="25" type="curve" smooth="yes"/>
      <point x="524" y="52" type="line" smooth="yes"/>
      <point x="524" y="68"/>
      <point x="516" y="77"/>
      <point x="499" y="77" type="curve" smooth="yes"/>
      <point x="76" y="77" type="line" smooth="yes"/>
      <point x="60" y="77"/>
      <point x="51" y="68"/>
      <point x="51" y="52" type="curve" smooth="yes"/>
    </contour>
  </outline>
</glyph>
<glyph name="acute" format="1">
  <advance width="575"/>
  <unicode hex="00B4"/>
  <outline>
    <contour>
      <point x="185" y="544" type="line"/>
      <point x="193" y="530"/>
      <point x="204" y="526"/>
      <point x="219" y="531" type="curve" smooth="yes"/>
      <point x="440" y="606" type="line" smooth="yes"/>
      <point x="456" y="611"/>
      <point x="461" y="623"/>
      <point x="454" y="638" type="curve" smooth="yes"/>
      <point x="433" y="684" type="line" smooth="yes"/>
      <point x="426" y="699"/>
      <point x="414" y="703"/>
      <point x="400" y="696" type="curve" smooth="yes"/>
      <point x="190" y="595" type="line" smooth="yes"/>
      <point x="175" y="588"/>
      <point x="171" y="577"/>
      <point x="177" y="562" type="curve"/>
    </contour>
    <contour>
      <point x="288" y="500" type="move" name="_top"/>
    </contour>
  </outline>
</glyph>
<glyph name="uni00B5" format="2">
	<advance width="575"/>
	<unicode hex="00B5"/>
	<outline>
		<contour>
			<point x="465" y="500" type="curve" smooth="yes"/>
			<point x="430" y="500" type="line" smooth="yes"/>
			<point x="414" y="500"/>
			<point x="405" y="491"/>
			<point x="405" y="475" type="curve" smooth="yes"/>
			<point x="405" y="71" type="line"/>
			<point x="360" y="68"/>
			<point x="322" y="67"/>
			<point x="298" y="67" type="curve" smooth="yes"/>
			<point x="206" y="67"/>
			<point x="170" y="99"/>
			<point x="170" y="193" type="curve" smooth="yes"/>
			<point x="170" y="475" type="line" smooth="yes"/>
			<point x="170" y="491"/>
			<point x="162" y="500"/>
			<point x="145" y="500" type="curve" smooth="yes"/>
			<point x="110" y="500" type="line" smooth="yes"/>
			<point x="94" y="500"/>
			<point x="85" y="492"/>
			<point x="85" y="475" type="curve" smooth="yes"/>
			<point x="85" y="-213" type="line" smooth="yes"/>
			<point x="85" y="-229"/>
			<point x="94" y="-238"/>
			<point x="110" y="-238" type="curve" smooth="yes"/>
			<point x="145" y="-238" type="line" smooth="yes"/>
			<point x="161" y="-238"/>
			<point x="170" y="-229"/>
			<point x="170" y="-213" type="curve" smooth="yes"/>
			<point x="170" y="23" type="line"/>
			<point x="199" y="0"/>
			<point x="241" y="-10"/>
			<point x="298" y="-10" type="curve" smooth="yes"/>
			<point x="331" y="-10"/>
			<point x="394" y="-9"/>
			<point x="467" y="3" type="curve" smooth="yes"/>
			<point x="483" y="5"/>
			<point x="490" y="14"/>
			<point x="490" y="30" type="curve" smooth="yes"/>
			<point x="490" y="475" type="line" smooth="yes"/>
			<point x="490" y="492"/>
			<point x="482" y="500"/>
		</contour>
		<contour>
			<point x="1324" y="-63" type="move"/>
			<point x="1323" y="-65"/>
			<point x="1323" y="-64"/>
			<point x="1323" y="-65" type="curve"/>
		</contour>
	</outline>
</glyph>
<glyph name="paragraph" format="2">
	<advance width="575"/>
	<unicode hex="00B6"/>
	<outline>
		<contour>
			<point x="310" y="700" type="curve" smooth="yes"/>
			<point x="250" y="700" type="line" smooth="yes"/>
			<point x="106" y="700"/>
			<point x="59" y="615"/>
			<point x="59" y="511" type="curve" smooth="yes"/>
			<point x="59" y="407"/>
			<point x="106" y="322"/>
			<point x="250" y="322" type="curve"/>
			<point x="250" y="-75" type="line" smooth="yes"/>
			<point x="250" y="-91"/>
			<point x="259" y="-100"/>
			<point x="275" y="-100" type="curve" smooth="yes"/>
			<point x="310" y="-100" type="line" smooth="yes"/>
			<point x="327" y="-100"/>
			<point x="335" y="-91"/>
			<point x="335" y="-75" type="curve" smooth="yes"/>
			<point x="335" y="675" type="line" smooth="yes"/>
			<point x="335" y="692"/>
			<point x="327" y="700"/>
		</contour>
		<contour>
			<point x="495" y="700" type="curve" smooth="yes"/>
			<point x="460" y="700" type="line" smooth="yes"/>
			<point x="444" y="700"/>
			<point x="435" y="691"/>
			<point x="435" y="675" type="curve" smooth="yes"/>
			<point x="435" y="-75" type="line" smooth="yes"/>
			<point x="435" y="-91"/>
			<point x="444" y="-100"/>
			<point x="460" y="-100" type="curve" smooth="yes"/>
			<point x="495" y="-100" type="line" smooth="yes"/>
			<point x="512" y="-100"/>
			<point x="520" y="-91"/>
			<point x="520" y="-75" type="curve" smooth="yes"/>
			<point x="520" y="675" type="line" smooth="yes"/>
			<point x="520" y="692"/>
			<point x="512" y="700"/>
		</contour>
	</outline>
</glyph>
<glyph name="periodcentered" format="2">
	<advance width="575"/>
	<unicode hex="00B7"/>
	<outline>
		<contour>
			<point x="330" y="227" type="curve" smooth="yes"/>
			<point x="330" y="274" type="line" smooth="yes"/>
			<point x="330" y="290"/>
			<point x="322" y="299"/>
			<point x="305" y="299" type="curve" smooth="yes"/>
			<point x="270" y="299" type="line" smooth="yes"/>
			<point x="254" y="299"/>
			<point x="245" y="290"/>
			<point x="245" y="273" type="curve" smooth="yes"/>
			<point x="245" y="227" type="line" smooth="yes"/>
			<point x="245" y="211"/>
			<point x="254" y="202"/>
			<point x="270" y="202" type="curve" smooth="yes"/>
			<point x="305" y="202" type="line" smooth="yes"/>
			<point x="322" y="202"/>
			<point x="330" y="211"/>
		</contour>
	</outline>
</glyph>
<glyph name="ordmasculine" format="2">
	<advance width="575"/>
	<unicode hex="00BA"/>
	<anchor x="288" y="740" name="top"/>
	<outline>
		<contour>
			<point x="288" y="340" type="curve" smooth="yes"/>
			<point x="423" y="340"/>
			<point x="478" y="395"/>
			<point x="478" y="550" type="curve" smooth="yes"/>
			<point x="478" y="705"/>
			<point x="423" y="760"/>
			<point x="288" y="760" type="curve" smooth="yes"/>
			<point x="153" y="760"/>
			<point x="98" y="705"/>
			<point x="98" y="550" type="curve" smooth="yes"/>
			<point x="98" y="395"/>
			<point x="153" y="340"/>
		</contour>
		<contour>
			<point x="288" y="418" type="curve" smooth="yes"/>
			<point x="203" y="418"/>
			<point x="183" y="437"/>
			<point x="183" y="550" type="curve" smooth="yes"/>
			<point x="183" y="663"/>
			<point x="203" y="682"/>
			<point x="288" y="682" type="curve" smooth="yes"/>
			<point x="373" y="682"/>
			<point x="393" y="663"/>
			<point x="393" y="550" type="curve" smooth="yes"/>
			<point x="393" y="437"/>
			<point x="373" y="418"/>
		</contour>
	</outline>
</glyph>
<glyph name="AE" format="1">
  <advance width="575"/>
  <unicode hex="00C6"/>
  <outline>
    <contour>
      <point x="373" y="77" type="line"/>
      <point x="373" y="326" type="line"/>
      <point x="475" y="326" type="line" smooth="yes"/>
      <point x="491" y="326"/>
      <point x="500" y="335"/>
      <point x="500" y="351" type="curve" smooth="yes"/>
      <point x="500" y="378" type="line" smooth="yes"/>
      <point x="500" y="394"/>
      <point x="491" y="403"/>
      <point x="475" y="403" type="curve" smooth="yes"/>
      <point x="373" y="403" type="line"/>
      <point x="373" y="624" type="line"/>
      <point x="482" y="624" type="line" smooth="yes"/>
      <point x="498" y="624"/>
      <point x="507" y="632"/>
      <point x="507" y="649" type="curve" smooth="yes"/>
      <point x="507" y="675" type="line" smooth="yes"/>
      <point x="507" y="692"/>
      <point x="498" y="700"/>
      <point x="482" y="700" type="curve" smooth="yes"/>
      <point x="288" y="700" type="line" smooth="yes"/>
      <point x="223" y="700"/>
      <point x="180" y="679"/>
      <point x="165" y="621" type="curve" smooth="yes"/>
      <point x="17" y="28" type="line" smooth="yes"/>
      <point x="13" y="11"/>
      <point x="21" y="0"/>
      <point x="39" y="0" type="curve" smooth="yes"/>
      <point x="74" y="0" type="line" smooth="yes"/>
      <point x="89" y="0"/>
      <point x="99" y="7"/>
      <point x="102" y="22" type="curve"/>
      <point x="139" y="170" type="line"/>
      <point x="288" y="170" type="line"/>
      <point x="288" y="25" type="line" smooth="yes"/>
      <point x="288" y="9"/>
      <point x="297" y="0"/>
      <point x="313" y="0" type="curve" smooth="yes"/>
      <point x="493" y="0" type="line" smooth="yes"/>
      <point x="510" y="0"/>
      <point x="518" y="9"/>
      <point x="518" y="25" type="curve" smooth="yes"/>
      <point x="518" y="52" type="line" smooth="yes"/>
      <point x="518" y="68"/>
      <point x="510" y="77"/>
      <point x="493" y="77" type="curve" smooth="yes"/>
    </contour>
    <contour>
      <point x="288" y="246" type="line"/>
      <point x="158" y="246" type="line"/>
      <point x="249" y="607" type="line" smooth="yes"/>
      <point x="253" y="624"/>
      <point x="267" y="634"/>
      <point x="288" y="634" type="curve"/>
    </contour>
  </outline>
</glyph>
<glyph name="Eth" format="2">
	<advance width="575"/>
	<unicode hex="00D0"/>
	<anchor x="288" y="350" name="center"/>
	<anchor x="288" y="700" name="top"/>
	<outline>
		<contour>
			<point x="144" y="700" type="curve" smooth="yes"/>
			<point x="64" y="700" type="line" smooth="yes"/>
			<point x="47" y="700"/>
			<point x="39" y="691"/>
			<point x="39" y="675" type="curve" smooth="yes"/>
			<point x="39" y="649" type="line" smooth="yes"/>
			<point x="39" y="633"/>
			<point x="47" y="624"/>
			<point x="64" y="624" type="curve" smooth="yes"/>
			<point x="102" y="624" type="line"/>
			<point x="102" y="389" type="line"/>
			<point x="67" y="389" type="line" smooth="yes"/>
			<point x="51" y="389"/>
			<point x="42" y="380"/>
			<point x="42" y="363" type="curve" smooth="yes"/>
			<point x="42" y="337" type="line" smooth="yes"/>
			<point x="42" y="321"/>
			<point x="51" y="312"/>
			<point x="67" y="312" type="curve" smooth="yes"/>
			<point x="102" y="312" type="line"/>
			<point x="102" y="25" type="line" smooth="yes"/>
			<point x="102" y="9"/>
			<point x="111" y="0"/>
			<point x="127" y="0" type="curve" smooth="yes"/>
			<point x="183" y="0" type="line" smooth="yes"/>
			<point x="434" y="0"/>
			<point x="517" y="102"/>
			<point x="517" y="330" type="curve" smooth="yes"/>
			<point x="517" y="370" type="line" smooth="yes"/>
			<point x="517" y="631"/>
			<point x="393" y="700"/>
		</contour>
		<contour>
			<point x="432" y="370" type="curve" smooth="yes"/>
			<point x="432" y="330" type="line"/>
			<point x="432" y="147"/>
			<point x="360" y="77"/>
			<point x="187" y="77" type="curve"/>
			<point x="187" y="312" type="line"/>
			<point x="290" y="312" type="line" smooth="yes"/>
			<point x="306" y="312"/>
			<point x="315" y="321"/>
			<point x="315" y="337" type="curve" smooth="yes"/>
			<point x="315" y="364" type="line" smooth="yes"/>
			<point x="315" y="380"/>
			<point x="306" y="389"/>
			<point x="290" y="389" type="curve" smooth="yes"/>
			<point x="187" y="389" type="line"/>
			<point x="187" y="623" type="line"/>
			<point x="367" y="618"/>
			<point x="432" y="536"/>
		</contour>
	</outline>
</glyph>
<glyph name="Oslash" format="1">
  <advance width="575"/>
  <unicode hex="00D8"/>
  <outline>
    <contour>
      <point x="488" y="783" type="line" smooth="yes"/>
      <point x="474" y="790"/>
      <point x="462" y="786"/>
      <point x="455" y="772" type="curve" smooth="yes"/>
      <point x="405" y="672" type="line"/>
      <point x="373" y="697"/>
      <point x="333" y="710"/>
      <point x="288" y="710" type="curve" smooth="yes"/>
      <point x="170" y="710"/>
      <point x="85" y="624"/>
      <point x="85" y="457" type="curve" smooth="yes"/>
      <point x="85" y="243" type="line" smooth="yes"/>
      <point x="85" y="183"/>
      <point x="96" y="133"/>
      <point x="116" y="94" type="curve"/>
      <point x="42" y="-54" type="line" smooth="yes"/>
      <point x="35" y="-68"/>
      <point x="39" y="-80"/>
      <point x="53" y="-87" type="curve" smooth="yes"/>
      <point x="85" y="-103" type="line" smooth="yes"/>
      <point x="99" y="-110"/>
      <point x="111" y="-106"/>
      <point x="118" y="-92" type="curve" smooth="yes"/>
      <point x="176" y="23" type="line"/>
      <point x="207" y="1"/>
      <point x="245" y="-10"/>
      <point x="288" y="-10" type="curve" smooth="yes"/>
      <point x="406" y="-10"/>
      <point x="490" y="78"/>
      <point x="490" y="243" type="curve" smooth="yes"/>
      <point x="490" y="457" type="line" smooth="yes"/>
      <point x="490" y="513"/>
      <point x="480" y="560"/>
      <point x="463" y="598" type="curve"/>
      <point x="531" y="734" type="line" smooth="yes"/>
      <point x="538" y="748"/>
      <point x="534" y="760"/>
      <point x="520" y="767" type="curve" smooth="yes"/>
    </contour>
    <contour>
      <point x="170" y="457" type="line" smooth="yes"/>
      <point x="170" y="569"/>
      <point x="223" y="634"/>
      <point x="288" y="634" type="curve" smooth="yes"/>
      <point x="318" y="634"/>
      <point x="345" y="620"/>
      <point x="366" y="594" type="curve"/>
      <point x="172" y="206" type="line"/>
      <point x="171" y="218"/>
      <point x="170" y="230"/>
      <point x="170" y="243" type="curve" smooth="yes"/>
    </contour>
    <contour>
      <point x="405" y="243" type="line" smooth="yes"/>
      <point x="405" y="131"/>
      <point x="353" y="66"/>
      <point x="288" y="66" type="curve" smooth="yes"/>
      <point x="260" y="66"/>
      <point x="234" y="78"/>
      <point x="214" y="100" type="curve"/>
      <point x="404" y="480" type="line"/>
      <point x="405" y="473"/>
      <point x="405" y="465"/>
      <point x="405" y="457" type="curve" smooth="yes"/>
    </contour>
    <contour>
      <point x="288" y="700" type="move" name="top"/>
    </contour>
  </outline>
</glyph>
<glyph name="Thorn" format="2">
	<advance width="575"/>
	<unicode hex="00DE"/>
	<outline>
		<contour>
			<point x="170" y="637" type="curve"/>
			<point x="170" y="675" type="line" smooth="yes"/>
			<point x="170" y="691"/>
			<point x="161" y="700"/>
			<point x="145" y="700" type="curve" smooth="yes"/>
			<point x="110" y="700" type="line" smooth="yes"/>
			<point x="94" y="700"/>
			<point x="85" y="691"/>
			<point x="85" y="675" type="curve" smooth="yes"/>
			<point x="85" y="25" type="line" smooth="yes"/>
			<point x="85" y="9"/>
			<point x="94" y="0"/>
			<point x="110" y="0" type="curve" smooth="yes"/>
			<point x="145" y="0" type="line" smooth="yes"/>
			<point x="161" y="0"/>
			<point x="170" y="9"/>
			<point x="170" y="25" type="curve" smooth="yes"/>
			<point x="170" y="126" type="line"/>
			<point x="208" y="122"/>
			<point x="239" y="121"/>
			<point x="259" y="121" type="curve" smooth="yes"/>
			<point x="426" y="121"/>
			<point x="490" y="197"/>
			<point x="490" y="382" type="curve" smooth="yes"/>
			<point x="490" y="567"/>
			<point x="425" y="642"/>
			<point x="259" y="642" type="curve" smooth="yes"/>
			<point x="237" y="642"/>
			<point x="206" y="641"/>
		</contour>
		<contour>
			<point x="170" y="202" type="curve"/>
			<point x="170" y="562" type="line"/>
			<point x="209" y="565"/>
			<point x="241" y="565"/>
			<point x="259" y="565" type="curve" smooth="yes"/>
			<point x="373" y="565"/>
			<point x="405" y="514"/>
			<point x="405" y="382" type="curve" smooth="yes"/>
			<point x="405" y="247"/>
			<point x="371" y="198"/>
			<point x="259" y="198" type="curve" smooth="yes"/>
			<point x="239" y="198"/>
			<point x="207" y="199"/>
		</contour>
	</outline>
</glyph>
